<?xml version="1.0" encoding="UTF-8"?>
<svg id="Layer_1" xmlns="http://www.w3.org/2000/svg" version="1.1" viewBox="0 0 1920 187.95">
  <!-- Generator: Adobe Illustrator 29.9.0, SVG Export Plug-In . SVG Version: 2.1.1 Build 14)  -->
  <defs>
    <style>
      .st0 {
        fill: #fff;
      }
    </style>
  </defs>
  <path class="st0" d="M1870.34,42.27c-15.01-12.43-38.38-8.1-46.46,10-.58,1.31-2.64,6.72-2.64,7.73v9c-11.54-2.5-23.78-1.49-34.65,3.12-16.31-16.75-41.16-23.22-63.31-14.71-10.76-16.23-31.19-21.46-47.67-9.92-6.08,4.26-8.91,9.66-12.32,16.03-21.57-19.43-54.97-5-54.85,24.03-22.41-9.72-50.24-2.1-64.62,17.49l-1.06.5c-4.44-5.73-10.68-10.18-17.74-12.04,4.38-33.62-32.5-56.91-60.89-37.7-14.39-14.23-38.43-7.82-41.74,12.65-9.93-6.76-22.17-4.06-30.26,4.21-3.51-1.59-7.27-2.85-11.17-2.6-3.6-37.26-47.33-51.57-73.41-25.16-16.02-11.66-38.27-1.05-39.57,18.64-11.19-9.18-27.19-11.28-40.66-6.17-12.47-17.32-35.95-15.09-45.27,3.98-13.34-13.21-32.69-18.08-50.78-12.69-11.96-17.96-37.38-15.2-45.81,4.52-15.32-13.71-38.79-4.92-40.61,15.49-4.25-4.19-10.01-6.83-16.4-7.03-5.74-.82-11.68-.1-16.91,2.45v-.65c.13-.96.2-1.94.2-2.94s-.07-1.98-.2-2.94v-1.93c0-1.13-1.89-6.51-2.47-7.91-7.97-19.43-32.64-25.04-49.09-12.69-16.45-12.34-41.12-6.74-49.09,12.69-.51,1.24-2.06,5.62-2.4,7.38-.53,1.88-.82,3.86-.82,5.91,0,.96.07,1.89.19,2.82-5.27-2.41-11.22-3.03-16.93-2.11-5.64.51-10.73,2.92-14.62,6.6l-1.16.68c-1.6-20.65-25.24-29.6-40.64-15.82-8.43-19.72-33.85-22.48-45.81-4.52-18.09-5.39-37.44-.52-50.78,12.69-9.32-19.07-32.8-21.3-45.27-3.98-13.47-5.11-29.47-3.01-40.66,6.17-1.29-19.69-23.55-30.3-39.57-18.64-26.08-26.41-69.81-12.1-73.41,25.16-3.9-.25-7.66,1.01-11.17,2.6-8.1-8.27-20.34-10.97-30.26-4.21-3.31-20.47-27.34-26.88-41.74-12.65-28.39-19.21-65.27,4.08-60.89,37.7-7.06,1.86-13.3,6.31-17.74,12.04l-1.06-.5c-14.39-19.58-42.21-27.21-64.62-17.49.12-29.03-33.28-43.45-54.85-24.03-3.41-6.37-6.23-11.76-12.32-16.03-16.48-11.55-36.91-6.32-47.67,9.92-22.15-8.52-47-2.04-63.31,14.71-10.87-4.61-23.11-5.62-34.65-3.12v-9c0-1.01-2.05-6.42-2.64-7.73-8.09-18.11-31.46-22.43-46.46-10C46.84,19.27,20.09,6.25,0,17.17v170.78h1920V17.17c-20.09-10.92-46.84,2.1-49.66,25.1Z"/>
</svg>