<svg width="49" height="37" viewBox="0 0 49 37" fill="none" xmlns="http://www.w3.org/2000/svg">
<g clip-path="url(#clip0_650_12781)">
<path d="M16.6517 31.7636C16.4013 31.7771 16.1533 31.7059 15.945 31.5609C15.7367 31.4159 15.5796 31.2049 15.4974 30.9598L14.0668 26.6954C13.4507 24.8398 12.3847 23.1767 10.9707 21.8653C9.55681 20.5538 7.84219 19.6376 5.99076 19.2045L1.73446 18.1941C1.49004 18.1359 1.27033 17.9971 1.10854 17.7987C0.946756 17.6003 0.851696 17.3532 0.837731 17.0946C0.823767 16.836 0.891658 16.58 1.03114 16.3654C1.17062 16.1508 1.37411 15.9891 1.61085 15.9049L5.73358 14.4421C7.52759 13.812 9.13359 12.7166 10.398 11.2605C11.6625 9.80435 12.5432 8.03618 12.956 6.12497L13.919 1.7313C13.9745 1.47898 14.108 1.25249 14.2995 1.08604C14.4909 0.919604 14.7298 0.822268 14.9801 0.808754C15.2303 0.79524 15.4783 0.866282 15.6866 1.01114C15.8948 1.15599 16.052 1.36679 16.1343 1.61166L17.5649 5.87608C18.1811 7.73172 19.2471 9.39476 20.661 10.7062C22.075 12.0177 23.7896 12.9338 25.641 13.367L29.8973 14.3774C30.1417 14.4356 30.3614 14.5744 30.5232 14.7728C30.685 14.9711 30.7801 15.2183 30.794 15.4769C30.808 15.7355 30.7401 15.9914 30.6006 16.2061C30.4612 16.4207 30.2577 16.5823 30.0209 16.6665L25.8982 18.1294C24.1042 18.7595 22.4982 19.8549 21.2337 21.311C19.9692 22.7672 19.0885 24.5353 18.6758 26.4465L17.7127 30.8402C17.6574 31.0927 17.5239 31.3194 17.3325 31.486C17.141 31.6526 16.9021 31.75 16.6517 31.7636ZM6.18326 16.8059L6.49549 16.8814C8.72987 17.4043 10.7991 18.51 12.5055 20.0928C14.2119 21.6756 15.4985 23.6826 16.2423 25.922L16.3485 26.2347L16.4205 25.9124C16.9187 23.6059 17.9817 21.472 19.5077 19.7146C21.0338 17.9573 22.9719 16.6352 25.137 15.8747L25.4393 15.7661L25.1271 15.6906C22.8927 15.1677 20.8234 14.062 19.117 12.4792C17.4106 10.8964 16.124 8.88945 15.3803 6.65L15.2784 6.33389L15.2065 6.6562C14.7082 8.96272 13.6453 11.0966 12.1192 12.8539C10.5932 14.6113 8.65505 15.9333 6.48998 16.6938L6.18326 16.8059Z" fill="#27272F" fill-opacity="0.2"/>
<path d="M40.4542 36.0381C40.3121 36.0458 40.1712 36.0054 40.0529 35.923C39.9346 35.8407 39.8454 35.7208 39.7987 35.5817L38.9863 33.16C38.6364 32.1062 38.0311 31.1618 37.2281 30.417C36.4252 29.6722 35.4514 29.152 34.4 28.906L31.983 28.3322C31.8442 28.2992 31.7194 28.2203 31.6275 28.1077C31.5356 27.995 31.4817 27.8547 31.4737 27.7078C31.4658 27.561 31.5044 27.4156 31.5836 27.2937C31.6628 27.1719 31.7783 27.0801 31.9128 27.0323L34.254 26.2015C35.2728 25.8437 36.1848 25.2216 36.9029 24.3947C37.621 23.5678 38.1211 22.5637 38.3555 21.4784L38.9024 18.9833C38.9339 18.84 39.0097 18.7114 39.1185 18.6168C39.2272 18.5223 39.3628 18.467 39.505 18.4594C39.6471 18.4517 39.7879 18.492 39.9062 18.5743C40.0244 18.6566 40.1137 18.7763 40.1604 18.9153L40.9728 21.337C41.3228 22.3908 41.9281 23.3352 42.7311 24.08C43.534 24.8248 44.5077 25.345 45.5591 25.591L47.9762 26.1648C48.115 26.1979 48.2398 26.2767 48.3317 26.3893C48.4235 26.502 48.4775 26.6423 48.4854 26.7892C48.4934 26.936 48.4548 27.0814 48.3756 27.2033C48.2964 27.3251 48.1808 27.4169 48.0464 27.4648L45.7052 28.2955C44.6864 28.6533 43.7744 29.2754 43.0563 30.1023C42.3382 30.9292 41.8381 31.9333 41.6037 33.0187L41.0568 35.5137C41.0254 35.6571 40.9496 35.7858 40.8408 35.8805C40.7321 35.9751 40.5964 36.0304 40.4542 36.0381ZM34.5094 27.5439L34.6867 27.5868C35.9555 27.8837 37.1306 28.5116 38.0997 29.4104C39.0687 30.3093 39.7994 31.449 40.2217 32.7208L40.2821 32.8983L40.3229 32.7153C40.6059 31.4055 41.2095 30.1937 42.0761 29.1957C42.9428 28.1977 44.0434 27.447 45.2729 27.0151L45.4446 26.9534L45.2673 26.9105C43.9984 26.6136 42.8233 25.9857 41.8542 25.0868C40.8852 24.188 40.1546 23.0483 39.7322 21.7765L39.6744 21.597L39.6335 21.78C39.3506 23.0899 38.7469 24.3017 37.8803 25.2996C37.0137 26.2976 35.9131 27.0484 34.6836 27.4803L34.5094 27.5439Z" fill="#27272F" fill-opacity="0.2"/>
</g>
<defs>
<clipPath id="clip0_650_12781">
<rect width="49" height="37" fill="white"/>
</clipPath>
</defs>
</svg>
