<svg width="130" height="196" viewBox="0 0 130 196" fill="none" xmlns="http://www.w3.org/2000/svg">
<path d="M-0.338067 7.44824C-5.82607 11.5642 -14.4501 19.2082 -21.3101 31.3602C-24.8381 37.6322 -30.5221 48.2162 -30.7181 62.7202C-30.7181 68.7962 -30.1301 87.8082 -15.8221 102.116C-12.0981 105.84 -3.86607 114.072 8.67793 115.052C17.4979 115.64 24.3579 112.308 26.9059 110.74C36.7059 105.252 41.8019 98.0002 42.9779 95.0602C45.7219 88.7882 48.2699 79.3802 44.1539 71.7362C41.2139 66.2482 34.9419 62.7202 28.8659 62.5242C19.2619 62.1322 12.9899 69.9722 11.4219 71.9322C2.40593 83.3002 5.34594 98.7842 6.91394 107.212C11.4219 130.536 25.9259 145.628 33.1779 153.272C39.2539 159.544 53.7579 173.852 76.6899 179.732C82.5699 181.3 87.8619 181.888 91.5859 182.28" stroke="#28B6BE" stroke-width="4.05" stroke-miterlimit="10"/>
<path d="M78.4503 171.108C80.6063 173.46 82.7623 175.224 84.5263 176.596C85.7023 177.576 90.7983 181.496 93.1503 182.28C93.3463 182.28 93.7383 182.476 93.7383 182.672C93.7383 182.868 92.1703 182.868 91.1903 183.064C88.4463 183.456 86.2903 184.436 84.7223 185.024C83.7423 185.612 82.1743 186.396 80.8023 187.572" stroke="#28B6BE" stroke-width="4.05" stroke-miterlimit="10"/>
</svg>
