<svg width="163" height="40" viewBox="0 0 163 40" fill="none" xmlns="http://www.w3.org/2000/svg">
<path d="M8.85186 9.78941C10.4269 9.78941 11.7037 8.50073 11.7037 6.91106C11.7037 5.3214 10.4269 4.03271 8.85186 4.03271C7.27682 4.03271 6 5.3214 6 6.91106C6 8.50073 7.27682 9.78941 8.85186 9.78941Z" fill="#28B6BE"/>
<path d="M23.2804 4.92027C22.5111 5.20312 20.1977 6.62843 18.8899 7.69879C18.1261 8.33658 17.8899 9.41249 18.3075 10.322C18.9779 11.7751 20.8077 12.2021 22.055 11.2149C23.7969 9.83953 25.9949 9.01873 28.3797 9.01873C31.8744 9.01873 34.9626 10.7768 36.8198 13.4666C37.2485 14.0545 37.6221 14.6978 37.9298 15.391C42.562 25.884 29.4896 35.4286 21.3407 27.0874C20.5164 26.2445 19.8186 25.2628 19.1977 24.1925L13.7192 12.0302C13.2631 11.0153 12.2026 10.4163 11.1091 10.555C9.45517 10.7657 8.45509 12.5071 9.0925 14.06L10.6091 17.737C15.0215 27.5034 17.9393 35.8223 30.5227 34.935C37.3968 34.4525 43.128 28.3408 43.8973 21.5304C45.1831 10.2222 34.0339 0.982646 23.2804 4.92582V4.92027Z" fill="white"/>
<path d="M27.9908 14.0714C28.1611 14.2544 28.0183 14.9699 28.0073 15.2084C27.8699 17.7484 27.205 21.1758 26.2104 23.4885C25.9192 24.1706 25.1994 25.8344 24.1718 25.668C23.1388 25.4961 24.1773 24.1928 24.4026 23.7269C24.5125 23.494 25.029 22.3904 24.7708 22.2295C24.5125 22.0687 24.2982 22.3737 24.1114 22.4957C23.4575 22.9228 22.1607 23.7158 21.3749 23.7602C21.1331 23.7768 20.8749 23.7768 20.6661 23.6493C20.21 23.3775 20.221 22.7897 20.6056 22.468C21.342 21.8469 23.5069 21.4753 23.5729 20.3384C23.6443 19.2014 21.8255 17.9702 21.6442 16.922C21.5837 16.5727 21.7761 16.1733 22.2156 16.3508C22.4904 16.4617 23.1388 17.2493 23.4575 17.4877C25.5346 19.0406 26.4577 17.7484 27.0512 15.946C27.216 15.4468 27.2929 14.7924 27.4688 14.3432C27.5402 14.1602 27.804 13.8662 27.9963 14.077L27.9908 14.0714Z" fill="#28B6BE"/>
<path d="M24.7489 14.2819C25.172 14.2375 25.6171 14.5093 25.8479 14.8088C26.249 15.319 26.2545 16.3173 25.6776 16.7332C24.7544 17.4043 23.7544 16.5169 23.7049 15.624C23.6719 15.0694 24.1005 14.3485 24.7489 14.2764V14.2819Z" fill="#28B6BE"/>
<path d="M30.8096 14.5371C30.8316 14.5593 30.8261 14.6036 30.8096 14.6591C30.6448 14.8199 30.5184 15.0196 30.4634 15.2192C30.403 15.4355 30.3975 15.674 30.4414 15.9014C30.5129 16.4005 30.8261 16.8498 31.3426 16.9496C31.5239 16.994 31.7327 16.994 31.958 16.9274C32.2218 16.8498 32.4361 16.6612 32.579 16.4227C32.7053 16.2619 32.8043 16.09 32.8317 15.9513C32.8702 15.7683 32.8482 15.5132 32.8482 15.3191C32.8482 15.1749 32.7328 15.0529 32.8482 14.9475C32.9032 14.892 33.3373 14.7478 33.4362 14.7312C33.8593 14.6647 34.2604 14.892 34.2659 15.2969C34.4417 15.2303 34.4143 14.7201 34.3538 14.5981C34.3209 14.5316 34.0021 14.2709 33.9142 14.2432C33.601 14.1544 33.2548 14.2543 32.9911 14.404C32.9032 14.4539 32.7328 14.7201 32.6449 14.7035C32.3097 14.4816 31.991 14.1822 31.5239 14.2709C31.4965 14.2709 31.4745 14.282 31.458 14.2931C31.3591 14.3153 31.2602 14.3541 31.1668 14.3984C31.1668 14.3984 31.1613 14.3984 31.1558 14.3984C30.9854 14.3319 30.8865 13.9215 30.4854 13.7662C30.1557 13.6442 29.9689 13.6664 29.6612 13.8106C29.315 13.9714 29.304 14.3374 29.315 14.648L29.6886 14.2931C30.1447 14.1156 30.4579 14.3319 30.8206 14.5371H30.8096Z" fill="#28B6BE"/>
<path d="M35.7116 22.2461C35.4314 22.0853 33.4642 21.2478 33.4312 21.1036C33.4202 20.9816 34.151 20.5213 34.0796 20.4381C32.4531 20.0166 33.7609 18.9074 34.2444 18.2031C34.4697 17.8759 35.3874 16.6114 34.772 16.3508C34.6731 16.3064 34.5851 16.2953 34.4752 16.323C34.2774 16.3674 33.1455 17.5431 32.7718 17.7816C32.0904 18.2086 31.1178 18.3584 30.4749 17.7372C29.9419 17.2215 29.3155 15.3525 29.299 14.6537C29.1397 14.6371 29.2221 14.0936 28.9474 14.0325C28.5737 13.9438 28.5572 14.1435 28.5517 14.4208C28.5407 15.0807 28.6286 15.8405 28.7056 16.5005C28.9419 18.5414 29.7002 20.5213 29.1781 22.5844L30.0573 22.479C30.398 23.3276 30.7497 24.5033 31.3926 25.2021C31.8981 25.7511 33.063 25.9397 32.8762 24.9803C32.7883 24.5199 32.1344 23.6215 31.9311 23.0503C31.4091 21.575 32.2663 22.3681 32.9092 22.7508C33.5796 23.1501 35.4423 24.2759 36.1292 23.5106C36.5413 23.0447 36.1787 22.5123 35.7061 22.2461H35.7116Z" fill="#28B6BE"/>
<path d="M55.0436 6.42476L53.4231 10.8825L51.8027 6.42476C51.6828 6.09156 51.3684 5.87158 51.0152 5.87158C50.5517 5.87158 50.1758 6.24683 50.1758 6.70943V12.8008C50.1758 13.1211 50.435 13.3799 50.7559 13.3799C51.0767 13.3799 51.336 13.1211 51.336 12.8008V8.22015L52.7555 11.9759C52.8592 12.2541 53.1282 12.4385 53.4264 12.4385C53.7245 12.4385 53.9935 12.2541 54.0972 11.9727L55.52 8.1231V12.8041C55.52 13.1243 55.7793 13.3831 56.1001 13.3831C56.421 13.3831 56.6802 13.1243 56.6802 12.8041V6.71267C56.6802 6.25007 56.3043 5.87482 55.8408 5.87482C55.4876 5.87482 55.1732 6.09479 55.0533 6.42799" fill="white"/>
<path d="M62.8962 13.3799C62.6337 13.3799 62.4004 13.2149 62.3129 12.9658L61.9629 11.9533L61.5513 10.7693L60.5142 7.78343L59.4771 10.7693L59.0655 11.9533L58.7123 12.9658C58.6248 13.2149 58.3914 13.3799 58.1289 13.3799C57.6979 13.3799 57.3997 12.9496 57.552 12.5485L59.9049 6.29212C59.9989 6.0398 60.242 5.87158 60.5142 5.87158C60.7864 5.87158 61.0263 6.0398 61.1235 6.29212L63.4764 12.5485C63.6287 12.9529 63.3305 13.3799 62.8995 13.3799" fill="white"/>
<path d="M65.8424 12.1993L68.905 7.16574C68.986 7.03311 69.0282 6.88107 69.0282 6.72579C69.0282 6.25672 68.6457 5.875 68.1758 5.875H65.0354C64.7081 5.875 64.4423 6.14026 64.4423 6.46699C64.4423 6.79372 64.7081 7.05899 65.0354 7.05899H67.5471L64.4747 12.0925C64.3937 12.2252 64.3516 12.3772 64.3516 12.5357C64.3516 13.0048 64.734 13.3865 65.2039 13.3865H68.5388C68.8661 13.3865 69.1319 13.1213 69.1319 12.7945C69.1319 12.4678 68.8661 12.2025 68.5388 12.2025H65.8391L65.8424 12.1993Z" fill="white"/>
<path d="M75.3611 13.3799C75.0986 13.3799 74.8652 13.2149 74.7777 12.9658L74.4277 11.9533L74.0161 10.7693L72.979 7.78343L71.942 10.7693L71.5304 11.9533L71.1771 12.9658C71.0896 13.2149 70.8563 13.3799 70.5938 13.3799C70.1627 13.3799 69.8646 12.9496 70.0169 12.5485L72.3698 6.29212C72.4637 6.0398 72.7068 5.87158 72.979 5.87158C73.2513 5.87158 73.4911 6.0398 73.5883 6.29212L75.9412 12.5485C76.0935 12.9529 75.7954 13.3799 75.3643 13.3799" fill="white"/>
<path d="M80.2913 6.21125L78.9075 9.18092L77.5236 6.21125C77.4264 6.00421 77.219 5.87158 76.9889 5.87158C76.5514 5.87158 76.2662 6.33094 76.4606 6.72237L78.2917 10.4037V12.7652C78.2917 13.1049 78.5672 13.3799 78.9075 13.3799C79.2478 13.3799 79.5232 13.1049 79.5232 12.7652V10.4037L81.3543 6.72237C81.5488 6.33094 81.2636 5.87158 80.8261 5.87158C80.596 5.87158 80.3886 6.00421 80.2913 6.21125Z" fill="white"/>
<path d="M87.2237 13.3799C86.9612 13.3799 86.7278 13.2149 86.6403 12.9658L86.2871 11.9533L85.8755 10.7693L84.8384 7.78343L83.8013 10.7693L83.3897 11.9533L83.0365 12.9658C82.949 13.2149 82.7156 13.3799 82.4531 13.3799C82.0221 13.3799 81.7239 12.9496 81.8763 12.5485L84.2291 6.29212C84.3231 6.0398 84.5662 5.87158 84.8384 5.87158C85.1106 5.87158 85.3505 6.0398 85.4477 6.29212L87.8006 12.5485C87.9529 12.9529 87.6547 13.3799 87.2237 13.3799Z" fill="white"/>
<path d="M59.682 22.4766C58.6093 21.9428 57.5301 21.6743 56.4412 21.6743C55.6666 21.6743 55.0379 21.8522 54.5485 22.2048C54.0591 22.5574 53.816 23.0103 53.816 23.5635C53.816 24.5566 54.4707 25.2942 55.78 25.7827C57.7343 26.5073 59.1246 27.2675 59.9446 28.0601C60.7645 28.8559 61.1761 29.836 61.1761 31.0006C61.1761 32.4175 60.6316 33.5271 59.5427 34.3294C58.6579 34.9893 57.5625 35.3225 56.2532 35.3225C54.6911 35.3225 53.0674 34.7887 51.3789 33.718L52.3252 32.3722C53.3818 33.0192 54.6133 33.3395 56.0166 33.3395C57.9417 33.3395 58.9042 32.5275 58.9042 30.9068C58.9042 29.6484 58.0908 28.7426 56.4671 28.1895C54.7624 27.6072 53.5309 26.9602 52.766 26.2517C52.0012 25.5433 51.6187 24.686 51.6187 23.6767C51.6187 22.4798 52.0822 21.519 53.0156 20.7944C53.8679 20.1345 54.986 19.8013 56.3763 19.8013C57.9384 19.8013 59.358 20.2412 60.6349 21.1244L59.6885 22.4701L59.682 22.4766Z" fill="white"/>
<path d="M74.5858 33.6016C73.2603 34.75 71.8181 35.3258 70.256 35.3258C67.9841 35.3258 66.2243 34.4524 64.9798 32.7055C64.0011 31.3209 63.5117 29.6582 63.5117 27.7237C63.5117 25.5207 64.1178 23.638 65.3331 22.0787C66.5322 20.568 68.0554 19.811 69.8995 19.811C71.5394 19.811 73.0367 20.3545 74.3946 21.4414L73.5196 22.7645C72.4468 22.0561 71.3838 21.7002 70.3273 21.7002C68.8916 21.7002 67.7638 22.2922 66.9438 23.473C66.2017 24.5437 65.8322 25.9606 65.8322 27.7237C65.8322 29.4867 66.2956 30.8713 67.229 31.9259C68.0814 32.9028 69.1833 33.3913 70.5412 33.3913C71.5653 33.3913 72.6218 33.0225 73.7108 32.2817L74.5858 33.6048V33.6016Z" fill="white"/>
<path d="M80.0724 35.0409H77.8945V20.0923H80.0724V26.3745H87.2866V20.0923H89.4872V35.0409H87.2866V28.1926H80.0724V35.0409Z" fill="white"/>
<path d="M99.3577 35.3224C97.1345 35.3224 95.4233 34.4489 94.2242 32.7021C93.2779 31.3175 92.8047 29.6321 92.8047 27.6491C92.8047 25.32 93.4269 23.4146 94.6747 21.933C95.8576 20.5161 97.4197 19.8076 99.3577 19.8076C101.565 19.8076 103.276 20.7134 104.491 22.525C105.438 23.9419 105.911 25.6499 105.911 27.6491C105.911 29.9621 105.289 31.8383 104.041 33.2682C102.858 34.6366 101.296 35.3224 99.3545 35.3224H99.3577ZM99.3577 33.4332C100.826 33.4332 101.928 32.8282 102.67 31.6151C103.286 30.6091 103.594 29.286 103.594 27.6491C103.594 25.7437 103.192 24.2557 102.388 23.1849C101.646 22.1918 100.638 21.6968 99.361 21.6968C97.9091 21.6968 96.8072 22.3341 96.0488 23.6087C95.433 24.6471 95.1252 25.9928 95.1252 27.6459C95.1252 29.5351 95.527 30.9908 96.3308 32.013C97.0729 32.9576 98.0808 33.4299 99.3577 33.4299V33.4332Z" fill="white"/>
<path d="M114.83 35.3224C112.607 35.3224 110.896 34.4489 109.697 32.7021C108.751 31.3175 108.277 29.6321 108.277 27.6491C108.277 25.32 108.9 23.4146 110.147 21.933C111.33 20.5161 112.892 19.8076 114.83 19.8076C117.037 19.8076 118.749 20.7134 119.964 22.525C120.91 23.9419 121.383 25.6499 121.383 27.6491C121.383 29.9621 120.761 31.8383 119.513 33.2682C118.331 34.6366 116.768 35.3224 114.83 35.3224ZM114.83 33.4332C116.299 33.4332 117.4 32.8282 118.143 31.6151C118.758 30.6091 119.066 29.286 119.066 27.6491C119.066 25.7437 118.664 24.2557 117.861 23.1849C117.118 22.1918 116.111 21.6968 114.834 21.6968C113.382 21.6968 112.28 22.3341 111.521 23.6087C110.906 24.6471 110.598 25.9928 110.598 27.6459C110.598 29.5351 111 30.9908 111.803 32.013C112.546 32.9576 113.553 33.4299 114.83 33.4299V33.4332Z" fill="white"/>
<path d="M124.695 35.0409V20.0923H126.896V33.2229H132.691V35.0409H124.695Z" fill="white"/>
<path d="M138.065 23.7284V35.0409H135.887V20.0923H137.802C140.955 24.6568 143.487 28.5161 145.395 31.6637V20.0923H147.596V35.0409H145.632C144.025 32.8218 141.5 29.0498 138.061 23.7284H138.065Z" fill="white"/>
<path d="M155.496 20.0923H157.577L162.996 35.0409H160.746L159.612 31.6637H153.484L152.323 35.0409H150.074L155.493 20.0923H155.496ZM156.54 22.7385L154.103 29.8456H158.977L156.54 22.7385Z" fill="white"/>
</svg>
