<svg width="121" height="30" viewBox="0 0 121 30" fill="none" xmlns="http://www.w3.org/2000/svg">
<path d="M6.57125 7.34291C7.74045 7.34291 8.68828 6.3764 8.68828 5.18415C8.68828 3.9919 7.74045 3.02539 6.57125 3.02539C5.40205 3.02539 4.45422 3.9919 4.45422 5.18415C4.45422 6.3764 5.40205 7.34291 6.57125 7.34291Z" fill="#28B6BE"/>
<path d="M17.2827 3.6902C16.7117 3.90234 14.9944 4.97132 14.0236 5.7741C13.4566 6.25243 13.2812 7.05937 13.5912 7.74152C14.0888 8.8313 15.4472 9.15158 16.3731 8.41119C17.6662 7.37965 19.2978 6.76405 21.0681 6.76405C23.6624 6.76405 25.9548 8.0826 27.3335 10.0999C27.6517 10.5408 27.929 11.0233 28.1575 11.5433C31.5961 19.413 21.8921 26.5714 15.8428 20.3156C15.231 19.6833 14.7129 18.9471 14.252 18.1443L10.1852 9.02264C9.84662 8.26145 9.05937 7.81223 8.24764 7.91622C7.01984 8.07428 6.27746 9.38035 6.75063 10.545L7.87644 13.3027C11.1519 20.6275 13.3179 26.8667 22.6589 26.2012C27.7618 25.8393 32.0163 21.2556 32.5873 16.1478C33.5418 7.66665 25.2654 0.736985 17.2827 3.69436V3.6902Z" fill="#0A6375"/>
<path d="M20.7772 10.5536C20.9036 10.6908 20.7976 11.2274 20.7894 11.4063C20.6874 13.3113 20.1939 15.8818 19.4556 17.6163C19.2394 18.128 18.705 19.3758 17.9422 19.251C17.1754 19.1221 17.9463 18.1446 18.1136 17.7952C18.1951 17.6205 18.5786 16.7928 18.3869 16.6721C18.1951 16.5515 18.0361 16.7803 17.8974 16.8718C17.412 17.1921 16.4493 17.7869 15.866 17.8202C15.6865 17.8326 15.4948 17.8326 15.3398 17.737C15.0012 17.5332 15.0094 17.0923 15.2949 16.851C15.8415 16.3851 17.4487 16.1065 17.4976 15.2538C17.5506 14.4011 16.2005 13.4777 16.0659 12.6915C16.021 12.4295 16.1638 12.13 16.4901 12.2631C16.694 12.3463 17.1754 12.9369 17.412 13.1158C18.9538 14.2805 19.6391 13.3113 20.0797 11.9595C20.202 11.5851 20.2591 11.0943 20.3897 10.7574C20.4427 10.6201 20.6385 10.3997 20.7813 10.5577L20.7772 10.5536Z" fill="#28B6BE"/>
<path d="M18.3712 10.7122C18.6853 10.6789 19.0157 10.8827 19.187 11.1073C19.4848 11.49 19.4888 12.2387 19.0605 12.5507C18.3753 13.0539 17.6329 12.3884 17.5962 11.7188C17.5717 11.3028 17.8899 10.7621 18.3712 10.708V10.7122Z" fill="#28B6BE"/>
<path d="M22.8703 10.9032C22.8866 10.9198 22.8825 10.9531 22.8703 10.9947C22.7479 11.1153 22.6541 11.2651 22.6133 11.4148C22.5684 11.577 22.5643 11.7559 22.597 11.9264C22.65 12.3008 22.8825 12.6377 23.2659 12.7126C23.4005 12.7458 23.5555 12.7458 23.7228 12.6959C23.9186 12.6377 24.0777 12.4963 24.1837 12.3174C24.2775 12.1968 24.351 12.0678 24.3713 11.9639C24.3999 11.8266 24.3836 11.6353 24.3836 11.4897C24.3836 11.3815 24.2979 11.29 24.3836 11.211C24.4244 11.1694 24.7466 11.0612 24.82 11.0488C25.1341 10.9989 25.4319 11.1694 25.436 11.473C25.5665 11.4231 25.5461 11.0405 25.5012 10.9489C25.4768 10.899 25.2402 10.7035 25.1749 10.6827C24.9424 10.6162 24.6854 10.6911 24.4896 10.8034C24.4244 10.8408 24.2979 11.0405 24.2327 11.028C23.9838 10.8616 23.7473 10.637 23.4005 10.7035C23.3801 10.7035 23.3638 10.7119 23.3516 10.7202C23.2782 10.7368 23.2047 10.7659 23.1354 10.7992C23.1354 10.7992 23.1313 10.7992 23.1272 10.7992C23.0008 10.7493 22.9274 10.4415 22.6296 10.325C22.3848 10.2335 22.2462 10.2502 22.0177 10.3583C21.7608 10.4789 21.7526 10.7534 21.7608 10.9864L22.0381 10.7202C22.3767 10.5871 22.6092 10.7493 22.8784 10.9032H22.8703Z" fill="#28B6BE"/>
<path d="M26.5082 16.6848C26.3002 16.5642 24.8399 15.9361 24.8154 15.828C24.8072 15.7365 25.3497 15.3913 25.2967 15.3289C24.0893 15.0127 25.0601 14.1808 25.4191 13.6526C25.5863 13.4072 26.2675 12.4588 25.8107 12.2633C25.7373 12.2301 25.672 12.2217 25.5904 12.2425C25.4436 12.2758 24.6033 13.1576 24.3259 13.3365C23.8201 13.6568 23.0981 13.7691 22.6209 13.3032C22.2252 12.9164 21.7602 11.5146 21.748 10.9905C21.6297 10.9781 21.6908 10.5704 21.4869 10.5247C21.2095 10.4581 21.1973 10.6079 21.1932 10.8158C21.185 11.3108 21.2503 11.8807 21.3074 12.3756C21.4828 13.9063 22.0457 15.3913 21.6582 16.9386L22.3109 16.8595C22.5638 17.4959 22.8248 18.3777 23.3021 18.9018C23.6773 19.3136 24.5421 19.455 24.4034 18.7355C24.3381 18.3902 23.8527 17.7164 23.7018 17.288C23.3143 16.1815 23.9506 16.7764 24.4279 17.0634C24.9255 17.3628 26.3083 18.2072 26.8182 17.6332C27.1241 17.2838 26.8549 16.8845 26.5041 16.6848H26.5082Z" fill="#28B6BE"/>
<path d="M40.8602 4.81844L39.6573 8.16175L38.4544 4.81844C38.3654 4.56854 38.132 4.40356 37.8698 4.40356C37.5258 4.40356 37.2467 4.685 37.2467 5.03194V9.60048C37.2467 9.84068 37.4392 10.0348 37.6773 10.0348C37.9155 10.0348 38.108 9.84068 38.108 9.60048V6.16498L39.1617 8.9818C39.2387 9.19046 39.4384 9.32875 39.6597 9.32875C39.8811 9.32875 40.0807 9.19046 40.1577 8.97938L41.2139 6.09219V9.60291C41.2139 9.8431 41.4063 10.0372 41.6445 10.0372C41.8827 10.0372 42.0752 9.8431 42.0752 9.60291V5.03437C42.0752 4.68742 41.7961 4.40598 41.4521 4.40598C41.1898 4.40598 40.9565 4.57097 40.8674 4.82086" fill="#0A6375"/>
<path d="M46.6895 10.0348C46.4946 10.0348 46.3214 9.91104 46.2564 9.72422L45.9966 8.96482L45.6911 8.07683L44.9212 5.83744L44.1514 8.07683L43.8458 8.96482L43.5836 9.72422C43.5186 9.91104 43.3454 10.0348 43.1505 10.0348C42.8306 10.0348 42.6092 9.71209 42.7223 9.41124L44.4689 4.71896C44.5387 4.52972 44.7191 4.40356 44.9212 4.40356C45.1233 4.40356 45.3013 4.52972 45.3735 4.71896L47.1201 9.41124C47.2332 9.71452 47.0119 10.0348 46.6919 10.0348" fill="#0A6375"/>
<path d="M48.8764 9.14921L51.1499 5.37404C51.21 5.27456 51.2413 5.16053 51.2413 5.04407C51.2413 4.69228 50.9574 4.40598 50.6086 4.40598H48.2773C48.0344 4.40598 47.8371 4.60493 47.8371 4.84998C47.8371 5.09502 48.0344 5.29397 48.2773 5.29397H50.1418L47.8611 9.06915C47.801 9.16862 47.7697 9.28265 47.7697 9.40154C47.7697 9.75333 48.0536 10.0396 48.4024 10.0396H50.878C51.121 10.0396 51.3183 9.84068 51.3183 9.59563C51.3183 9.35058 51.121 9.15164 50.878 9.15164H48.874L48.8764 9.14921Z" fill="#0A6375"/>
<path d="M55.9422 10.0348C55.7474 10.0348 55.5741 9.91104 55.5092 9.72422L55.2494 8.96482L54.9438 8.07683L54.174 5.83744L53.4041 8.07683L53.0986 8.96482L52.8363 9.72422C52.7714 9.91104 52.5982 10.0348 52.4033 10.0348C52.0833 10.0348 51.862 9.71209 51.9751 9.41124L53.7217 4.71896C53.7914 4.52972 53.9719 4.40356 54.174 4.40356C54.3761 4.40356 54.5541 4.52972 54.6263 4.71896L56.3729 9.41124C56.4859 9.71452 56.2646 10.0348 55.9446 10.0348" fill="#0A6375"/>
<path d="M59.6014 4.65831L58.5742 6.88556L57.5469 4.65831C57.4747 4.50303 57.3207 4.40356 57.1499 4.40356C56.8251 4.40356 56.6134 4.74808 56.7578 5.04165L58.117 7.80267V9.5738C58.117 9.82855 58.3215 10.0348 58.5742 10.0348C58.8268 10.0348 59.0313 9.82855 59.0313 9.5738V7.80267L60.3905 5.04165C60.5349 4.74808 60.3232 4.40356 59.9984 4.40356C59.8276 4.40356 59.6736 4.50303 59.6014 4.65831Z" fill="#0A6375"/>
<path d="M64.7474 10.0348C64.5526 10.0348 64.3793 9.91104 64.3144 9.72422L64.0522 8.96482L63.7466 8.07683L62.9768 5.83744L62.2069 8.07683L61.9014 8.96482L61.6391 9.72422C61.5742 9.91104 61.401 10.0348 61.2061 10.0348C60.8861 10.0348 60.6648 9.71209 60.7779 9.41124L62.5245 4.71896C62.5942 4.52972 62.7747 4.40356 62.9768 4.40356C63.1788 4.40356 63.3569 4.52972 63.4291 4.71896L65.1757 9.41124C65.2887 9.71452 65.0674 10.0348 64.7474 10.0348Z" fill="#0A6375"/>
<path d="M44.3053 16.8573C43.509 16.4569 42.7079 16.2556 41.8995 16.2556C41.3245 16.2556 40.8578 16.389 40.4945 16.6535C40.1313 16.9179 39.9508 17.2576 39.9508 17.6725C39.9508 18.4173 40.4368 18.9705 41.4087 19.3368C42.8594 19.8803 43.8915 20.4505 44.5002 21.0449C45.1089 21.6417 45.4144 22.3769 45.4144 23.2503C45.4144 24.313 45.0102 25.1452 44.2019 25.7469C43.5451 26.2418 42.7319 26.4917 41.76 26.4917C40.6004 26.4917 39.3951 26.0914 38.1417 25.2883L38.8442 24.279C39.6285 24.7642 40.5427 25.0044 41.5844 25.0044C43.0134 25.0044 43.7279 24.3955 43.7279 23.1799C43.7279 22.2361 43.1241 21.5568 41.9188 21.1419C40.6533 20.7052 39.7391 20.22 39.1714 19.6886C38.6036 19.1573 38.3197 18.5144 38.3197 17.7574C38.3197 16.8597 38.6637 16.1391 39.3566 15.5956C39.9893 15.1007 40.8193 14.8508 41.8514 14.8508C43.011 14.8508 44.0648 15.1807 45.0126 15.8431L44.3101 16.8524L44.3053 16.8573Z" fill="#0A6375"/>
<path d="M55.3696 25.201C54.3857 26.0623 53.3151 26.4941 52.1555 26.4941C50.469 26.4941 49.1626 25.8391 48.2388 24.5289C47.5123 23.4905 47.149 22.2434 47.149 20.7926C47.149 19.1403 47.5989 17.7283 48.5011 16.5588C49.3912 15.4258 50.5219 14.8581 51.8908 14.8581C53.1082 14.8581 54.2197 15.2657 55.2277 16.0809L54.5781 17.0732C53.7818 16.5418 52.9927 16.275 52.2084 16.275C51.1426 16.275 50.3054 16.719 49.6967 17.6045C49.1458 18.4076 48.8715 19.4703 48.8715 20.7926C48.8715 22.1148 49.2156 23.1532 49.9084 23.9442C50.5412 24.6769 51.3591 25.0433 52.3672 25.0433C53.1274 25.0433 53.9117 24.7667 54.7201 24.2111L55.3696 25.2034V25.201Z" fill="#0A6375"/>
<path d="M59.4427 26.2806H57.826V15.0691H59.4427V19.7808H64.798V15.0691H66.4316V26.2806H64.798V21.1444H59.4427V26.2806Z" fill="#0A6375"/>
<path d="M73.7572 26.4917C72.1068 26.4917 70.8365 25.8366 69.9464 24.5265C69.2439 23.4881 68.8926 22.224 68.8926 20.7368C68.8926 18.9899 69.3546 17.5609 70.2808 16.4497C71.1589 15.387 72.3185 14.8556 73.7572 14.8556C75.3955 14.8556 76.6658 15.535 77.568 16.8936C78.2705 17.9563 78.6217 19.2374 78.6217 20.7368C78.6217 22.4715 78.1598 23.8787 77.2336 24.9511C76.3555 25.9774 75.1959 26.4917 73.7548 26.4917H73.7572ZM73.7572 25.0748C74.847 25.0748 75.665 24.6211 76.2159 23.7113C76.673 22.9567 76.9016 21.9644 76.9016 20.7368C76.9016 19.3077 76.6032 18.1917 76.0066 17.3886C75.4557 16.6437 74.7075 16.2725 73.7596 16.2725C72.6818 16.2725 71.8638 16.7505 71.3009 17.7064C70.8437 18.4852 70.6152 19.4945 70.6152 20.7343C70.6152 22.1512 70.9135 23.243 71.5102 24.0097C72.0611 24.7182 72.8093 25.0724 73.7572 25.0724V25.0748Z" fill="#0A6375"/>
<path d="M85.2425 26.4917C83.5921 26.4917 82.3219 25.8366 81.4317 24.5265C80.7292 23.4881 80.378 22.224 80.378 20.7368C80.378 18.9899 80.8399 17.5609 81.7661 16.4497C82.6443 15.387 83.8039 14.8556 85.2425 14.8556C86.8809 14.8556 88.1511 15.535 89.0533 16.8936C89.7558 17.9563 90.1071 19.2374 90.1071 20.7368C90.1071 22.4715 89.6452 23.8787 88.7189 24.9511C87.8408 25.9774 86.6812 26.4917 85.2425 26.4917ZM85.2425 25.0748C86.3324 25.0748 87.1503 24.6211 87.7013 23.7113C88.1584 22.9567 88.3869 21.9644 88.3869 20.7368C88.3869 19.3077 88.0886 18.1917 87.492 17.3886C86.941 16.6437 86.1928 16.2725 85.2449 16.2725C84.1671 16.2725 83.3492 16.7505 82.7862 17.7064C82.3291 18.4852 82.1005 19.4945 82.1005 20.7343C82.1005 22.1512 82.3989 23.243 82.9955 24.0097C83.5464 24.7182 84.2946 25.0724 85.2425 25.0724V25.0748Z" fill="#0A6375"/>
<path d="M92.5658 26.2806V15.0691H94.1993V24.9171H98.5009V26.2806H92.5658Z" fill="#0A6375"/>
<path d="M102.49 17.7962V26.2806H100.873V15.0691H102.295C104.636 18.4925 106.515 21.387 107.932 23.7477V15.0691H109.565V26.2806H108.107C106.914 24.6163 105.04 21.7873 102.487 17.7962H102.49Z" fill="#0A6375"/>
<path d="M115.431 15.0691H116.975L120.998 26.2806H119.328L118.486 23.7477H113.937L113.075 26.2806H111.406L115.428 15.0691H115.431ZM116.205 17.0538L114.396 22.3841H118.014L116.205 17.0538Z" fill="#0A6375"/>
</svg>
