<svg width="21" height="23" viewBox="0 0 21 23" fill="none" xmlns="http://www.w3.org/2000/svg">
<path d="M18.3001 2.32087C16.0501 1.84087 13.6301 2.59087 11.4301 3.40087C10.4901 2.34087 9.53008 1.29088 8.54008 0.280875C8.01008 -0.259125 7.24008 0.0408803 6.98008 0.66088C6.35008 2.13088 6.33006 3.78088 6.24006 5.36088C6.24006 5.42088 6.24006 5.48087 6.24006 5.54087C4.78006 6.23087 3.36008 7.00087 1.98008 7.85087C1.08008 8.40087 -0.0099317 9.11087 6.83028e-05 10.2909C0.0100683 11.5409 1.32007 12.4509 2.25007 13.0809C3.42007 13.8609 4.73006 14.3909 6.09006 14.7709C6.14006 16.8909 6.25006 19.0109 6.43006 21.1309C6.51006 22.1309 7.85006 22.3309 8.21006 21.6409C8.56006 21.7309 8.96008 21.6409 9.23008 21.2609C10.4301 19.4709 11.8001 17.7409 13.1201 15.9809C15.1701 16.2309 17.2301 16.4309 19.2901 16.6009C19.9901 16.6609 20.4901 15.8009 20.1301 15.2109C19.1101 13.5309 18.0201 11.8909 16.8901 10.2809C18.0301 8.12088 18.8301 5.82087 18.9801 3.23087C19.0001 2.85087 18.7001 2.39087 18.3101 2.31087L18.3001 2.32087ZM8.04008 6.76087C8.28008 6.65087 8.52008 6.53087 8.76008 6.43087C9.46008 6.13087 10.1601 5.86087 10.8701 5.60087C12.2101 7.17087 13.5001 8.79087 14.7201 10.4609C14.0101 11.6909 13.1901 12.8709 12.3301 14.0209C11.5201 13.9209 10.7201 13.8009 9.92008 13.6809C9.26008 13.5809 8.59006 13.4609 7.93006 13.3209C7.93006 12.5409 7.92006 11.7509 7.93006 10.9709C7.94006 9.57088 7.99007 8.16087 8.06007 6.76087H8.04008ZM8.33006 2.76087C8.75006 3.21087 9.16008 3.66088 9.57008 4.11088C9.09008 4.30088 8.61008 4.48087 8.14008 4.68087C8.17008 4.03087 8.22006 3.39088 8.33006 2.75088V2.76087ZM2.65006 11.0709C2.48006 10.9309 1.85007 10.4909 1.88007 10.2609C1.90007 10.1009 2.34008 9.83087 2.45008 9.76087C3.11008 9.30087 3.84006 8.90087 4.55006 8.51087C5.07006 8.22087 5.61008 7.94087 6.14008 7.67087C6.10008 8.63087 6.07007 9.60087 6.06007 10.5609C6.06007 11.3209 6.06007 12.0809 6.06007 12.8309C4.83007 12.4309 3.66006 11.8809 2.65006 11.0609V11.0709ZM8.17008 19.5109C8.07008 18.0809 8.00006 16.6509 7.96006 15.2209C8.33006 15.2909 8.69007 15.3609 9.06007 15.4209C9.72007 15.5309 10.3801 15.6209 11.0401 15.7209C10.0601 16.9909 9.07008 18.2509 8.17008 19.5209V19.5109ZM15.8601 12.0609C16.4301 12.8909 16.9901 13.7309 17.5301 14.5809C16.4801 14.4809 15.4301 14.3809 14.3801 14.2609C14.9001 13.5409 15.3901 12.8109 15.8601 12.0609ZM12.7701 4.95087C12.9401 4.90087 13.1001 4.83088 13.2701 4.78088C14.4501 4.42088 15.7501 3.97088 17.0201 4.02088C16.8201 5.65088 16.3401 7.17087 15.6701 8.62087C14.7401 7.37087 13.7701 6.15087 12.7701 4.95087Z" fill="#EB1551"/>
</svg>
