<svg width="48" height="45" viewBox="0 0 48 45" fill="none" xmlns="http://www.w3.org/2000/svg">
<path d="M28.1163 3.76296L30.5763 11.006C31.1963 12.8263 32.9563 14.0526 34.9563 14.0526H42.9063C47.3663 14.0526 49.2163 19.5136 45.6163 22.0333L39.1863 26.5075C37.5763 27.6284 36.8963 29.6212 37.5163 31.4415L39.9763 38.6845C41.3563 42.7467 36.4963 46.1287 32.8963 43.6186L26.4663 39.1444C24.8563 38.0235 22.6663 38.0235 21.0563 39.1444L14.6263 43.6186C11.0163 46.1287 6.1663 42.7467 7.5463 38.6845L10.0063 31.4415C10.6263 29.6212 9.9463 27.638 8.3363 26.5075L1.90628 22.0333C-1.70372 19.5232 0.156303 14.0526 4.6163 14.0526H12.5663C14.5563 14.0526 16.3263 12.8263 16.9463 11.006L19.4063 3.76296C20.7863 -0.299243 26.7863 -0.299243 28.1563 3.76296H28.1163Z" fill="#94DAD9"/>
<path opacity="0.3" d="M22.0065 4.25581C23.5465 4.79233 24.3765 3.20193 27.1065 10.2821C29.7065 17.0173 29.5965 3.37439 25.6965 2.07141C21.7965 0.768443 19.2165 3.28816 22.0065 4.25581Z" fill="#FEFEFE"/>
<path opacity="0.3" d="M43.4364 16.4136C43.2064 17.9657 44.9964 18.416 38.3364 22.4303C31.9864 26.253 45.9064 23.3404 46.4264 19.4219C46.9464 15.4939 43.8564 13.5969 43.4364 16.4136Z" fill="#FEFEFE"/>
<path opacity="0.3" d="M37.7865 39.6755C36.2665 40.2408 37.3365 41.5246 30.4265 37.9223C23.8365 34.4828 32.6765 45.1269 36.5065 43.6419C40.3365 42.1665 40.5565 38.6408 37.7865 39.6755Z" fill="#FEFEFE"/>
<path opacity="0.3" d="M3.34643 19.719C4.41643 18.531 3.15646 17.228 11.0265 17.2855C18.5265 17.343 5.16645 12.6102 2.51645 15.6472C-0.133554 18.6843 1.40643 21.8842 3.34643 19.719Z" fill="#FEFEFE"/>
<path opacity="0.3" d="M12.5364 41.812C11.9964 40.3366 10.1865 40.7294 14.1765 34.2145C17.9665 28.0159 7.01645 36.7439 8.44645 40.4612C9.86645 44.1785 13.5365 44.4946 12.5465 41.812H12.5364Z" fill="#FEFEFE"/>
<path opacity="0.2" d="M17.2166 15.2926C19.3266 13.434 17.8967 8.52869 17.8967 8.52869L17.7867 8.61491L16.9167 11.1921C16.2967 13.0124 14.5367 14.2388 12.5367 14.2388H9.96664L9.93665 14.2579C9.93665 14.2579 15.1167 17.1513 17.2267 15.2926H17.2166Z" fill="#3F8C88"/>
<path opacity="0.2" d="M30.2665 15.2926C28.1565 13.434 29.5865 8.52869 29.5865 8.52869L29.6964 8.61491L30.5664 11.1921C31.1864 13.0124 32.9464 14.2388 34.9464 14.2388H37.5165L37.5464 14.2579C37.5464 14.2579 32.3664 17.1513 30.2564 15.2926H30.2665Z" fill="#3F8C88"/>
<path opacity="0.2" d="M12.6564 28.6482C11.3264 26.4542 6.43642 25.1129 5.82642 24.9596L8.30643 26.6841C9.91643 27.8051 10.5964 29.7978 9.97641 31.6182L8.19641 36.8684L8.2164 36.9546C8.2164 36.9546 14.0764 31.005 12.6564 28.6673V28.6482Z" fill="#3F8C88"/>
<path opacity="0.2" d="M34.8065 28.6482C36.1365 26.4542 41.0265 25.1129 41.6365 24.9596L39.1565 26.6841C37.5465 27.8051 36.8665 29.7978 37.4865 31.6182L39.2665 36.8684L39.2465 36.9546C39.2465 36.9546 33.3865 31.005 34.8065 28.6673V28.6482Z" fill="#3F8C88"/>
<path opacity="0.2" d="M24.2162 36.1786C20.9162 36.1786 15.9562 42.7797 15.9562 42.7797H16.0562L21.0362 39.3115C22.6462 38.1905 24.8362 38.1905 26.4462 39.3115L30.3462 42.0228H30.4762C30.4762 42.0228 27.5162 36.1786 24.2162 36.1786Z" fill="#3F8C88"/>
</svg>
