<svg width="38" height="38" viewBox="0 0 38 38" fill="none" xmlns="http://www.w3.org/2000/svg">
<path d="M32.6562 29.0938H23.1562C22.8283 29.0938 22.5625 29.3596 22.5625 29.6875V32.0625C22.5625 32.3904 22.8283 32.6562 23.1562 32.6562H32.6562C32.9842 32.6562 33.25 32.3904 33.25 32.0625V29.6875C33.25 29.3596 32.9842 29.0938 32.6562 29.0938Z" fill="#FCBE5B"/>
<path d="M26.7194 26.125C26.6247 26.1251 26.5314 26.1026 26.4473 26.0593C26.3631 26.0161 26.2905 25.9533 26.2355 25.8763L20.298 17.5638C20.2527 17.5003 20.2203 17.4285 20.2028 17.3526C20.1852 17.2766 20.1828 17.1979 20.1956 17.121C20.2085 17.0441 20.2363 16.9704 20.2776 16.9043C20.3189 16.8381 20.3729 16.7808 20.4363 16.7355C20.4998 16.6902 20.5716 16.6578 20.6475 16.6403C20.7235 16.6227 20.8022 16.6203 20.8791 16.6331C20.956 16.646 21.0297 16.6738 21.0958 16.7151C21.1619 16.7564 21.2193 16.8104 21.2646 16.8738L27.2021 25.1863C27.2655 25.2751 27.3031 25.3795 27.311 25.4883C27.3189 25.597 27.2967 25.7059 27.2469 25.8028C27.197 25.8998 27.1214 25.9812 27.0284 26.038C26.9353 26.0948 26.8284 26.1249 26.7194 26.125Z" fill="#C8F3F6"/>
<path d="M21.9688 32.6562H16.625C16.4675 32.6562 16.3165 32.5937 16.2052 32.4823C16.0938 32.371 16.0312 32.22 16.0312 32.0625C16.0312 31.905 16.0938 31.754 16.2052 31.6427C16.3165 31.5313 16.4675 31.4688 16.625 31.4688H21.9688C22.1262 31.4688 22.2772 31.5313 22.3886 31.6427C22.4999 31.754 22.5625 31.905 22.5625 32.0625C22.5625 32.22 22.4999 32.371 22.3886 32.4823C22.2772 32.5937 22.1262 32.6562 21.9688 32.6562Z" fill="#FCBE5B"/>
<path d="M16.6268 30.2693C16.324 30.2693 16.0746 30.486 16.039 30.7781C16.0344 30.8048 16.0319 30.8318 16.0312 30.8589C15.8436 31.2834 13.6628 32.0624 10.0938 32.0624C6.50216 32.0624 4.31716 31.2727 4.15625 30.8749C4.15625 30.7174 4.09369 30.5664 3.98234 30.4551C3.87099 30.3437 3.71997 30.2812 3.5625 30.2812C3.40503 30.2812 3.25401 30.3437 3.14266 30.4551C3.03131 30.5664 2.96875 30.7174 2.96875 30.8749V35.6249C2.96875 37.4994 7.44741 37.9999 10.0938 37.9999C12.7401 37.9999 17.2188 37.4994 17.2188 35.6249V30.8749C17.2188 30.5466 16.9545 30.2693 16.6268 30.2693Z" fill="#2FD2DB"/>
<path d="M16.6268 25.5193C16.324 25.5193 16.0746 25.736 16.039 26.0281C16.0344 26.0548 16.0319 26.0818 16.0312 26.1089C15.8436 26.5334 13.6628 27.3124 10.0938 27.3124C6.50216 27.3124 4.31716 26.5227 4.15625 26.1249C4.15625 25.9674 4.09369 25.8164 3.98234 25.7051C3.87099 25.5937 3.71997 25.5312 3.5625 25.5312C3.40503 25.5312 3.25401 25.5937 3.14266 25.7051C3.03131 25.8164 2.96875 25.9674 2.96875 26.1249V30.8749C2.96875 32.7494 7.44741 33.2499 10.0938 33.2499C12.7401 33.2499 17.2188 32.7494 17.2188 30.8749V26.1249C17.2188 25.7966 16.9545 25.5193 16.6268 25.5193Z" fill="#41DFE8"/>
<path d="M29.0902 9.15147C29.0926 9.06953 29.0938 8.98819 29.0938 8.90625C29.0938 3.99534 25.0984 0 20.1875 0C17.5156 0 15.048 1.16138 13.3487 3.20269C12.873 3.0468 12.3755 2.96783 11.875 2.96875C9.25597 2.96875 7.125 5.09972 7.125 7.71875C7.125 7.93131 7.13866 8.14031 7.16656 8.34516C5.91723 8.9116 4.85719 9.82545 4.11288 10.9777C3.36857 12.13 2.9714 13.472 2.96875 14.8438C2.96875 18.7726 6.16491 21.9688 10.0938 21.9688H27.3125C30.9136 21.9688 33.8438 19.0386 33.8438 15.4375C33.8438 12.5032 31.8737 9.937 29.0902 9.15147Z" fill="#94DAD9"/>
<path d="M10.0938 28.5C14.0288 28.5 17.2188 27.4367 17.2188 26.125C17.2188 24.8133 14.0288 23.75 10.0938 23.75C6.15872 23.75 2.96875 24.8133 2.96875 26.125C2.96875 27.4367 6.15872 28.5 10.0938 28.5Z" fill="#2FD2DB"/>
<path d="M9.5 31.4688C9.82792 31.4688 10.0938 31.2029 10.0938 30.875C10.0938 30.5471 9.82792 30.2812 9.5 30.2812C9.17208 30.2812 8.90625 30.5471 8.90625 30.875C8.90625 31.2029 9.17208 31.4688 9.5 31.4688Z" fill="#4FA0F7"/>
<path d="M7.125 31.4688C7.45292 31.4688 7.71875 31.2029 7.71875 30.875C7.71875 30.5471 7.45292 30.2812 7.125 30.2812C6.79708 30.2812 6.53125 30.5471 6.53125 30.875C6.53125 31.2029 6.79708 31.4688 7.125 31.4688Z" fill="#4FA0F7"/>
<path d="M9.5 36.2188C9.82792 36.2188 10.0938 35.9529 10.0938 35.625C10.0938 35.2971 9.82792 35.0312 9.5 35.0312C9.17208 35.0312 8.90625 35.2971 8.90625 35.625C8.90625 35.9529 9.17208 36.2188 9.5 36.2188Z" fill="#2D87E8"/>
<path d="M7.125 36.2188C7.45292 36.2188 7.71875 35.9529 7.71875 35.625C7.71875 35.2971 7.45292 35.0312 7.125 35.0312C6.79708 35.0312 6.53125 35.2971 6.53125 35.625C6.53125 35.9529 6.79708 36.2188 7.125 36.2188Z" fill="#2D87E8"/>
<path d="M33.8438 24.3438H21.9688C21.3129 24.3438 20.7812 24.8754 20.7812 25.5312V29.0938C20.7812 29.7496 21.3129 30.2812 21.9688 30.2812H33.8438C34.4996 30.2812 35.0312 29.7496 35.0312 29.0938V25.5312C35.0312 24.8754 34.4996 24.3438 33.8438 24.3438Z" fill="#FFD278"/>
<path d="M33.8438 31.4688H21.9688C21.3129 31.4688 20.7812 32.0004 20.7812 32.6562V36.2188C20.7812 36.8746 21.3129 37.4062 21.9688 37.4062H33.8438C34.4996 37.4062 35.0312 36.8746 35.0312 36.2188V32.6562C35.0312 32.0004 34.4996 31.4688 33.8438 31.4688Z" fill="#FFD278"/>
<path d="M23.75 27.9062C24.0779 27.9062 24.3438 27.6404 24.3438 27.3125C24.3438 26.9846 24.0779 26.7188 23.75 26.7188C23.4221 26.7188 23.1562 26.9846 23.1562 27.3125C23.1562 27.6404 23.4221 27.9062 23.75 27.9062Z" fill="#FCBE5B"/>
<path d="M26.125 27.9062C26.4529 27.9062 26.7188 27.6404 26.7188 27.3125C26.7188 26.9846 26.4529 26.7188 26.125 26.7188C25.7971 26.7188 25.5312 26.9846 25.5312 27.3125C25.5312 27.6404 25.7971 27.9062 26.125 27.9062Z" fill="#FCBE5B"/>
<path d="M23.75 35.0312C24.0779 35.0312 24.3438 34.7654 24.3438 34.4375C24.3438 34.1096 24.0779 33.8438 23.75 33.8438C23.4221 33.8438 23.1562 34.1096 23.1562 34.4375C23.1562 34.7654 23.4221 35.0312 23.75 35.0312Z" fill="#FCBE5B"/>
<path d="M26.125 35.0312C26.4529 35.0312 26.7188 34.7654 26.7188 34.4375C26.7188 34.1096 26.4529 33.8438 26.125 33.8438C25.7971 33.8438 25.5312 34.1096 25.5312 34.4375C25.5312 34.7654 25.7971 35.0312 26.125 35.0312Z" fill="#FCBE5B"/>
<path d="M10.0932 26.125C9.98418 26.125 9.87728 26.0948 9.78423 26.038C9.69119 25.9812 9.61559 25.8998 9.56572 25.8028C9.51586 25.7059 9.49366 25.597 9.50156 25.4883C9.50946 25.3795 9.54715 25.2751 9.6105 25.1863L15.548 16.8738C15.6395 16.7456 15.7782 16.6591 15.9335 16.6331C16.0888 16.6072 16.2481 16.644 16.3763 16.7355C16.5045 16.827 16.591 16.9656 16.617 17.121C16.6429 17.2763 16.6061 17.4356 16.5146 17.5638L10.5771 25.8763C10.5221 25.9533 10.4495 26.0161 10.3653 26.0594C10.2812 26.1026 10.1879 26.1252 10.0932 26.125Z" fill="#28B6BE"/>
</svg>
