<svg width="38" height="38" viewBox="0 0 38 38" fill="none" xmlns="http://www.w3.org/2000/svg">
<g clip-path="url(#clip0_542_2828)">
<path fill-rule="evenodd" clip-rule="evenodd" d="M19.9402 5.06282C21.311 4.07727 22.9927 3.49673 24.8099 3.49673C29.423 3.49673 33.1626 7.23639 33.1626 11.8495C33.1626 16.4625 29.423 20.2022 24.8099 20.2022C20.1968 20.2022 16.4572 16.4625 16.4572 11.8495C16.4572 11.2841 16.5134 10.7319 16.6206 10.1981L18.1139 11.1462C18.2877 11.2564 18.4931 11.2625 18.673 11.1625C18.853 11.0624 18.9564 10.8848 18.9543 10.679L18.8969 4.62255C18.895 4.43151 18.8043 4.26816 18.643 4.16581C18.4816 4.06339 18.2952 4.0507 18.1216 4.13041L12.6161 6.65488C12.4289 6.74068 12.3121 6.90975 12.2983 7.11519C12.2843 7.32062 12.3771 7.50395 12.5509 7.61431L14.2336 8.68269C13.9337 9.68575 13.7725 10.7489 13.7725 11.8495C13.7725 17.9453 18.7141 22.887 24.8099 22.887C30.9057 22.887 35.8473 17.9453 35.8473 11.8495C35.8473 5.75372 30.9058 0.812012 24.81 0.812012C22.3044 0.812012 19.9942 1.6472 18.1419 3.05401C18.5058 3.00488 18.8783 3.08437 19.1999 3.28854C19.6585 3.57963 19.9308 4.06955 19.936 4.61268L19.9403 5.06289L19.9402 5.06282Z" fill="#FDC72E"/>
<path fill-rule="evenodd" clip-rule="evenodd" d="M28.9048 4.56832C31.4462 6.00059 33.1627 8.72442 33.1627 11.8495C33.1627 16.4625 29.423 20.2022 24.81 20.2022C23.0052 20.2022 21.3342 19.6298 19.9685 18.6567C17.4271 17.2243 15.7106 14.5006 15.7106 11.3755C15.7106 10.8102 15.7669 10.2579 15.874 9.72415L16.6207 10.1982L17.3688 10.6732C17.5423 10.7826 17.747 10.7882 17.9264 10.6885C18.1064 10.5885 18.2098 10.4109 18.2077 10.2051L18.1503 4.14861C18.1502 4.13861 18.1498 4.12861 18.1492 4.11863C18.14 4.12234 18.1308 4.12627 18.1216 4.1305L12.6161 6.65498C12.4289 6.74078 12.3121 6.90985 12.2983 7.11528C12.2843 7.32072 12.3771 7.50404 12.5509 7.6144L13.4869 8.20875L14.2336 8.68278C13.9337 9.68585 13.7725 10.749 13.7725 11.8496C13.7725 15.6156 15.6591 18.9405 18.5383 20.9324C20.1632 21.8738 22.0501 22.4131 24.0633 22.4131C30.1591 22.4131 35.1007 17.4715 35.1007 11.3757C35.1007 7.60973 33.2142 4.28495 30.3351 2.29307C28.7101 1.35153 26.8231 0.812256 24.8099 0.812256C22.3043 0.812256 19.9941 1.64744 18.1418 3.05426C18.5058 3.00512 18.8782 3.08461 19.1998 3.28879C19.5243 3.49474 19.7555 3.80015 19.8647 4.15366C21.0982 3.43485 22.5326 3.02301 24.0632 3.02301C25.8679 3.02301 27.5389 3.59546 28.9047 4.56854L28.9048 4.56832Z" fill="#FCDB35"/>
<path fill-rule="evenodd" clip-rule="evenodd" d="M30.1082 8.25107C30.5143 8.65712 30.5143 9.3216 30.1082 9.72765L24.4086 15.4273C24.157 15.6789 23.8338 15.7886 23.481 15.7422C23.1283 15.6957 22.8444 15.5061 22.6665 15.1979L20.6899 11.7742C20.4027 11.2768 20.5747 10.635 21.072 10.3479C21.5687 10.0611 22.2116 10.2335 22.4983 10.7301L23.8359 13.0469L28.6317 8.25107C29.0378 7.84502 29.7023 7.84502 30.1083 8.25107H30.1082Z" fill="#28B6BE"/>
<path fill-rule="evenodd" clip-rule="evenodd" d="M25.6958 27.231C26.357 26.1186 25.5195 24.7094 24.2264 24.7583C13.5997 24.7583 13.5808 16.1174 3.64062 28.9011L8.90088 34.4158C11.2438 32.053 14.029 31.9438 17.101 32.1276C18.7766 32.2279 20.7763 32.4698 22.611 32.4292C25.1745 32.3726 26.7456 31.6768 28.9966 30.4843C31.5594 29.1267 36.0136 26.4229 36.7906 25.4014C37.9027 23.9394 36.467 22.5625 34.7708 23.5418C32.7759 24.6935 27.4938 27.2127 24.7726 27.9716C25.1844 27.7931 25.5061 27.5505 25.6959 27.231L25.6958 27.231Z" fill="#FDB0A0"/>
<path fill-rule="evenodd" clip-rule="evenodd" d="M25.6958 27.231C26.357 26.1186 25.5195 24.7094 24.2264 24.7583C13.5997 24.7583 13.5808 16.1174 3.64062 28.9011L7.70106 33.1578C10.156 30.7368 13.0664 30.6254 16.2734 30.8173C18.0399 30.923 20.148 31.178 22.0821 31.1352C24.7845 31.0755 26.4407 30.342 28.8138 29.0849C31.4888 27.6679 36.1179 24.8597 37.0043 23.7592C36.6366 23.1951 35.7469 22.9783 34.7708 23.5418C32.7759 24.6936 27.4938 27.2128 24.7726 27.9717C25.1844 27.7932 25.5061 27.5505 25.6959 27.231H25.6958Z" fill="#FFCEC0"/>
<path fill-rule="evenodd" clip-rule="evenodd" d="M25.6974 27.231C26.2131 26.3632 25.8169 25.3149 25.0039 24.9189C25.5923 25.5635 25.1976 26.4785 24.2747 26.8143C23.7639 27.0001 23.0755 27.0879 22.3275 27.1062C20.3739 27.154 18.126 26.6956 17.2372 26.233C17.0867 26.1548 16.9113 26.1395 16.7496 26.1906C16.5878 26.2417 16.453 26.355 16.3748 26.5054C16.2966 26.6559 16.2814 26.8313 16.3324 26.993C16.3835 27.1548 16.4968 27.2896 16.6473 27.3678C17.6743 27.9023 20.2029 28.4336 22.3576 28.3809C23.2475 28.3591 24.0892 28.2356 24.7742 27.9716C25.186 27.7931 25.5077 27.5504 25.6975 27.2309L25.6974 27.231Z" fill="#FDB0A0"/>
<path fill-rule="evenodd" clip-rule="evenodd" d="M0.816406 29.6598L3.25175 27.2245C3.72979 26.7465 4.51213 26.7465 4.99017 27.2245L10.7799 33.0142C11.2579 33.4922 11.2579 34.2745 10.7799 34.7526L8.34456 37.1879L0.816406 29.6598Z" fill="#229BA2"/>
<path fill-rule="evenodd" clip-rule="evenodd" d="M0.816406 29.6599L3.25175 27.2245C3.72957 26.7466 4.51139 26.7465 4.9895 27.2239L4.9901 27.2245L9.54965 31.7841C10.0277 32.2621 10.0277 33.0445 9.54965 33.5225L7.11439 35.9578L0.816406 29.6599Z" fill="#28B6BE"/>
</g>
<defs>
<clipPath id="clip0_542_2828">
<rect width="38" height="38" fill="white"/>
</clipPath>
</defs>
</svg>
