<svg width="38" height="38" viewBox="0 0 38 38" fill="none" xmlns="http://www.w3.org/2000/svg">
<path fill-rule="evenodd" clip-rule="evenodd" d="M13.981 16.4365L13.2459 14.1738H10.5609L9.8257 16.4365C8.56441 16.7892 7.43429 17.4551 6.52358 18.345L4.19387 17.8498L2.85156 20.1749L4.44346 21.9429C4.12536 23.195 4.12536 24.5068 4.44346 25.7589L2.85156 27.527L4.19395 29.8521L6.52365 29.357C7.43421 30.2468 8.56463 30.9127 9.82578 31.2655L10.561 33.5281H13.2459L13.9811 31.2655C15.2424 30.9128 16.3725 30.2468 17.2832 29.357L19.6129 29.8521L20.9553 27.527L19.3634 25.7589C19.6815 24.5068 19.6815 23.195 19.3634 21.9429L20.9553 20.1749L19.6129 17.8498L17.2832 18.345C16.3726 17.4552 15.2423 16.7892 13.981 16.4365ZM11.9035 19.6087C14.2464 19.6087 16.1457 21.5081 16.1457 23.8509C16.1457 26.1938 14.2464 28.0932 11.9035 28.0932C9.56054 28.0932 7.66122 26.1938 7.66122 23.8509C7.66122 21.5081 9.56054 19.6087 11.9035 19.6087Z" fill="#28B6BE"/>
<path fill-rule="evenodd" clip-rule="evenodd" d="M24.6532 6.07074L24.1338 4.47192H22.2366L21.7171 6.07074C20.8259 6.31994 20.0273 6.79053 19.3838 7.41928L17.7376 7.06938L16.7891 8.71234L17.9139 9.96163C17.6892 10.8464 17.6892 11.7733 17.9139 12.658L16.7891 13.9073L17.7376 15.5503L19.3838 15.2004C20.0272 15.8292 20.826 16.2997 21.7171 16.5489L22.2367 18.1477H24.1338L24.6532 16.5489C25.5445 16.2997 26.3431 15.8291 26.9865 15.2004L28.6327 15.5503L29.5813 13.9073L28.4564 12.658C28.6812 11.7733 28.6812 10.8464 28.4564 9.96163L29.5813 8.71234L28.6327 7.06938L26.9865 7.41928C26.3432 6.79061 25.5445 6.31994 24.6532 6.07074ZM23.1852 8.31228C24.8407 8.31228 26.1828 9.65436 26.1828 11.3099C26.1828 12.9654 24.8407 14.3075 23.1852 14.3075C21.5297 14.3075 20.1876 12.9654 20.1876 11.3099C20.1876 9.65436 21.5297 8.31228 23.1852 8.31228Z" fill="#FFBF31"/>
<path fill-rule="evenodd" clip-rule="evenodd" d="M30.2196 19.4404L29.7002 17.8416H27.803L27.2835 19.4404C26.3923 19.6896 25.5938 20.1602 24.9502 20.7889L23.304 20.439L22.3555 22.082L23.4803 23.3313C23.2556 24.216 23.2556 25.1429 23.4803 26.0277L22.3555 27.277L23.304 28.9199L24.9502 28.57C25.5936 29.1988 26.3924 29.6693 27.2835 29.9186L27.8031 31.5174H29.7002L30.2196 29.9186C31.1109 29.6694 31.9095 29.1988 32.5529 28.57L34.1992 28.9199L35.1477 27.277L34.0228 26.0277C34.2476 25.1429 34.2476 24.216 34.0228 23.3313L35.1477 22.082L34.1992 20.439L32.5529 20.7889C31.9095 20.1602 31.1109 19.6896 30.2196 19.4404ZM28.7516 21.6819C30.4071 21.6819 31.7491 23.024 31.7491 24.6795C31.7491 26.335 30.4071 27.6771 28.7516 27.6771C27.096 27.6771 25.754 26.335 25.754 24.6795C25.754 23.024 27.096 21.6819 28.7516 21.6819Z" fill="#7CC242"/>
<path d="M13.3257 24.0046C13.4119 23.2188 12.8448 22.5119 12.0591 22.4257C11.2733 22.3396 10.5665 22.9067 10.4803 23.6925C10.3941 24.4782 10.9612 25.1851 11.7469 25.2713C12.5327 25.3575 13.2395 24.7904 13.3257 24.0046Z" fill="#28B6BE"/>
</svg>
