<svg width="38" height="38" viewBox="0 0 38 38" fill="none" xmlns="http://www.w3.org/2000/svg">
<path d="M21.3271 35.6613H13.3711L16.3217 27.6282H24.2777L21.3271 35.6613Z" fill="#0A6375"/>
<path d="M22.3199 32.9621L24.2792 27.6282H16.3237L15.4704 30.2116L22.3199 32.9621ZM25.9992 36.8923C26.7279 36.8923 27.0023 35.9239 26.3736 35.5568C24.591 34.5173 21.0788 33.8099 17.0301 33.8099C12.9814 33.8099 9.46865 34.5174 7.68656 35.5573C7.05732 35.9239 7.33171 36.8923 8.05985 36.8923H25.9992Z" fill="#1D5166"/>
<path d="M36.3938 28.0138C36.3212 29.0141 35.4997 29.802 34.4994 29.8467C23.8203 30.3329 13.3759 30.3329 3.17175 29.8523C2.68851 29.8301 2.23027 29.6311 1.88411 29.2932C1.53795 28.9552 1.32798 28.5019 1.29411 28.0194C0.852635 21.9058 0.807929 16.1108 1.26058 10.735C1.3444 9.75142 2.16587 8.98583 3.1494 8.94113C13.8509 8.46054 24.3009 8.45495 34.5218 8.93554C35.5165 8.98583 36.3268 9.77378 36.405 10.7685C36.8297 16.53 36.7906 22.2747 36.3938 28.0138Z" fill="#0A6375"/>
<path d="M34.1461 27.5892C34.1349 27.7289 34.0063 27.8519 33.8611 27.8575C28.7534 28.0866 23.629 28.2039 18.6275 28.2039C13.654 28.2039 8.66929 28.0922 3.80752 27.8631C3.73799 27.8567 3.67278 27.8265 3.62289 27.7776C3.57301 27.7288 3.54151 27.6642 3.5337 27.5948C3.10341 21.5595 3.09223 16.0383 3.50576 11.1822C3.51693 11.0536 3.63988 10.9419 3.78517 10.9363C8.87272 10.7031 13.9649 10.5857 19.0578 10.5842C24.0313 10.5842 29.0161 10.7016 33.8778 10.9307C34.0175 10.9363 34.1461 11.0536 34.1572 11.1989C34.5428 16.4351 34.5372 21.9507 34.1461 27.5892Z" fill="white"/>
<path d="M29.1876 28.0335C25.6391 28.1453 22.1073 28.2012 18.6314 28.2012C15.122 28.2012 11.607 28.1453 8.13672 28.0335C8.43437 27.2913 8.94736 26.6552 9.60965 26.207C10.2719 25.7588 11.0532 25.5191 11.8529 25.5188C12.5011 25.5188 13.1047 25.6697 13.6411 25.9435C14.8538 24.5409 16.6476 23.6523 18.6538 23.6523C20.6655 23.6523 22.465 24.5409 23.672 25.9435C24.2141 25.6697 24.8176 25.5188 25.4602 25.5188C27.1479 25.5188 28.5952 26.5582 29.1876 28.0335Z" fill="#D1DAFE"/>
<path d="M20.6809 21.7662C20.6809 23.5506 19.7253 25.1024 19.1285 25.8976C18.8938 26.21 18.4277 26.21 18.193 25.8976C17.5968 25.1024 16.6406 23.5506 16.6406 21.7662C16.6406 19.9819 17.5962 18.4301 18.193 17.6349C18.4277 17.3219 18.8944 17.3219 19.1285 17.6349C19.7253 18.4295 20.6809 19.9819 20.6809 21.7662Z" fill="#FBAD3E"/>
<path d="M20.0972 20.5022C20.0972 21.7701 19.4183 22.8727 18.9941 23.4377C18.9555 23.4895 18.9054 23.5315 18.8476 23.5605C18.7899 23.5895 18.7262 23.6046 18.6616 23.6046C18.597 23.6046 18.5333 23.5895 18.4756 23.5605C18.4179 23.5315 18.3677 23.4895 18.3291 23.4377C17.9055 22.8733 17.2266 21.7701 17.2266 20.5022C17.2266 19.2342 17.9055 18.1316 18.3297 17.5667C18.3683 17.515 18.4184 17.473 18.4761 17.4441C18.5338 17.4152 18.5974 17.4001 18.6619 17.4001C18.7264 17.4001 18.79 17.4152 18.8477 17.4441C18.9054 17.473 18.9555 17.515 18.9941 17.5667C19.4183 18.1316 20.0972 19.2342 20.0972 20.5022Z" fill="#FA990E"/>
<path d="M26.5057 14.8132C27.4311 15.7381 26.5057 20.0461 26.5057 20.0461C26.5057 20.3031 26.2973 20.5121 26.0397 20.5121H25.4244C25.3476 20.5122 25.2721 20.4934 25.2042 20.4574C25.1364 20.4215 25.0785 20.3695 25.0354 20.3059C23.5099 18.8412 22.3363 16.9261 21.3182 14.8127C21.3182 14.8127 25.5887 13.8962 26.5057 14.8132ZM16.0015 14.8132C14.8151 16.9619 13.6014 18.9407 12.287 20.3059C12.2438 20.3691 12.1858 20.4209 12.1182 20.4568C12.0505 20.4927 11.9752 20.5117 11.8986 20.5121H11.28C11.2188 20.5122 11.1581 20.5002 11.1015 20.4768C11.0449 20.4534 10.9934 20.4191 10.9501 20.3758C10.9068 20.3325 10.8724 20.2811 10.8489 20.2245C10.8255 20.168 10.8134 20.1073 10.8134 20.0461C10.8134 20.0461 9.88854 15.7381 10.8134 14.8132C11.731 13.8962 16.0015 14.8132 16.0015 14.8132Z" fill="#28B6BE"/>
<path d="M24.498 11.7773C24.498 15.309 23.2407 17.9243 21.8995 19.7125H15.4227C14.076 17.9243 12.8242 15.309 12.8242 11.7773C12.8242 6.01019 16.1716 2.6796 17.7977 1.40548C18.3063 1.00872 19.016 1.00872 19.5245 1.40548C21.1507 2.6796 24.498 6.01019 24.498 11.7773Z" fill="#94DAD9"/>
<path d="M22.5646 4.82548H14.7578C15.786 3.16019 16.9987 2.03137 17.7978 1.40548C18.3063 1.00872 19.016 1.00872 19.5246 1.40548C20.3237 2.03137 21.5363 3.16019 22.5646 4.82548ZM22.2036 20.7302C22.1857 21.0034 21.9733 21.2275 21.7062 21.2705C19.6919 21.5771 17.6428 21.5771 15.6285 21.2705C15.5015 21.2516 15.384 21.1924 15.2933 21.1016C15.2026 21.0109 15.1433 20.8934 15.1244 20.7665C15.0991 20.5669 15.1012 20.3648 15.1305 20.1657C15.1472 20.0373 15.2055 19.9178 15.2966 19.8257C15.3876 19.7335 15.5064 19.6738 15.6346 19.6555C17.641 19.3825 19.6752 19.3825 21.6816 19.6555C21.9426 19.6919 22.1494 19.8981 22.1857 20.159C22.2097 20.3289 22.222 20.5295 22.2036 20.7302Z" fill="#28B6BE"/>
<path d="M21.9904 9.94443C21.9904 10.8279 21.6395 11.6752 21.0147 12.2999C20.39 12.9246 19.5427 13.2756 18.6593 13.2756C17.7758 13.2756 16.9285 12.9246 16.3038 12.2999C15.6791 11.6752 15.3281 10.8279 15.3281 9.94443C15.3281 9.06095 15.6791 8.21366 16.3038 7.58895C16.9285 6.96424 17.7758 6.61328 18.6593 6.61328C19.5427 6.61328 20.39 6.96424 21.0147 7.58895C21.6395 8.21366 21.9904 9.06095 21.9904 9.94443Z" fill="#D1DAFE"/>
<path d="M20.9534 9.94425C20.9534 10.5519 20.7121 11.1347 20.2824 11.5644C19.8527 11.994 19.2699 12.2354 18.6623 12.2354C18.0546 12.2354 17.4718 11.994 17.0422 11.5644C16.6125 11.1347 16.3711 10.5519 16.3711 9.94425C16.3711 9.3366 16.6125 8.75383 17.0422 8.32415C17.4718 7.89447 18.0546 7.65308 18.6623 7.65308C19.2699 7.65308 19.8527 7.89447 20.2824 8.32415C20.7121 8.75383 20.9534 9.3366 20.9534 9.94425Z" fill="#28B6BE"/>
<path d="M19.1121 19.7645C19.1121 20.2384 19.0875 20.7056 19.0149 21.1728C18.9478 21.6405 18.8511 22.1082 18.6567 22.5754C18.4683 22.1082 18.3717 21.6405 18.3046 21.1728C18.2358 20.7066 18.2033 20.2357 18.2074 19.7645C18.2074 19.2973 18.2314 18.8296 18.3046 18.3619C18.3717 17.8947 18.4683 17.427 18.6567 16.9592C18.8511 17.427 18.9484 17.8947 19.0143 18.3619C19.0875 18.8296 19.1121 19.2973 19.1121 19.7645Z" fill="#D1DAFE"/>
<path d="M36.628 29.23L36.2072 29.1087C36.118 29.084 36.0361 29.0383 35.9682 28.9755C35.9002 28.9127 35.8483 28.8346 35.8166 28.7477C35.7637 28.5974 35.7027 28.45 35.6338 28.3062C35.595 28.2224 35.5766 28.1305 35.5803 28.0382C35.584 27.9459 35.6096 27.8558 35.6551 27.7753L35.8669 27.3914C35.9289 27.2785 35.9527 27.1485 35.9346 27.0209C35.9164 26.8933 35.8574 26.7751 35.7663 26.684L35.0666 25.9843C34.9755 25.8932 34.8572 25.8342 34.7297 25.816C34.6021 25.7979 34.4721 25.8216 34.3592 25.8837L33.9741 26.0961C33.8938 26.1412 33.8038 26.1667 33.7117 26.1703C33.6196 26.1739 33.528 26.1555 33.4444 26.1168C33.3004 26.048 33.1528 25.987 33.0023 25.934C32.9156 25.9023 32.8376 25.8504 32.775 25.7826C32.7123 25.7147 32.6667 25.6329 32.6419 25.544L32.5206 25.1226C32.4848 24.9987 32.4096 24.8898 32.3065 24.8123C32.2034 24.7348 32.0779 24.6929 31.949 24.6929H31.3438V35.8973H31.9495C32.2138 35.8973 32.4469 35.7224 32.5206 35.4681L32.6419 35.0495C32.6667 34.9607 32.7122 34.8791 32.7748 34.8114C32.8374 34.7436 32.9152 34.6918 33.0018 34.66C33.1523 34.6069 33.2998 34.5457 33.4438 34.4768C33.6126 34.3963 33.811 34.408 33.9747 34.498L34.3586 34.7098C34.5911 34.8372 34.88 34.7964 35.0666 34.6086L35.7668 33.9068C35.9535 33.7195 35.9943 33.4312 35.8663 33.1993L35.6556 32.8187C35.6102 32.7383 35.5846 32.6482 35.5809 32.5558C35.5772 32.4635 35.5955 32.3717 35.6344 32.2878C35.7026 32.1448 35.7635 31.9973 35.8166 31.8464C35.8483 31.7594 35.9004 31.6812 35.9684 31.6185C36.0364 31.5557 36.1185 31.51 36.2077 31.4854L36.628 31.3635C36.8822 31.2903 37.0577 31.0573 37.0577 30.7924V29.8016C37.0577 29.5368 36.8822 29.3043 36.628 29.23Z" fill="#F78321"/>
<path d="M35.268 31.8464C35.2149 31.9973 35.154 32.1448 35.0858 32.2878C35.0053 32.4566 35.017 32.655 35.1076 32.8187L35.3177 33.1987C35.4462 33.4312 35.4054 33.7195 35.2182 33.9068L34.5186 34.6086C34.3314 34.7964 34.0425 34.8378 33.8105 34.7092L33.4261 34.498C33.3456 34.4526 33.2555 34.427 33.1632 34.4233C33.0709 34.4196 32.979 34.4379 32.8952 34.4768C32.7521 34.5455 32.6046 34.607 32.4537 34.66C32.367 34.6917 32.2891 34.7435 32.2264 34.8113C32.1638 34.879 32.1181 34.9607 32.0933 35.0495L31.9726 35.4681C31.9366 35.5919 31.8614 35.7007 31.7583 35.7781C31.6552 35.8555 31.5298 35.8973 31.4009 35.8973H30.4135C30.1486 35.8973 29.9161 35.7224 29.8418 35.4681L29.7205 35.0495C29.6957 34.9607 29.6502 34.8791 29.5876 34.8114C29.525 34.7436 29.4472 34.6918 29.3606 34.66C29.2103 34.6068 29.063 34.5457 28.9192 34.4768C28.8353 34.4379 28.7435 34.4196 28.6512 34.4233C28.5588 34.427 28.4687 34.4526 28.3883 34.498L28.0038 34.7098C27.8908 34.7719 27.7606 34.7957 27.6329 34.7774C27.5052 34.7592 27.3869 34.6999 27.2958 34.6086L26.5961 33.9068C26.5052 33.8155 26.4464 33.6972 26.4284 33.5696C26.4105 33.442 26.4344 33.3121 26.4967 33.1993L26.7068 32.8187C26.7973 32.655 26.809 32.4566 26.7286 32.2878C26.6599 32.1441 26.5991 31.9967 26.5464 31.8464C26.5147 31.7594 26.4626 31.6812 26.3946 31.6185C26.3265 31.5557 26.2445 31.51 26.1552 31.4854L25.735 31.3635C25.6111 31.3278 25.5021 31.2528 25.4245 31.1498C25.3469 31.0468 25.3048 30.9214 25.3047 30.7924V29.8016C25.3047 29.5368 25.4802 29.3043 25.735 29.2305L26.1558 29.1087C26.2449 29.084 26.3269 29.0383 26.3948 28.9755C26.4627 28.9127 26.5147 28.8346 26.5464 28.7477C26.5995 28.5968 26.6604 28.4487 26.7286 28.3062C26.7675 28.2224 26.7859 28.1305 26.7822 28.0382C26.7785 27.9459 26.7528 27.8558 26.7073 27.7753L26.4961 27.3914C26.434 27.2785 26.4103 27.1485 26.4284 27.0209C26.4465 26.8933 26.5056 26.7751 26.5967 26.684L27.2958 25.9843C27.3869 25.8932 27.5052 25.8342 27.6327 25.816C27.7603 25.7979 27.8903 25.8216 28.0032 25.8837L28.3888 26.0961C28.552 26.186 28.7498 26.1972 28.9186 26.1168C29.0622 26.0486 29.2092 25.9871 29.3601 25.934C29.4468 25.9023 29.5248 25.8504 29.5875 25.7826C29.6501 25.7147 29.6957 25.6329 29.7205 25.544L29.8423 25.1226C29.8782 24.9987 29.9533 24.8898 30.0564 24.8123C30.1595 24.7348 30.285 24.6929 30.414 24.6929H31.4003C31.6652 24.6929 31.8982 24.8683 31.972 25.1232L32.0938 25.544C32.1458 25.7233 32.2777 25.872 32.4537 25.934C32.6046 25.9871 32.7521 26.0486 32.8957 26.1168C33.0645 26.1972 33.2623 26.186 33.4261 26.0961L33.8111 25.8837C33.924 25.8216 34.054 25.7979 34.1816 25.816C34.3092 25.8342 34.4274 25.8932 34.5186 25.9843L35.2177 26.684C35.4049 26.8712 35.4462 27.159 35.3182 27.3914L35.1065 27.7759C35.0613 27.8562 35.0359 27.9462 35.0323 28.0383C35.0287 28.1304 35.047 28.222 35.0858 28.3057C35.154 28.4487 35.2149 28.5963 35.268 28.7477C35.33 28.9243 35.4786 29.0567 35.6591 29.1087L36.0794 29.2305C36.3342 29.3037 36.5097 29.5368 36.5097 29.8016V30.7924C36.5097 31.0573 36.3342 31.2898 36.0794 31.3635L35.6591 31.4854C35.5699 31.51 35.4878 31.5557 35.4198 31.6185C35.3517 31.6812 35.2997 31.7594 35.268 31.8464Z" fill="#FF9900"/>
<path d="M30.9065 34.006C32.9561 34.006 34.6176 32.3445 34.6176 30.2949C34.6176 28.2453 32.9561 26.5837 30.9065 26.5837C28.8568 26.5837 27.1953 28.2453 27.1953 30.2949C27.1953 32.3445 28.8568 34.006 30.9065 34.006Z" fill="#F78321"/>
<path d="M30.9065 33.2326C32.529 33.2326 33.8442 31.9174 33.8442 30.2949C33.8442 28.6724 32.529 27.3572 30.9065 27.3572C29.284 27.3572 27.9688 28.6724 27.9688 30.2949C27.9688 31.9174 29.284 33.2326 30.9065 33.2326Z" fill="white"/>
</svg>
