<svg width="38" height="38" viewBox="0 0 38 38" fill="none" xmlns="http://www.w3.org/2000/svg">
<g clip-path="url(#clip0_542_2868)">
<path fill-rule="evenodd" clip-rule="evenodd" d="M6.22903 26.2822C9.26064 26.2822 11.7158 28.7395 11.7158 31.7711C11.7158 34.8028 9.26064 37.2579 6.22903 37.2579C3.19742 37.2579 0.742188 34.8007 0.742188 31.7711C0.742188 28.7416 3.19957 26.2822 6.22903 26.2822Z" fill="#CAD1D8"/>
<path fill-rule="evenodd" clip-rule="evenodd" d="M6.7157 26.3054C9.51798 26.5516 11.7144 28.9037 11.7144 31.7712C11.7144 34.6387 9.51798 36.9887 6.7157 37.2349C3.91335 36.9887 1.71484 34.6366 1.71484 31.7712C1.71484 28.9057 3.91335 26.5516 6.7157 26.3054Z" fill="#E2E5E7"/>
<path fill-rule="evenodd" clip-rule="evenodd" d="M31.7719 26.2822C34.8015 26.2822 37.2587 28.7395 37.2587 31.7711C37.2587 34.8028 34.8014 37.2579 31.7719 37.2579C28.7425 37.2579 26.2852 34.8007 26.2852 31.7711C26.2852 28.7416 28.7403 26.2822 31.7719 26.2822Z" fill="#CAD1D8"/>
<path fill-rule="evenodd" clip-rule="evenodd" d="M32.2565 26.3054C35.0588 26.5516 37.2573 28.9037 37.2573 31.7712C37.2573 34.6387 35.0588 36.9887 32.2565 37.2349C29.4542 36.9887 27.2578 34.6366 27.2578 31.7712C27.2578 28.9057 29.4542 26.5516 32.2565 26.3054Z" fill="#E2E5E7"/>
<path fill-rule="evenodd" clip-rule="evenodd" d="M31.7719 0.741699C34.8015 0.741699 37.2587 3.19901 37.2587 6.22847C37.2587 9.25793 34.8014 11.7152 31.7719 11.7152C28.7425 11.7152 26.2852 9.26008 26.2852 6.22847C26.2852 3.19686 28.7403 0.741699 31.7719 0.741699Z" fill="#CAD1D8"/>
<path fill-rule="evenodd" clip-rule="evenodd" d="M32.2565 0.762695C35.0588 1.01096 37.2573 3.36302 37.2573 6.22846C37.2573 9.0939 35.0588 11.448 32.2565 11.6942C29.4542 11.448 27.2578 9.09598 27.2578 6.22846C27.2578 3.36094 29.4542 1.01096 32.2565 0.762695Z" fill="#E2E5E7"/>
<path fill-rule="evenodd" clip-rule="evenodd" d="M6.22903 0.741699C9.26064 0.741699 11.7158 3.19901 11.7158 6.22847C11.7158 9.25793 9.26064 11.7152 6.22903 11.7152C3.19742 11.7152 0.742188 9.26016 0.742188 6.22854C0.742188 3.19693 3.1995 0.741699 6.22903 0.741699Z" fill="#CAD1D8"/>
<path fill-rule="evenodd" clip-rule="evenodd" d="M6.7157 0.762695C9.51798 1.01096 11.7144 3.36302 11.7144 6.22846C11.7144 9.0939 9.51798 11.448 6.7157 11.6942C3.91335 11.448 1.71484 9.09598 1.71484 6.22846C1.71484 3.36094 3.91343 1.01096 6.7157 0.762695Z" fill="#E2E5E7"/>
<path fill-rule="evenodd" clip-rule="evenodd" d="M10.538 35.1667C9.90477 31.8721 2.66332 31.809 1.77344 34.9752C2.77064 36.3575 4.39269 37.2579 6.2273 37.2579C7.9756 37.2579 9.53234 36.4395 10.538 35.1667Z" fill="#32A13F"/>
<path fill-rule="evenodd" clip-rule="evenodd" d="M10.5382 35.1667C9.97012 32.2108 4.07938 31.8574 2.23438 34.1022C3.04648 35.8273 4.72953 37.0623 6.71763 37.2348C8.26391 37.098 9.62723 36.3196 10.5382 35.1667Z" fill="#3CB54B"/>
<path fill-rule="evenodd" clip-rule="evenodd" d="M6.13332 28.2664C4.83523 28.2664 3.78125 29.3204 3.78125 30.6184C3.78125 31.9164 4.8353 32.9705 6.13332 32.9705C7.43133 32.9705 8.48538 31.9164 8.48538 30.6184C8.48538 29.3204 7.43133 28.2664 6.13332 28.2664Z" fill="#E2B698"/>
<path fill-rule="evenodd" clip-rule="evenodd" d="M6.51279 32.941C7.63201 32.76 8.48827 31.7902 8.48827 30.6184C8.48827 29.4465 7.63201 28.4767 6.51279 28.2979C5.39142 28.4767 4.53516 29.4487 4.53516 30.6184C4.53516 31.7881 5.39142 32.7601 6.51279 32.941Z" fill="#EFC9AE"/>
<path fill-rule="evenodd" clip-rule="evenodd" d="M36.0789 35.1667C35.4477 31.8721 28.2042 31.809 27.3164 34.9752C28.3115 36.3575 29.9357 37.2579 31.7703 37.2579C33.5186 37.2579 35.0754 36.4395 36.0789 35.1667Z" fill="#F2992C"/>
<path fill-rule="evenodd" clip-rule="evenodd" d="M36.0791 35.1667C35.5132 32.2108 29.6224 31.8574 27.7773 34.1022C28.5873 35.8273 30.2725 37.0623 32.2585 37.2348C33.8069 37.098 35.1702 36.3196 36.0791 35.1667Z" fill="#FAA845"/>
<path fill-rule="evenodd" clip-rule="evenodd" d="M31.6763 28.2664C30.3761 28.2664 29.3242 29.3204 29.3242 30.6184C29.3242 31.9164 30.3761 32.9705 31.6763 32.9705C32.9764 32.9705 34.0263 31.9164 34.0263 30.6184C34.0263 29.3204 32.9744 28.2664 31.6763 28.2664Z" fill="#E2B698"/>
<path fill-rule="evenodd" clip-rule="evenodd" d="M32.0497 32.941C33.1711 32.76 34.0252 31.7902 34.0252 30.6184C34.0252 29.4465 33.171 28.4767 32.0497 28.2979C30.9305 28.4767 30.0742 29.4487 30.0742 30.6184C30.0742 31.7881 30.9305 32.7601 32.0497 32.941Z" fill="#EFC9AE"/>
<path fill-rule="evenodd" clip-rule="evenodd" d="M36.0789 9.62419C35.4477 6.3317 28.2042 6.26646 27.3164 9.43271C28.3115 10.815 29.9357 11.7154 31.7703 11.7154C33.5186 11.7154 35.0754 10.899 36.0789 9.62419Z" fill="#CD212D"/>
<path fill-rule="evenodd" clip-rule="evenodd" d="M36.0791 9.62411C35.5132 6.6682 29.6224 6.31477 27.7773 8.56167C28.5873 10.2868 30.2725 11.5197 32.2585 11.6943C33.8069 11.5575 35.1702 10.7791 36.0791 9.62411Z" fill="#EE2B39"/>
<path fill-rule="evenodd" clip-rule="evenodd" d="M31.6763 2.72559C30.3761 2.72559 29.3242 3.77749 29.3242 5.07765C29.3242 6.37782 30.3761 7.42764 31.6763 7.42764C32.9764 7.42764 34.0263 6.37574 34.0263 5.07765C34.0263 3.77957 32.9744 2.72559 31.6763 2.72559Z" fill="#E2B698"/>
<path fill-rule="evenodd" clip-rule="evenodd" d="M32.0497 7.39825C33.1711 7.21946 34.0252 6.24749 34.0252 5.07773C34.0252 3.90797 33.171 2.936 32.0497 2.75513C30.9305 2.93607 30.0742 3.90589 30.0742 5.07773C30.0742 6.24957 30.9305 7.21946 32.0497 7.39825Z" fill="#EFC9AE"/>
<path d="M13.8542 3.6534C13.7426 3.69069 13.6207 3.68217 13.5154 3.62971C13.4101 3.57725 13.3299 3.48514 13.2924 3.3736C13.2737 3.31835 13.2661 3.25995 13.2701 3.20175C13.274 3.14356 13.2894 3.08672 13.3154 3.03451C13.3415 2.9823 13.3775 2.93575 13.4216 2.89754C13.4656 2.85932 13.5168 2.83019 13.5722 2.81183C17.0877 1.63369 20.9146 1.63369 24.4301 2.81183C24.4855 2.83019 24.5367 2.85932 24.5807 2.89754C24.6248 2.93575 24.6609 2.9823 24.6869 3.03451C24.7129 3.08672 24.7283 3.14356 24.7322 3.20175C24.7362 3.25995 24.7286 3.31835 24.7099 3.3736C24.6724 3.48514 24.5922 3.57725 24.4869 3.62971C24.3816 3.68217 24.2597 3.69069 24.1481 3.6534C20.8262 2.54049 17.1761 2.53834 13.8542 3.6534ZM34.3477 13.8528C34.3104 13.7412 34.3189 13.6194 34.3713 13.5141C34.4238 13.4087 34.5159 13.3285 34.6275 13.2911C34.6827 13.2724 34.7411 13.2648 34.7993 13.2687C34.8575 13.2727 34.9143 13.2881 34.9665 13.3141C35.0188 13.3401 35.0653 13.3762 35.1035 13.4203C35.1417 13.4643 35.1709 13.5155 35.1892 13.5709C36.3674 17.0864 36.3674 20.9133 35.1892 24.4288C35.1709 24.4841 35.1417 24.5353 35.1035 24.5794C35.0653 24.6235 35.0188 24.6595 34.9665 24.6855C34.9143 24.7115 34.8575 24.727 34.7993 24.7309C34.7411 24.7349 34.6827 24.7273 34.6275 24.7086C34.5159 24.6711 34.4238 24.5909 34.3713 24.4856C34.3189 24.3803 34.3104 24.2584 34.3477 24.1468C35.4606 20.8228 35.4627 17.1747 34.3477 13.8528V13.8528ZM24.1482 34.3463C24.2598 34.309 24.3817 34.3176 24.487 34.37C24.5923 34.4225 24.6725 34.5146 24.71 34.6261C24.7287 34.6814 24.7363 34.7398 24.7323 34.798C24.7284 34.8562 24.7129 34.913 24.6869 34.9652C24.6609 35.0174 24.6249 35.064 24.5808 35.1022C24.5367 35.1404 24.4855 35.1695 24.4302 35.1879C20.9147 36.3661 17.0878 36.3661 13.5723 35.1879C13.5169 35.1695 13.4657 35.1404 13.4217 35.1022C13.3776 35.064 13.3415 35.0174 13.3155 34.9652C13.2895 34.913 13.2741 34.8562 13.2701 34.798C13.2662 34.7398 13.2738 34.6814 13.2925 34.6261C13.3299 34.5146 13.4101 34.4225 13.5155 34.37C13.6208 34.3176 13.7426 34.309 13.8542 34.3463C17.1762 35.4593 20.8263 35.4614 24.1483 34.3463H24.1482ZM3.65479 24.1469C3.69208 24.2585 3.68356 24.3803 3.6311 24.4857C3.57864 24.591 3.48653 24.6712 3.37499 24.7087C3.31974 24.7274 3.26135 24.735 3.20316 24.731C3.14497 24.727 3.08814 24.7116 3.03594 24.6856C2.98373 24.6596 2.93719 24.6235 2.89898 24.5795C2.86077 24.5354 2.83165 24.4842 2.8133 24.4289C1.63515 20.9133 1.63515 17.0865 2.8133 13.571C2.83165 13.5156 2.86077 13.4644 2.89898 13.4203C2.93719 13.3763 2.98373 13.3402 3.03594 13.3142C3.08814 13.2882 3.14497 13.2728 3.20316 13.2688C3.26135 13.2649 3.31974 13.2725 3.37499 13.2912C3.48653 13.3286 3.57864 13.4088 3.6311 13.5141C3.68356 13.6195 3.69208 13.7413 3.65479 13.8529C2.54188 17.1749 2.53973 20.825 3.65479 24.147V24.1469Z" fill="#28B6BE"/>
<path fill-rule="evenodd" clip-rule="evenodd" d="M10.538 9.62419C9.90477 6.3317 2.66332 6.26646 1.77344 9.43271C2.77064 10.815 4.39269 11.7154 6.2273 11.7154C7.9756 11.7154 9.53234 10.899 10.538 9.62419Z" fill="#28B6BE"/>
<path fill-rule="evenodd" clip-rule="evenodd" d="M10.5382 9.62411C9.97012 6.6682 4.07938 6.31477 2.23438 8.56167C3.04648 10.2868 4.72953 11.5197 6.71763 11.6943C8.26391 11.5575 9.62723 10.7791 10.5382 9.62411Z" fill="#3589C9"/>
<path fill-rule="evenodd" clip-rule="evenodd" d="M6.13332 2.72559C4.83523 2.72559 3.78125 3.77749 3.78125 5.07765C3.78125 6.37782 4.8353 7.42764 6.13332 7.42764C7.43133 7.42764 8.48538 6.37574 8.48538 5.07765C8.48538 3.77957 7.43133 2.72559 6.13332 2.72559Z" fill="#E2B698"/>
<path fill-rule="evenodd" clip-rule="evenodd" d="M6.51279 7.39825C7.63201 7.21946 8.48827 6.24749 8.48827 5.07773C8.48827 3.90797 7.63201 2.936 6.51279 2.75513C5.39142 2.93607 4.53516 3.90589 4.53516 5.07773C4.53516 6.24957 5.39142 7.21946 6.51279 7.39825Z" fill="#EFC9AE"/>
<path fill-rule="evenodd" clip-rule="evenodd" d="M16.9481 13.2575H22.7084L25.8095 10.1543V13.2575H26.872C27.3453 13.2575 27.7303 13.6424 27.7303 14.1158V20.0549C27.7303 20.5283 27.3453 20.9133 26.872 20.9133H16.9482C16.4769 20.9133 16.0898 20.5283 16.0898 20.0549V14.1158C16.0898 13.6424 16.4769 13.2575 16.9481 13.2575Z" fill="#00ADE6"/>
<path fill-rule="evenodd" clip-rule="evenodd" d="M17.8818 13.2574H23.6421L25.8112 11.0884V13.2574H26.8736C27.347 13.2574 27.7319 13.6424 27.7319 14.1158V20.0549C27.7319 20.5283 27.347 20.9132 26.8736 20.9132H17.8818C17.4105 20.9132 17.0234 20.5283 17.0234 20.0549V14.1158C17.0234 13.6424 17.4106 13.2574 17.8818 13.2574Z" fill="#28B6BE"/>
<path fill-rule="evenodd" clip-rule="evenodd" d="M21.0517 24.7423H15.2914L12.1903 27.8434V24.7423H11.1279C10.6545 24.7423 10.2695 24.3552 10.2695 23.884V17.9427C10.2695 17.4714 10.6545 17.0864 11.1279 17.0864H21.0517C21.5229 17.0864 21.91 17.4714 21.91 17.9427V23.884C21.91 24.3553 21.5229 24.7423 21.0517 24.7423H21.0517Z" fill="#CAD1D8"/>
<path fill-rule="evenodd" clip-rule="evenodd" d="M21.0533 24.7423H15.2929L13.1239 26.9114V24.7423H12.0615C11.5902 24.7423 11.2031 24.3552 11.2031 23.884V17.9427C11.2031 17.4714 11.5902 17.0864 12.0615 17.0864H21.0533C21.5246 17.0864 21.9116 17.4714 21.9116 17.9427V23.884C21.9116 24.3553 21.5245 24.7423 21.0533 24.7423Z" fill="#E2E5E7"/>
<path d="M12.1453 19.5227C11.8992 19.5227 11.6992 19.3229 11.6992 19.0767C11.6992 18.8305 11.8991 18.6306 12.1453 18.6306H20.0326C20.2787 18.6306 20.4786 18.8305 20.4786 19.0767C20.4786 19.3229 20.2787 19.5227 20.0326 19.5227H12.1453ZM12.1453 23.196C11.8992 23.196 11.6992 22.9962 11.6992 22.75C11.6992 22.5038 11.8991 22.3061 12.1453 22.3061H20.0326C20.2787 22.3061 20.4786 22.5039 20.4786 22.75C20.4786 22.9961 20.2787 23.196 20.0326 23.196H12.1453ZM12.1453 21.3593C11.8992 21.3593 11.6992 21.1595 11.6992 20.9133C11.6992 20.6671 11.8991 20.4694 12.1453 20.4694H20.0326C20.2787 20.4694 20.4786 20.6672 20.4786 20.9133C20.4786 21.1594 20.2787 21.3593 20.0326 21.3593H12.1453Z" fill="#A0A9B0"/>
</g>
<defs>
<clipPath id="clip0_542_2868">
<rect width="38" height="38" fill="white"/>
</clipPath>
</defs>
</svg>
