<svg width="38" height="38" viewBox="0 0 38 38" fill="none" xmlns="http://www.w3.org/2000/svg">
<path d="M1.89258 3.2478H36.1073V25.6688H1.89258V3.2478Z" fill="#F3F3FF"/>
<path d="M1.89258 3.2478H6.16186V25.6688H1.89258V3.2478Z" fill="#E5E5FF"/>
<path fill-rule="evenodd" clip-rule="evenodd" d="M5.64258 8.5314C5.52447 8.5314 5.41121 8.48448 5.32769 8.40097C5.24418 8.31746 5.19727 8.20419 5.19727 8.08609C5.19727 7.96798 5.24418 7.85471 5.32769 7.7712C5.41121 7.68769 5.52447 7.64077 5.64258 7.64077H6.67971C6.79782 7.64077 6.91108 7.68769 6.99459 7.7712C7.07811 7.85471 7.12502 7.96798 7.12502 8.08609C7.12502 8.20419 7.07811 8.31746 6.99459 8.40097C6.91108 8.48448 6.79782 8.5314 6.67971 8.5314H5.64258ZM16.6215 17.5052C16.7396 17.5052 16.8528 17.5521 16.9363 17.6356C17.0199 17.7191 17.0668 17.8324 17.0668 17.9505C17.0668 18.0686 17.0199 18.1819 16.9363 18.2654C16.8528 18.3489 16.7396 18.3958 16.6215 18.3958H8.41346C8.29536 18.3958 8.18209 18.3489 8.09858 18.2654C8.01506 18.1819 7.96815 18.0686 7.96815 17.9505C7.96815 17.8324 8.01506 17.7191 8.09858 17.6356C8.18209 17.5521 8.29536 17.5052 8.41346 17.5052H16.6215ZM5.64258 18.3958C5.52447 18.3958 5.41121 18.3489 5.32769 18.2654C5.24418 18.1819 5.19727 18.0686 5.19727 17.9505C5.19727 17.8324 5.24418 17.7191 5.32769 17.6356C5.41121 17.5521 5.52447 17.5052 5.64258 17.5052H6.67971C6.79782 17.5052 6.91108 17.5521 6.99459 17.6356C7.07811 17.7191 7.12502 17.8324 7.12502 17.9505C7.12502 18.0686 7.07811 18.1819 6.99459 18.2654C6.91108 18.3489 6.79782 18.3958 6.67971 18.3958H5.64258ZM16.6215 15.039C16.7396 15.039 16.8528 15.086 16.9363 15.1695C17.0199 15.253 17.0668 15.3663 17.0668 15.4844C17.0668 15.6025 17.0199 15.7157 16.9363 15.7992C16.8528 15.8828 16.7396 15.9297 16.6215 15.9297H8.41346C8.29536 15.9297 8.18209 15.8828 8.09858 15.7992C8.01506 15.7157 7.96815 15.6025 7.96815 15.4844C7.96815 15.3663 8.01506 15.253 8.09858 15.1695C8.18209 15.086 8.29536 15.039 8.41346 15.039H16.6215ZM5.64258 15.9297C5.52447 15.9297 5.41121 15.8828 5.32769 15.7992C5.24418 15.7157 5.19727 15.6025 5.19727 15.4844C5.19727 15.3663 5.24418 15.253 5.32769 15.1695C5.41121 15.086 5.52447 15.039 5.64258 15.039H6.67971C6.79782 15.039 6.91108 15.086 6.99459 15.1695C7.07811 15.253 7.12502 15.3663 7.12502 15.4844C7.12502 15.6025 7.07811 15.7157 6.99459 15.7992C6.91108 15.8828 6.79782 15.9297 6.67971 15.9297H5.64258ZM16.6215 12.5729C16.7396 12.5729 16.8528 12.6198 16.9363 12.7033C17.0199 12.7868 17.0668 12.9001 17.0668 13.0182C17.0668 13.1363 17.0199 13.2496 16.9363 13.3331C16.8528 13.4166 16.7396 13.4635 16.6215 13.4635H8.41346C8.29536 13.4635 8.18209 13.4166 8.09858 13.3331C8.01506 13.2496 7.96815 13.1363 7.96815 13.0182C7.96815 12.9001 8.01506 12.7868 8.09858 12.7033C8.18209 12.6198 8.29536 12.5729 8.41346 12.5729H16.6215ZM5.64258 13.4635C5.52447 13.4635 5.41121 13.4166 5.32769 13.3331C5.24418 13.2496 5.19727 13.1363 5.19727 13.0182C5.19727 12.9001 5.24418 12.7868 5.32769 12.7033C5.41121 12.6198 5.52447 12.5729 5.64258 12.5729H6.67971C6.79782 12.5729 6.91108 12.6198 6.99459 12.7033C7.07811 12.7868 7.12502 12.9001 7.12502 13.0182C7.12502 13.1363 7.07811 13.2496 6.99459 13.3331C6.91108 13.4166 6.79782 13.4635 6.67971 13.4635H5.64258ZM16.6215 10.1068C16.7396 10.1068 16.8528 10.1537 16.9363 10.2372C17.0199 10.3207 17.0668 10.434 17.0668 10.5521C17.0668 10.6702 17.0199 10.7834 16.9363 10.867C16.8528 10.9505 16.7396 10.9974 16.6215 10.9974H8.41346C8.29536 10.9974 8.18209 10.9505 8.09858 10.867C8.01506 10.7834 7.96815 10.6702 7.96815 10.5521C7.96815 10.434 8.01506 10.3207 8.09858 10.2372C8.18209 10.1537 8.29536 10.1068 8.41346 10.1068H16.6215ZM5.64258 10.9974C5.52447 10.9974 5.41121 10.9505 5.32769 10.867C5.24418 10.7834 5.19727 10.6702 5.19727 10.5521C5.19727 10.434 5.24418 10.3207 5.32769 10.2372C5.41121 10.1537 5.52447 10.1068 5.64258 10.1068H6.67971C6.79782 10.1068 6.91108 10.1537 6.99459 10.2372C7.07811 10.3207 7.12502 10.434 7.12502 10.5521C7.12502 10.6702 7.07811 10.7834 6.99459 10.867C6.91108 10.9505 6.79782 10.9974 6.67971 10.9974H5.64258ZM16.6215 7.64063C16.7396 7.64062 16.8528 7.68754 16.9363 7.77105C17.0199 7.85457 17.0668 7.96783 17.0668 8.08594C17.0668 8.20404 17.0199 8.31731 16.9363 8.40082C16.8528 8.48433 16.7396 8.53125 16.6215 8.53125H8.41346C8.29536 8.53125 8.18209 8.48433 8.09858 8.40082C8.01506 8.31731 7.96815 8.20404 7.96815 8.08594C7.96815 7.96783 8.01506 7.85457 8.09858 7.77105C8.18209 7.68754 8.29536 7.64063 8.41346 7.64063H16.6215Z" fill="#6875B0"/>
<path d="M1.81903 1.90479H36.1809C36.7752 1.90479 37.2577 2.38728 37.2577 2.98162V3.5137C37.2577 4.10804 36.7752 4.59061 36.1808 4.59061H1.81903C1.22468 4.59061 0.742188 4.10812 0.742188 3.51377V2.9817C0.742188 2.38736 1.22468 1.90479 1.81903 1.90479Z" fill="#28B6BE"/>
<path fill-rule="evenodd" clip-rule="evenodd" d="M1.81903 4.59054H6.16186V1.90479H1.81903C1.22669 1.90479 0.742188 2.38936 0.742188 2.9817V3.5137C0.742188 4.10596 1.22676 4.59054 1.81903 4.59054Z" fill="#23B1B9"/>
<path fill-rule="evenodd" clip-rule="evenodd" d="M26.9361 8.08601C24.2121 8.08601 22.0039 10.2942 22.0039 13.0183C22.0039 14.8438 22.9956 16.4376 24.4696 17.2904L25.6216 15.2953C24.8359 14.8407 24.3074 13.9912 24.3074 13.0182C24.3074 11.5664 25.4843 10.3894 26.9362 10.3894V8.08594L26.9361 8.08601Z" fill="#4FE88E"/>
<path fill-rule="evenodd" clip-rule="evenodd" d="M26.9375 8.08618V10.3896C27.6634 10.3896 28.3206 10.6839 28.7964 11.1596L30.4251 9.53085C29.5326 8.63829 28.2995 8.08618 26.9375 8.08618Z" fill="#FDDB1E"/>
<path fill-rule="evenodd" clip-rule="evenodd" d="M30.4237 9.53076L28.7949 11.1595C29.2707 11.6352 29.5649 12.2924 29.5649 13.0184H31.8683C31.8683 11.6564 31.3163 10.4233 30.4237 9.53076Z" fill="#FB545C"/>
<path fill-rule="evenodd" clip-rule="evenodd" d="M31.8696 13.0183H29.5661C29.5661 14.4702 28.3892 15.6471 26.9373 15.6471C26.4757 15.6479 26.0222 15.5265 25.6227 15.2953L24.4707 17.2905C25.1963 17.7103 26.0386 17.9506 26.9372 17.9506C29.6612 17.9506 31.8695 15.7424 31.8695 13.0184L31.8696 13.0183Z" fill="#009EF9"/>
<path fill-rule="evenodd" clip-rule="evenodd" d="M18.9993 28.7537C22.2754 28.7537 25.0054 31.9102 25.6157 36.0951H12.3828C12.9931 31.9102 15.7232 28.7537 18.9993 28.7537Z" fill="#FDC72E"/>
<path fill-rule="evenodd" clip-rule="evenodd" d="M20.0012 28.8542C22.8198 29.4216 25.0688 32.3453 25.6157 36.0953H14.3867C14.9336 32.3453 17.1826 29.4216 20.0012 28.8542Z" fill="#FDDB1E"/>
<path d="M21.1285 26.5973C22.307 25.4188 22.307 23.508 21.1285 22.3294C19.9499 21.1509 18.0391 21.1509 16.8605 22.3294C15.682 23.508 15.682 25.4188 16.8605 26.5973C18.0391 27.7759 19.9499 27.7759 21.1285 26.5973Z" fill="#FFC186"/>
<path fill-rule="evenodd" clip-rule="evenodd" d="M19.8645 21.572C21.11 21.9437 22.0181 23.0977 22.0181 24.4641C22.0181 25.8305 21.11 26.9845 19.8645 27.3562C18.6191 26.9845 17.7109 25.8305 17.7109 24.4641C17.7109 23.0977 18.619 21.9438 19.8645 21.572Z" fill="#FDD7AD"/>
<path fill-rule="evenodd" clip-rule="evenodd" d="M28.593 28.7537C31.869 28.7537 34.5992 31.9102 35.2095 36.0951H21.9766C22.5869 31.9102 25.317 28.7537 28.593 28.7537Z" fill="#D93B43"/>
<path fill-rule="evenodd" clip-rule="evenodd" d="M29.595 28.8542C32.4136 29.4216 34.6625 32.3453 35.2095 36.0953H23.9805C24.5274 32.3453 26.7764 29.4216 29.595 28.8542Z" fill="#FB545C"/>
<path d="M29.29 27.3873C30.9118 27.0027 31.9147 25.3763 31.5302 23.7545C31.1456 22.1328 29.5192 21.1298 27.8974 21.5144C26.2756 21.8989 25.2727 23.5254 25.6573 25.1471C26.0418 26.7689 27.6683 27.7719 29.29 27.3873Z" fill="#FFC186"/>
<path fill-rule="evenodd" clip-rule="evenodd" d="M29.4582 21.572C30.7037 21.9437 31.6118 23.0977 31.6118 24.4641C31.6118 25.8305 30.7038 26.9845 29.4582 27.3562C28.2128 26.9845 27.3047 25.8305 27.3047 24.4641C27.3047 23.0977 28.2128 21.9438 29.4582 21.572Z" fill="#FDD7AD"/>
<path fill-rule="evenodd" clip-rule="evenodd" d="M9.40552 28.7537C12.6816 28.7537 15.4117 31.9102 16.022 36.0951H2.78906C3.39944 31.9102 6.1295 28.7537 9.40552 28.7537Z" fill="#2AAEB5"/>
<path fill-rule="evenodd" clip-rule="evenodd" d="M10.4075 28.8542C13.2261 29.4216 15.4751 32.3453 16.022 36.0953H4.79297C5.33989 32.3453 7.58886 29.4216 10.4075 28.8542Z" fill="#28B6BE"/>
<path d="M11.5367 26.5964C12.7152 25.4178 12.7152 23.507 11.5367 22.3284C10.3581 21.1499 8.44729 21.1499 7.26873 22.3284C6.09017 23.507 6.09017 25.4178 7.26873 26.5964C8.44729 27.7749 10.3581 27.7749 11.5367 26.5964Z" fill="#FFC186"/>
<path fill-rule="evenodd" clip-rule="evenodd" d="M10.2707 21.572C11.5162 21.9437 12.4243 23.0977 12.4243 24.4641C12.4243 25.8305 11.5163 26.9845 10.2707 27.3562C9.02525 26.9845 8.11719 25.8305 8.11719 24.4641C8.11719 23.0977 9.02525 21.9438 10.2707 21.572Z" fill="#FDD7AD"/>
</svg>
