<svg width="38" height="38" viewBox="0 0 38 38" fill="none" xmlns="http://www.w3.org/2000/svg">
<g clip-path="url(#clip0_518_1105)">
<path d="M26.9601 12.3694C26.8489 12.3694 26.7401 12.3364 26.6477 12.2746C26.5859 12.2335 26.5329 12.1806 26.4915 12.119C26.4502 12.0574 26.4214 11.9883 26.4068 11.9156C26.3922 11.8428 26.3921 11.7679 26.4064 11.6951C26.4208 11.6224 26.4493 11.5531 26.4904 11.4914L32.5915 2.32423C32.6326 2.26246 32.6854 2.20939 32.7471 2.16805C32.8087 2.12671 32.8778 2.09792 32.9506 2.08332C33.0233 2.06871 33.0982 2.06858 33.171 2.08293C33.2438 2.09729 33.313 2.12584 33.3748 2.16696C33.4366 2.20806 33.4896 2.26092 33.5309 2.32252C33.5723 2.38412 33.6011 2.45327 33.6157 2.526C33.6303 2.59873 33.6304 2.67363 33.6161 2.74641C33.6017 2.8192 33.5732 2.88844 33.5321 2.95019L27.431 12.1173C27.3794 12.1949 27.3094 12.2586 27.2273 12.3025C27.1451 12.3465 27.0533 12.3695 26.9601 12.3694ZM25.2961 12.807C25.2084 12.807 25.1219 12.7865 25.0436 12.7471L19.8031 10.1224C19.7368 10.0892 19.6777 10.0432 19.6291 9.98716C19.5805 9.93108 19.5435 9.86599 19.52 9.79559C19.4966 9.72519 19.4873 9.65087 19.4926 9.57688C19.498 9.50288 19.5178 9.43065 19.551 9.36433C19.5842 9.29798 19.6302 9.23882 19.6863 9.19024C19.7424 9.14166 19.8075 9.1046 19.8779 9.08119C19.9483 9.05778 20.0226 9.04846 20.0966 9.05379C20.1706 9.05911 20.2428 9.07896 20.3092 9.1122L25.5496 11.7369C25.6159 11.7701 25.6751 11.816 25.7237 11.8721C25.7722 11.9282 25.8093 11.9933 25.8327 12.0637C25.8561 12.1341 25.8654 12.2084 25.8601 12.2824C25.8548 12.3564 25.835 12.4286 25.8017 12.4949C25.7547 12.5888 25.6826 12.6677 25.5932 12.7228C25.5039 12.778 25.401 12.8071 25.2961 12.807ZM12.5754 16.0862C12.4637 16.0862 12.3545 16.0531 12.2616 15.9911C12.1687 15.929 12.0963 15.8409 12.0535 15.7377C12.0107 15.6345 11.9994 15.521 12.0212 15.4114C12.0429 15.3018 12.0966 15.2012 12.1755 15.1221L17.6225 9.6658C17.6749 9.61329 17.7372 9.57162 17.8057 9.54316C17.8742 9.51471 17.9476 9.50003 18.0218 9.49997C18.096 9.49991 18.1695 9.51446 18.2381 9.5428C18.3066 9.57114 18.3689 9.61271 18.4214 9.66513C18.4739 9.71754 18.5156 9.77978 18.544 9.8483C18.5725 9.91681 18.5872 9.99026 18.5872 10.0644C18.5873 10.1386 18.5727 10.2121 18.5444 10.2807C18.5161 10.3492 18.4745 10.4115 18.4221 10.464L12.9751 15.9204C12.9227 15.973 12.8604 16.0148 12.7918 16.0432C12.7232 16.0717 12.6496 16.0863 12.5754 16.0862ZM5.66693 20.0191C5.56292 20.0192 5.4609 19.9906 5.37213 19.9363C5.28337 19.8821 5.2113 19.8045 5.16387 19.7119C5.13 19.6459 5.10946 19.5739 5.10343 19.4999C5.0974 19.426 5.106 19.3516 5.12873 19.2809C5.15146 19.2103 5.18788 19.1449 5.2359 19.0883C5.28393 19.0318 5.34263 18.9852 5.40864 18.9514L10.1068 16.5411C10.1728 16.5072 10.2449 16.4866 10.3188 16.4806C10.3927 16.4746 10.4671 16.4832 10.5377 16.5059C10.6084 16.5286 10.6738 16.565 10.7304 16.613C10.7869 16.6611 10.8334 16.7197 10.8673 16.7858C10.9012 16.8518 10.9217 16.9238 10.9277 16.9977C10.9338 17.0717 10.9252 17.1461 10.9024 17.2167C10.8797 17.2873 10.8433 17.3528 10.7953 17.4093C10.7472 17.4659 10.6885 17.5124 10.6225 17.5463L5.92432 19.9566C5.84473 19.9977 5.75648 20.0191 5.66693 20.0191Z" fill="#B1DBFC"/>
<path d="M4.34447 21.8447C5.30921 21.8447 6.09128 21.0626 6.09128 20.0979C6.09128 19.1331 5.30921 18.3511 4.34447 18.3511C3.37973 18.3511 2.59766 19.1331 2.59766 20.0979C2.59766 21.0626 3.37973 21.8447 4.34447 21.8447Z" fill="#FF656F"/>
<path d="M11.6726 18.1743C12.6373 18.1743 13.4194 17.3922 13.4194 16.4275C13.4194 15.4627 12.6373 14.6807 11.6726 14.6807C10.7079 14.6807 9.92578 15.4627 9.92578 16.4275C9.92578 17.3922 10.7079 18.1743 11.6726 18.1743Z" fill="#FFA85D"/>
<path d="M19.0007 10.834C19.9655 10.834 20.7475 10.0519 20.7475 9.08714C20.7475 8.12241 19.9655 7.34033 19.0007 7.34033C18.036 7.34033 17.2539 8.12241 17.2539 9.08714C17.2539 10.0519 18.036 10.834 19.0007 10.834Z" fill="#FEE55A"/>
<path d="M26.3249 14.5044C27.2897 14.5044 28.0717 13.7223 28.0717 12.7576C28.0717 11.7928 27.2897 11.0107 26.3249 11.0107C25.3602 11.0107 24.5781 11.7928 24.5781 12.7576C24.5781 13.7223 25.3602 14.5044 26.3249 14.5044Z" fill="#43CB8E"/>
<path d="M33.6531 3.49362C34.6178 3.49362 35.3999 2.71155 35.3999 1.74681C35.3999 0.782075 34.6178 0 33.6531 0C32.6883 0 31.9062 0.782075 31.9062 1.74681C31.9062 2.71155 32.6883 3.49362 33.6531 3.49362Z" fill="#6FD2D0"/>
<path d="M4.50582 20.098C4.50582 19.4854 4.8214 18.9468 5.29855 18.635C5.01501 18.4493 4.68337 18.3506 4.34447 18.3511C3.3797 18.3511 2.59766 19.1331 2.59766 20.0979C2.59766 21.0627 3.37977 21.8447 4.34447 21.8447C4.69664 21.8447 5.02424 21.7401 5.29855 21.5608C4.82132 21.2491 4.50582 20.7106 4.50582 20.098Z" fill="#FF4756"/>
<path d="M11.8339 16.4276C11.8339 15.815 12.1495 15.2764 12.6267 14.9646C12.3431 14.7789 12.0115 14.6802 11.6726 14.6807C10.7078 14.6807 9.92578 15.4627 9.92578 16.4275C9.92578 17.3922 10.7078 18.1743 11.6726 18.1743C12.0248 18.1743 12.3524 18.0697 12.6267 17.8904C12.1495 17.5787 11.8339 17.0402 11.8339 16.4276Z" fill="#FF9839"/>
<path d="M19.1621 9.08722C19.1621 8.47462 19.4776 7.93609 19.9548 7.62422C19.6713 7.43858 19.3396 7.3399 19.0007 7.34033C18.0359 7.34033 17.2539 8.12238 17.2539 9.08715C17.2539 10.0519 18.036 10.834 19.0007 10.834C19.3529 10.834 19.6805 10.7294 19.9548 10.5501C19.4776 10.2384 19.1621 9.69975 19.1621 9.08722Z" fill="#FFD301"/>
<path d="M26.4863 12.7576C26.4863 12.145 26.8019 11.6065 27.279 11.2946C26.9955 11.109 26.6638 11.0103 26.3249 11.0107C25.3602 11.0107 24.5781 11.7928 24.5781 12.7576C24.5781 13.7223 25.3602 14.5044 26.3249 14.5044C26.6771 14.5044 27.0047 14.3998 27.279 14.2205C26.8018 13.9088 26.4863 13.3702 26.4863 12.7576Z" fill="#00BA66"/>
<path d="M33.8144 1.74681C33.8144 1.13421 34.13 0.595681 34.6071 0.283814C34.3236 0.0982325 33.992 -0.000416642 33.6531 1.32266e-06C32.6883 1.32266e-06 31.9062 0.782044 31.9062 1.74681C31.9062 2.71158 32.6884 3.49363 33.6531 3.49363C34.0052 3.49363 34.3328 3.38905 34.6071 3.20974C34.13 2.89795 33.8144 2.35942 33.8144 1.74681Z" fill="#28B6BE"/>
<path d="M6.23135 26.5635H2.45287C2.32758 26.5635 2.20742 26.6132 2.11883 26.7018C2.03024 26.7904 1.98047 26.9106 1.98047 27.0359V37.4349H6.70382V27.036C6.70378 26.9107 6.65399 26.7905 6.5654 26.7019C6.4768 26.6133 6.35664 26.5635 6.23135 26.5635Z" fill="#FF656F"/>
<path d="M13.5595 22.8936H9.781C9.65571 22.8936 9.53555 22.9433 9.44696 23.0319C9.35836 23.1205 9.30859 23.2407 9.30859 23.366V37.4352H14.0319V23.366C14.0319 23.2407 13.9822 23.1205 13.8936 23.0319C13.805 22.9433 13.6848 22.8936 13.5595 22.8936Z" fill="#FFA85D"/>
<path d="M20.8876 15.521H17.1091C17.0471 15.521 16.9857 15.5332 16.9283 15.557C16.871 15.5807 16.8189 15.6155 16.7751 15.6594C16.7312 15.7032 16.6964 15.7553 16.6727 15.8126C16.6489 15.8699 16.6367 15.9314 16.6367 15.9934V37.435H21.3601V15.9934C21.36 15.8681 21.3102 15.748 21.2216 15.6594C21.133 15.5708 21.0129 15.521 20.8876 15.521Z" fill="#FEE55A"/>
<path d="M28.2157 19.2231H24.4372C24.312 19.2231 24.1918 19.2729 24.1032 19.3615C24.0146 19.4501 23.9648 19.5703 23.9648 19.6955V37.4349H28.6882V19.6955C28.6882 19.5703 28.6384 19.4501 28.5498 19.3615C28.4612 19.2729 28.341 19.2232 28.2157 19.2231Z" fill="#43CB8E"/>
<path d="M35.5438 8.16113H31.7654C31.6401 8.16113 31.5199 8.2109 31.4313 8.2995C31.3427 8.38809 31.293 8.50825 31.293 8.63353V37.4352H36.0163V8.63361C36.0163 8.5083 35.9665 8.38812 35.8779 8.29952C35.7893 8.21091 35.6692 8.16113 35.5438 8.16113Z" fill="#6FD2D0"/>
<path d="M5.35564 26.5635H2.45287C2.39083 26.5635 2.32941 26.5757 2.27209 26.5994C2.21478 26.6232 2.1627 26.658 2.11883 26.7018C2.07497 26.7457 2.04017 26.7978 2.01643 26.8551C1.99269 26.9124 1.98047 26.9738 1.98047 27.0359V37.4349H4.88331V27.036C4.8833 26.9739 4.89551 26.9125 4.91924 26.8552C4.94297 26.7978 4.97776 26.7458 5.02162 26.7019C5.06548 26.658 5.11756 26.6232 5.17487 26.5995C5.23218 26.5757 5.2936 26.5635 5.35564 26.5635Z" fill="#FF4756"/>
<path d="M12.6838 22.8936H9.781C9.65571 22.8936 9.53555 22.9433 9.44696 23.0319C9.35836 23.1205 9.30859 23.2407 9.30859 23.366V37.4352H12.2114V23.366C12.2114 23.304 12.2236 23.2426 12.2474 23.1852C12.2711 23.1279 12.3059 23.0758 12.3498 23.0319C12.3936 22.9881 12.4457 22.9533 12.503 22.9295C12.5604 22.9058 12.6218 22.8936 12.6838 22.8936Z" fill="#FF9839"/>
<path d="M20.012 15.521H17.1091C17.0471 15.521 16.9857 15.5332 16.9283 15.557C16.871 15.5807 16.8189 15.6155 16.7751 15.6594C16.7312 15.7032 16.6964 15.7553 16.6727 15.8126C16.6489 15.8699 16.6367 15.9314 16.6367 15.9934V37.435H19.5396V15.9934C19.5396 15.9314 19.5518 15.8699 19.5755 15.8126C19.5992 15.7553 19.634 15.7032 19.6779 15.6593C19.7218 15.6155 19.7739 15.5807 19.8312 15.5569C19.8885 15.5332 19.9499 15.521 20.012 15.521Z" fill="#FFD301"/>
<path d="M27.34 19.2231H24.4372C24.312 19.2231 24.1918 19.2729 24.1032 19.3615C24.0146 19.4501 23.9648 19.5703 23.9648 19.6955V37.4349H26.8677V19.6955C26.8677 19.6335 26.8799 19.5721 26.9036 19.5148C26.9274 19.4575 26.9621 19.4054 27.006 19.3615C27.0499 19.3176 27.1019 19.2828 27.1592 19.2591C27.2166 19.2354 27.278 19.2231 27.34 19.2231Z" fill="#00BA66"/>
<path d="M34.6682 8.16113H31.7654C31.6401 8.16113 31.5199 8.2109 31.4313 8.2995C31.3427 8.38809 31.293 8.50825 31.293 8.63353V37.4352H34.1958V8.63361C34.1958 8.50831 34.2456 8.38815 34.3342 8.29954C34.4228 8.21094 34.5429 8.16115 34.6682 8.16113Z" fill="#28B6BE"/>
<path d="M37.2805 37.9999H0.717223C0.405207 37.9999 0.152344 37.7471 0.152344 37.435C0.152344 37.1229 0.405281 36.8701 0.717223 36.8701H37.2805C37.5925 36.8701 37.8454 37.123 37.8454 37.435C37.8454 37.747 37.5925 37.9999 37.2805 37.9999Z" fill="#6FD2D0"/>
</g>
<defs>
<clipPath id="clip0_518_1105">
<rect width="38" height="38" fill="white"/>
</clipPath>
</defs>
</svg>
