<svg width="38" height="38" viewBox="0 0 38 38" fill="none" xmlns="http://www.w3.org/2000/svg">
<g clip-path="url(#clip0_518_1169)">
<path d="M31.2515 17.7144C24.9111 27.2739 3.87504 26.6485 11.248 18.8215C15.8586 16.1093 21.8906 13.1237 27.3431 12.1935C29.134 11.8882 30.4027 11.4349 31.0753 14.4461C31.2559 15.2538 31.3456 16.3168 31.2515 17.7144Z" fill="#0A6375"/>
<path d="M27.8479 15.7699C26.2488 19.7855 20.8773 20.7025 17.1896 20.9834C14.5263 18.0631 21.7454 12.5776 22.7599 12.3453C23.7742 12.113 28.6053 14.2846 27.8479 15.7699Z" fill="#9EFAFF"/>
<path d="M29.6675 14.2943C29.5292 15.6185 28.99 16.296 27.8476 15.77C27.5125 15.3903 27.0438 14.8461 26.5827 14.2655C25.7423 15.0474 23.6947 16.461 20.7697 15.2498C19.0058 16.8455 17.3419 18.8832 17.1893 20.9835C16.131 22.71 13.7686 22.8981 13.0634 20.4978C12.964 19.9861 13.1667 19.249 13.7122 18.264C16.3883 13.432 26.0272 6.5376 26.0272 6.5376C26.0272 6.5376 27.8338 12.0754 29.6675 14.2943Z" fill="#28B6BE"/>
<path d="M32.3495 18.9287L15.8684 29.0233C15.837 28.7967 13.3338 23.5105 13.0645 20.4975C13.7943 23.3305 25.4906 18.2438 29.6685 14.294C30.5795 13.4328 31.6604 11.7157 31.8902 11.0391C32.7158 11.9566 32.7088 15.5352 32.3495 18.9287Z" fill="#38D8E1"/>
<path d="M32.9466 33.5507C31.1473 34.3305 28.6831 35.2686 26.0763 36.0898C23.7159 36.8335 21.2389 37.4818 19.0345 37.831C15.5135 38.3887 12.6249 37.5245 11.6225 35.8473C10.174 33.4232 9.37166 29.9847 9.08706 26.9038C8.51631 20.714 9.65275 19.762 11.2473 18.8213C10.7331 19.4873 10.3838 20.2376 10.3918 21.0427C10.4348 25.2311 27.3416 19.5646 31.2508 17.7142C33.3736 16.7083 34.5459 16.1681 35.267 18.8567C36.7718 19.9348 36.0314 24.8077 36.1885 26.7591C36.5823 31.1229 36.6397 31.9494 32.9466 33.5507Z" fill="#0A6375"/>
<path d="M36.1885 26.7588C34.6269 27.711 32.2874 28.036 30.0078 26.9851C31.3951 25.817 31.478 24.0936 33.3422 22.8785C35.5895 21.4138 35.8626 21.0602 35.267 18.8564C38.2612 20.2251 38.9212 25.0925 36.1885 26.7588Z" fill="#0A6375"/>
<path d="M34.8145 26.2305C35.5611 25.8472 35.9398 25.0954 35.6605 24.5514C35.3811 24.0074 34.5495 23.8771 33.8029 24.2605C33.0564 24.6438 32.6776 25.3956 32.957 25.9396C33.2363 26.4836 34.068 26.6139 34.8145 26.2305Z" fill="#F0E3E7"/>
<path d="M19.4399 15.0193C18.9893 15.6412 18.4025 16.1456 17.6941 16.4778C15.1133 17.6873 11.9025 16.1488 10.5232 13.0425C9.14382 9.93612 10.1175 6.43717 12.6974 5.2276C13.2835 4.95336 13.9021 4.81951 14.5249 4.81543C15.7556 9.34284 16.0291 11.5366 19.4399 15.0193Z" fill="#F6C719"/>
<path d="M19.4404 15.0194C16.9462 17.6638 13.3558 15.5238 11.9716 12.535C10.651 9.6849 11.5317 5.46282 14.5254 4.81559C16.6434 4.79764 18.803 6.26186 19.8689 8.66223C20.8695 10.9165 20.632 13.3765 19.4404 15.0194Z" fill="#F6D14F"/>
<path d="M18.0355 14.4075C19.5312 13.7781 20.0098 11.5237 19.1044 9.37214C18.1991 7.22054 16.2527 5.9865 14.757 6.61585C13.2613 7.24519 12.7827 9.49959 13.6881 11.6512C14.5934 13.8028 16.5398 15.0368 18.0355 14.4075Z" fill="#F6C719"/>
<path d="M15.5342 8.02979C15.6603 8.28149 16.1419 9.61374 15.168 10.6736C16.9014 11.0616 17.689 12.3359 17.824 12.5834C17.7 12.3358 17.0635 10.8525 18.0376 9.79272C16.3065 9.40969 15.6715 8.28174 15.5342 8.02979Z" fill="#0A6375"/>
<path d="M13.9365 3.00395C13.9017 3.00393 13.8678 2.99277 13.8398 2.97211C13.8117 2.95145 13.791 2.92237 13.7807 2.88911C13.4898 1.95214 13.0537 1.06659 12.4847 0.257108C12.4717 0.239611 12.4624 0.219692 12.4572 0.198524C12.452 0.177357 12.4512 0.155369 12.4546 0.133857C12.4581 0.112345 12.4658 0.0917442 12.4774 0.0732697C12.4889 0.0547952 12.5041 0.0388205 12.5219 0.0262876C12.5397 0.0137546 12.5599 0.00491695 12.5812 0.000295642C12.6025 -0.00432567 12.6245 -0.0046371 12.6459 -0.0006203C12.6673 0.0033965 12.6877 0.0116602 12.7059 0.0236837C12.724 0.0357072 12.7396 0.0512471 12.7517 0.0693872C13.3403 0.906784 13.7914 1.82286 14.0925 2.79239C14.1001 2.81682 14.1018 2.84269 14.0975 2.86791C14.0933 2.89313 14.0831 2.91699 14.068 2.93758C14.0528 2.95817 14.033 2.9749 14.0101 2.98642C13.9873 2.99795 13.9621 3.00395 13.9365 3.00395ZM10.5562 4.84402C10.5325 4.84406 10.5092 4.83896 10.4877 4.82906C10.4663 4.81917 10.4472 4.80472 10.4319 4.78672C7.23204 1.03704 1.50143 0.443849 0.254311 0.497716C0.232892 0.498669 0.211494 0.495389 0.191344 0.488063C0.171193 0.480737 0.152685 0.469509 0.136879 0.455022C0.121073 0.440535 0.108279 0.423073 0.0992288 0.403635C0.090179 0.384198 0.0850511 0.363167 0.0841387 0.341745C0.0822578 0.298496 0.0976332 0.256272 0.126883 0.224359C0.156133 0.192445 0.196861 0.173458 0.24011 0.171572C2.26096 0.0840784 7.69057 1.07141 10.6803 4.57484C10.7005 4.59856 10.7136 4.62759 10.7178 4.65847C10.7221 4.68936 10.7174 4.72083 10.7043 4.74914C10.6913 4.77746 10.6704 4.80144 10.6441 4.81825C10.6179 4.83507 10.5873 4.84401 10.5562 4.84402ZM8.93834 8.13606C8.91328 8.13606 8.8879 8.13027 8.86407 8.11802C7.37544 7.35514 4.7969 6.92404 2.02411 8.00221C2.00407 8.01028 1.98262 8.0143 1.96102 8.01402C1.93942 8.01374 1.91808 8.00918 1.89826 8.0006C1.87843 7.99202 1.8605 7.97958 1.84552 7.96402C1.83053 7.94846 1.81879 7.93007 1.81096 7.90994C1.80313 7.8898 1.79938 7.86831 1.79992 7.84671C1.80046 7.82511 1.80529 7.80383 1.81411 7.78411C1.82294 7.76439 1.83559 7.74662 1.85134 7.73183C1.86708 7.71704 1.88561 7.70552 1.90584 7.69794C4.77911 6.58051 7.46106 7.03218 9.01294 7.82746C9.0456 7.84415 9.07169 7.87135 9.087 7.90468C9.10231 7.93801 9.10595 7.97553 9.09733 8.01118C9.08872 8.04683 9.06834 8.07854 9.0395 8.1012C9.01065 8.12385 8.97502 8.13613 8.93834 8.13606Z" fill="#F6C719"/>
</g>
<defs>
<clipPath id="clip0_518_1169">
<rect width="38" height="38" fill="white"/>
</clipPath>
</defs>
</svg>
