<svg width="38" height="38" viewBox="0 0 38 38" fill="none" xmlns="http://www.w3.org/2000/svg">
<path d="M15.779 9.78766C15.779 9.14857 15.6811 8.52675 15.5026 7.94523L17.155 6.88008L15.2896 3.97251L13.6314 5.03766C12.9194 4.41672 12.0803 3.95886 11.1729 3.69614V1.72705H7.71835V3.69614C6.79714 3.95523 5.96229 4.4216 5.25986 5.03766L3.60168 3.97251L1.73047 6.88008L3.38289 7.94523C3.21017 8.52675 3.11229 9.14857 3.11229 9.78766C3.11229 10.4267 3.21017 11.0486 3.38865 11.6301L1.73047 12.6952L3.60168 15.6028L5.25986 14.5377C5.96229 15.1537 6.79714 15.6201 7.71835 15.8792V17.8483H11.1729V15.8792C12.0941 15.6201 12.929 15.1537 13.6314 14.5377L15.2896 15.6028L17.1608 12.6952L15.5083 11.6301C15.6811 11.0486 15.779 10.4267 15.779 9.78766ZM9.44562 13.2422C7.53986 13.2422 5.99108 11.6934 5.99108 9.78766C5.99108 7.8819 7.53986 6.33311 9.44562 6.33311C11.3514 6.33311 12.9002 7.8819 12.9002 9.78766C12.9002 11.6934 11.3514 13.2422 9.44562 13.2422Z" fill="#8ABA55"/>
<path d="M34.8922 28.212C34.8922 27.5729 34.7944 26.9511 34.6159 26.3695L36.2741 25.3044L34.4028 22.3968L32.7447 23.462C32.0356 22.8369 31.1955 22.3785 30.2862 22.1205V20.1514H26.8316V22.1205C25.9104 22.3795 25.0756 22.8459 24.3731 23.462L22.715 22.3968L20.8438 25.3044L22.4962 26.3695C22.1281 27.5703 22.1281 28.8537 22.4962 30.0544L20.8438 31.1195L22.715 34.0271L24.3731 32.962C25.0756 33.578 25.9104 34.0444 26.8316 34.3035V36.2726H30.2862V34.3035C31.2074 34.0444 32.0422 33.578 32.7447 32.962L34.4028 34.0271L36.2741 31.1195L34.6216 30.0544C34.7944 29.4729 34.8922 28.8511 34.8922 28.212ZM28.5589 31.6665C26.6531 31.6665 25.1044 30.1177 25.1044 28.212C25.1044 26.3062 26.6531 24.7574 28.5589 24.7574C30.4647 24.7574 32.0134 26.3062 32.0134 28.212C32.0134 30.1177 30.4704 31.6665 28.5589 31.6665Z" fill="#28B6BE"/>
<path d="M10.377 20.8942C10.6016 21.9305 11.0104 22.8978 11.5631 23.7615L10.1698 25.6442L12.3577 27.8321L14.2404 26.4387C15.104 26.9915 16.0713 27.4002 17.1077 27.6248L17.4531 29.9393H20.5449L20.8904 27.6248C21.9267 27.4002 22.894 26.9915 23.7577 26.4387L25.6404 27.8321L27.8283 25.6442L26.4349 23.7615C26.9877 22.8978 27.3964 21.9305 27.621 20.8942L29.9355 20.5487V17.4569L27.621 17.1115C27.3964 16.0751 26.9877 15.1078 26.4349 14.2442L27.8283 12.3615L25.6404 10.1736L23.7577 11.5669C22.894 11.0142 21.9267 10.6054 20.8904 10.3809L20.5507 8.06055H17.4589L17.1134 10.3751C16.077 10.5996 15.1098 11.0084 14.2461 11.5612L12.3634 10.1678L10.1755 12.3557L11.5689 14.2384C11.0161 15.1021 10.6073 16.0693 10.3828 17.1057L8.0625 17.4512V20.543L10.377 20.8942ZM14.8277 18.9999C14.8277 16.6912 16.6989 14.8257 19.0019 14.8257C21.3107 14.8257 23.1761 16.6969 23.1761 18.9999C23.1761 21.303 21.3049 23.1742 19.0019 23.1742C16.6931 23.1742 14.8277 21.3087 14.8277 18.9999Z" fill="#FFAB03"/>
<path opacity="0.3" d="M26.4401 14.2384L27.8335 12.3557L25.6456 10.1678L23.7629 11.5612C22.8992 11.0084 21.932 10.5996 20.8956 10.3751L20.5501 8.06055H17.4583L17.1129 10.3751C16.0765 10.5996 15.1092 11.0084 14.2456 11.5612L13.9059 11.3136C13.4497 13.6111 13.8165 15.9958 14.9423 18.0499C15.1752 17.0524 15.7669 16.1753 16.6046 15.5858C17.4423 14.9962 18.4676 14.7352 19.4852 14.8525C20.5029 14.9699 21.4419 15.4573 22.1234 16.2221C22.805 16.9869 23.1815 17.9755 23.1813 18.9999C23.1813 20.6984 22.168 22.1493 20.7171 22.8057C21.6729 23.1109 22.692 23.2721 23.7513 23.2721C24.8913 23.2721 25.9853 23.0705 27.0044 22.7251C27.275 22.1436 27.4938 21.5333 27.632 20.8884L29.9465 20.543V17.4512L27.632 17.1057C27.4016 16.0693 26.9929 15.1021 26.4401 14.2384Z" fill="white"/>
<path d="M37.1552 17.5431C37.0739 17.4628 36.9643 17.4178 36.85 17.4178C36.7358 17.4178 36.6261 17.4628 36.5449 17.5431L35.543 18.545C35.3012 9.62647 27.9776 2.44678 19.0015 2.44678C18.7655 2.44678 18.5697 2.64253 18.5697 2.8786C18.5697 3.11466 18.7655 3.31041 19.0015 3.31041C27.4939 3.31041 34.4261 10.0928 34.6794 18.5219L33.7006 17.5431C33.5336 17.3762 33.2573 17.3762 33.0903 17.5431C32.9233 17.7101 32.9233 17.9865 33.0903 18.1534L34.8176 19.8807C34.9039 19.9671 35.0133 20.0074 35.1227 20.0074C35.2321 20.0074 35.3415 19.9671 35.4279 19.8807L37.1552 18.1534C37.3221 17.9865 37.3221 17.7101 37.1552 17.5431ZM19.0015 34.6892C10.5091 34.6892 3.57697 27.9068 3.32364 19.4777L4.30243 20.4565C4.38879 20.5428 4.49819 20.5831 4.60758 20.5831C4.71697 20.5831 4.82637 20.5428 4.91273 20.4565C5.0797 20.2895 5.0797 20.0131 4.91273 19.8462L3.18546 18.1189C3.1042 18.0386 2.99456 17.9936 2.88031 17.9936C2.76606 17.9936 2.65642 18.0386 2.57516 18.1189L0.847884 19.8462C0.680914 20.0131 0.680914 20.2895 0.847884 20.4565C1.01485 20.6234 1.29122 20.6234 1.45819 20.4565L2.46 19.4547C2.70182 28.3731 10.0255 35.5528 19.0015 35.5528C19.2376 35.5528 19.4333 35.3571 19.4333 35.121C19.4333 34.885 19.2376 34.6892 19.0015 34.6892Z" fill="#4E6575"/>
</svg>
