<svg width="38" height="38" viewBox="0 0 38 38" fill="none" xmlns="http://www.w3.org/2000/svg">
<path d="M25.594 36.7449H11.6301C9.92794 36.7449 8.87679 34.8863 9.75358 33.4283L13.3552 27.4215L13.6402 26.9448L14.8886 27.0901L20.6277 27.7641L21.2436 27.8395L20.4768 30.1167L20.4416 30.2268L19.576 32.7884L25.8846 35.1936C26.715 35.5071 26.4881 36.7449 25.594 36.7449Z" fill="#28B6BE"/>
<path d="M20.7152 26.3413L20.6281 27.7646L20.4772 30.1173L20.4716 30.2156L20.442 30.2274L9.75391 33.4283L13.3555 27.4215C13.4371 27.3634 13.5176 27.3109 13.5992 27.2589L14.8889 27.0901L20.7152 26.3413Z" fill="#1D5166"/>
<path d="M32.7294 7.28031C33.8917 7.3524 34.8015 8.38845 34.8015 9.63407V18.5188C34.7984 21.57 34.6593 24.6196 34.3846 27.6584C34.2812 28.7917 33.4162 29.6802 32.355 29.7579C23.0025 30.4407 13.222 30.3815 3.11006 29.7506C1.94827 29.678 1.03906 28.6419 1.03906 27.3968V18.5194C1.04465 15.4458 1.17989 12.398 1.45147 9.3759C1.55374 8.24092 2.41824 7.35016 3.48168 7.27248C12.833 6.59072 22.618 6.65554 32.7294 7.28087V7.28031Z" fill="#41B2B1"/>
<path d="M18.3871 26.3568C13.5666 26.3568 8.46235 26.1908 3.215 25.8633C2.9395 25.8466 2.70703 25.5303 2.70703 25.1738V18.5182C2.71262 15.4815 2.84953 12.4549 3.11274 9.52446C3.14124 9.21152 3.35694 8.95278 3.60394 8.9349C7.98959 8.6147 12.6345 8.45264 17.4108 8.45264C22.2323 8.45264 27.3523 8.61805 32.6276 8.9444C32.9025 8.96117 33.135 9.2769 33.135 9.63399V18.5187C33.1294 21.566 32.9914 22.3679 32.7254 25.2838C32.6974 25.5951 32.4811 25.8538 32.2347 25.8717C27.8278 26.1936 23.1689 26.3568 18.3871 26.3568Z" fill="white"/>
<path d="M17.9204 28.8143C20.6336 28.8143 22.8331 28.5721 22.8331 28.2734C22.8331 27.9746 20.6336 27.7324 17.9204 27.7324C15.2073 27.7324 13.0078 27.9746 13.0078 28.2734C13.0078 28.5721 15.2073 28.8143 17.9204 28.8143Z" fill="#28B6BE"/>
<path d="M31.0148 20.7433C30.903 21.7156 30.1151 22.4645 29.1371 22.5036C22.8727 22.755 11.8862 22.8109 7.70065 22.6377C6.73947 22.5986 5.96271 21.8721 5.82859 20.9221C5.14683 16.0827 5.16359 11.2209 5.83418 6.33122C5.96271 5.3924 6.72271 4.66593 7.66712 4.60446C14.8424 4.17416 22.0121 4.17416 29.1818 4.60446C30.1374 4.66034 30.9086 5.40916 31.0204 6.35916C31.5959 11.0924 31.5792 15.8871 31.0148 20.7433Z" fill="#E0860E"/>
<path d="M30.0851 20.7433C29.9733 21.7156 29.1854 22.4645 28.2074 22.5036C21.943 22.755 10.9566 22.8109 6.77096 22.6377C5.81537 22.5986 5.03861 21.8721 4.8989 20.9221C4.21714 16.0827 4.2339 11.2209 4.90449 6.33122C5.03302 5.3924 5.79302 4.66593 6.74302 4.60446C13.9127 4.17416 21.0824 4.17416 28.2521 4.60446C29.2133 4.66034 29.9789 5.40916 30.0963 6.35916C30.6663 11.0924 30.6495 15.8871 30.0851 20.7433Z" fill="#FBAD3E"/>
<path d="M14.0737 17.1814C10.9521 17.1814 8.38371 17.1467 6.84136 17.083C6.69495 17.0774 6.57647 16.9601 6.55356 16.798C5.90253 12.1989 5.90421 11.3355 6.55747 6.56036C6.57927 6.4011 6.69886 6.27983 6.84247 6.27145C10.3821 6.0591 13.9719 5.95068 17.5115 5.95068C21.0433 5.95068 24.6242 6.05798 28.1554 6.26977C28.3007 6.27871 28.4209 6.40054 28.4404 6.55924C28.9881 11.0818 28.9853 11.8994 28.4321 16.6622C28.4136 16.8215 28.2924 16.9416 28.1432 16.9472C24.5779 17.0919 19.1863 17.1814 14.0737 17.1814Z" fill="#FA990E"/>
<path d="M20.561 12.6351C19.3428 13.5471 18.0491 14.3004 16.6727 14.8682C15.9004 15.1844 15.0169 14.6916 14.8677 13.8639C14.5984 12.2545 14.5704 10.7099 14.8213 9.24024C14.9705 8.40312 15.882 7.93818 16.6543 8.28242C17.9563 8.84962 19.24 9.58448 20.5236 10.4965C21.2495 11.0078 21.2774 12.1053 20.561 12.6351Z" fill="#B53016"/>
<path d="M20.559 12.6314C19.3408 13.5423 18.0477 14.2967 16.6707 14.8639C15.8984 15.1796 15.0149 14.6867 14.8657 13.8591C14.8023 13.5082 14.7559 13.1544 14.7266 12.799C15.1843 12.9724 15.6699 13.0605 16.1594 13.0589C18.0661 13.0589 19.6381 11.7384 19.8521 10.0356C20.0756 10.1849 20.2992 10.3335 20.5221 10.4916C21.2475 11.0035 21.2754 12.1011 20.559 12.6314Z" fill="#912010"/>
<path d="M7.50447 20.1043C9.16305 19.8741 10.8216 19.7539 12.4802 19.6723C14.1388 19.5829 15.7974 19.56 17.456 19.5488C19.1146 19.5583 20.7732 19.5824 22.4318 19.6707C24.0903 19.7517 25.7495 19.8724 27.4081 20.1043C25.7495 20.3351 24.0903 20.4564 22.4318 20.5379C20.7732 20.6262 19.1146 20.6497 17.456 20.6592C15.7974 20.648 14.1388 20.6246 12.4802 20.5363C10.8216 20.4547 9.16305 20.334 7.50391 20.1043H7.50447Z" fill="white"/>
<path d="M16.9855 19.5547C15.4839 19.5675 13.9818 19.5916 12.4802 19.672C10.8216 19.7536 9.16305 19.8732 7.50391 20.104C9.16305 20.3331 10.8216 20.4544 12.4802 20.536C13.9818 20.6159 15.4839 20.6405 16.9855 20.6528V19.5547Z" fill="#B53016"/>
<path d="M17.7248 20.1048C17.7248 20.3104 17.6912 20.5217 17.608 20.7329C17.5186 20.9386 17.4023 21.1498 17.1687 21.3554C16.9357 21.1498 16.8239 20.9386 16.7351 20.7329C16.5727 20.3299 16.5727 19.8797 16.7351 19.4767C16.8245 19.266 16.9407 19.0598 17.1687 18.8491C17.4023 19.0598 17.5191 19.266 17.608 19.4767C17.6862 19.6879 17.7248 19.8936 17.7248 20.1048Z" fill="#B53016"/>
<path d="M25.3543 3.14941L24.3641 7.44341C24.2825 7.79715 24.5094 8.1548 24.9414 8.49624C25.1537 8.66277 25.4164 8.82762 25.7176 8.98241C25.95 9.102 26.2032 9.2188 26.4759 9.32944C27.432 9.7195 28.5972 10.038 29.7137 10.2236C31.7244 10.5605 33.5752 10.4745 33.7736 9.61388L34.7638 5.31988L25.3543 3.14941Z" fill="#3A3A3A"/>
<path d="M23.3404 2.82866L29.0024 6.73428C29.2708 6.9187 29.5991 6.99439 29.9211 6.94607L36.7153 5.91393C36.7727 5.90518 36.8262 5.87939 36.8688 5.8399C36.9114 5.80041 36.9412 5.74904 36.9542 5.69244C36.9673 5.63584 36.9631 5.57662 36.9421 5.52245C36.9211 5.46828 36.8843 5.42166 36.8366 5.38863L31.1841 1.4819C30.9158 1.29529 30.586 1.21924 30.2631 1.26954L23.4622 2.30057C23.4045 2.30944 23.3508 2.33541 23.3081 2.37512C23.2653 2.41483 23.2354 2.46645 23.2223 2.52332C23.2092 2.58019 23.2134 2.63969 23.2345 2.69412C23.2555 2.74855 23.2924 2.79542 23.3404 2.82866Z" fill="#51504F"/>
<path d="M28.9198 3.83558C28.8561 4.11219 29.3289 4.45755 29.9743 4.60675C30.6192 4.7554 31.1942 4.65146 31.2579 4.3754C31.3216 4.09878 30.85 3.75566 30.2046 3.60702C29.5597 3.45837 28.9835 3.55952 28.9193 3.83613L28.9198 3.83558Z" fill="#2D2D2D"/>
<path d="M30.0898 4.10749C30.3402 4.33437 30.5984 4.54952 30.8582 4.76355C31.6028 5.3693 32.3672 5.95042 33.15 6.50596C33.0661 6.85243 32.9935 7.19723 32.9153 7.54537C32.8308 7.93752 32.7507 8.33058 32.675 8.72449C32.5246 9.51243 32.39 10.3037 32.3017 11.1056C32.5738 10.3456 32.7973 9.57446 33.0097 8.80105C33.1125 8.41379 33.2153 8.02596 33.3098 7.63646C33.402 7.2464 33.4981 6.8597 33.5819 6.4674L33.583 6.46126C33.5907 6.42216 33.587 6.38167 33.5724 6.34462C33.5577 6.30756 33.5327 6.2755 33.5003 6.25226C32.9491 5.86875 32.3898 5.49705 31.8228 5.1374C31.5417 4.95523 31.2539 4.78255 30.9666 4.60764C30.6786 4.4335 30.3862 4.2671 30.0898 4.10749Z" fill="#D1DAFE"/>
<path d="M31.4885 11.5738C31.4047 11.9371 32.7397 12.2444 32.823 11.8818L32.9247 9.97337C33.0435 9.92362 33.1435 9.83749 33.2102 9.72737C33.277 9.61724 33.3072 9.48878 33.2964 9.36045C33.2856 9.23211 33.2344 9.11051 33.1501 9.01309C33.0659 8.91568 32.9529 8.84748 32.8275 8.81828C32.7017 8.78833 32.5696 8.79929 32.4505 8.84958C32.3314 8.89987 32.2314 8.98685 32.1652 9.09788C32.0989 9.20891 32.0698 9.33819 32.0821 9.4669C32.0943 9.59562 32.1474 9.71706 32.2334 9.81355L31.4885 11.5738ZM22.4378 36.5533C21.675 36.5018 21.0341 35.919 20.9569 35.1562C20.8737 34.4087 20.8737 33.6544 20.9569 32.9069C21.0341 32.1503 21.675 31.5674 22.4311 31.516C26.5714 31.2534 30.8269 31.2785 35.1913 31.5479C35.6339 31.5736 35.9289 32.0156 35.8066 32.4453C35.4989 33.4848 35.4989 34.5912 35.8066 35.6306C35.9284 36.0598 35.64 36.4957 35.1974 36.5275C30.942 36.8098 26.6933 36.8165 22.4378 36.5533Z" fill="#B53016"/>
<path d="M22.7001 35.8415C22.2575 35.8158 21.8926 35.4699 21.8473 35.0536C21.8117 34.715 21.7949 34.3747 21.7971 34.0343C21.7971 33.6945 21.8088 33.3547 21.8473 33.015C21.8926 32.5925 22.2575 32.2589 22.7001 32.227C26.5197 31.9834 30.6214 31.9962 34.8959 32.2589C34.9216 32.2589 34.935 32.2913 34.935 32.317C34.8512 32.6115 34.7869 32.8999 34.7489 33.1944L34.7293 33.3167C34.6975 33.5537 34.6846 33.7973 34.6846 34.0343C34.6846 34.2779 34.6975 34.5216 34.7361 34.7585C34.7361 34.8032 34.7422 34.8423 34.7489 34.8803C34.7869 35.1687 34.8512 35.457 34.935 35.7392V35.7582C34.935 35.7772 34.9283 35.8158 34.8959 35.8158C30.8651 36.0852 26.7633 36.0913 22.7001 35.8415Z" fill="white"/>
<path d="M29.2072 33.5794C27.1887 33.5666 25.1636 33.509 23.1445 33.2587C25.1636 33.0022 27.1887 32.9446 29.2078 32.9385C31.0597 32.9446 32.9055 32.9899 34.7513 33.195C34.7446 33.233 34.7384 33.2715 34.7317 33.3168C32.8926 33.5219 31.053 33.5666 29.2072 33.5794ZM29.2072 35.1369C27.1887 35.1302 25.1636 35.0726 23.1445 34.8161C25.1636 34.5663 27.1887 34.5088 29.2078 34.5021C31.053 34.5088 32.8988 34.5535 34.7384 34.7591C34.7384 34.8038 34.7446 34.8418 34.7513 34.8804C32.9055 35.0855 31.0591 35.1302 29.2072 35.1369Z" fill="#D1DAFE"/>
<path d="M35.3811 31.1402C36.1439 31.0888 36.7849 30.5054 36.862 29.7431C36.9453 28.9955 36.9453 28.2409 36.862 27.4933C36.7849 26.7372 36.1439 26.1538 35.3879 26.1024C31.2475 25.8398 26.9921 25.8655 22.6277 26.1343C22.1851 26.16 21.89 26.6026 22.0124 27.0317C22.3198 28.089 22.3198 29.153 22.0124 30.217C21.8906 30.6462 22.1789 31.0821 22.6215 31.1145C26.877 31.3961 31.1257 31.4028 35.3811 31.1402Z" fill="#AEC46E"/>
<path d="M35.1177 30.4289C35.5597 30.4032 35.9252 30.0567 35.9705 29.641C36.0085 29.2945 36.0208 28.9547 36.0208 28.6211C36.0208 28.2819 36.0085 27.9421 35.9705 27.6024C35.9252 27.1794 35.5597 26.8463 35.1177 26.8144C31.2981 26.5708 27.1964 26.5836 22.9219 26.8463C22.8962 26.8463 22.8828 26.8781 22.8828 26.9039C22.9666 27.1984 23.0303 27.4867 23.0689 27.7818L23.0885 27.9036C23.1203 28.1405 23.1332 28.3842 23.1332 28.6211C23.1332 28.8648 23.1203 29.1084 23.0818 29.3459C23.0818 29.3906 23.0756 29.4286 23.0689 29.4672C23.0293 29.7579 22.9671 30.0451 22.8828 30.3261V30.3451C22.8828 30.3646 22.8895 30.4032 22.9219 30.4032C26.9527 30.672 31.0545 30.6787 35.1177 30.4289Z" fill="white"/>
<path d="M28.6144 28.1664C30.6329 28.1535 32.658 28.096 34.6771 27.8462C32.658 27.5891 30.6329 27.5321 28.6138 27.5254C26.7619 27.5321 24.9161 27.5768 23.0703 27.7819L23.0899 27.9037C24.929 28.1088 26.7686 28.1535 28.6144 28.1664ZM28.6144 29.7238C30.6329 29.7177 32.658 29.6595 34.6771 29.4036C32.658 29.1532 30.6329 29.0962 28.6138 29.0895C26.7686 29.0957 24.9223 29.1404 23.0832 29.346C23.0832 29.3907 23.077 29.4287 23.0703 29.4673C24.9161 29.6724 26.7625 29.7177 28.6144 29.7238Z" fill="#D1DAFE"/>
</svg>
