<svg width="38" height="38" viewBox="0 0 38 38" fill="none" xmlns="http://www.w3.org/2000/svg">
<g clip-path="url(#clip0_518_1184)">
<path d="M24.5664 33.2612V37.7144H13.4336V33.2612L19.2185 31.0347L24.5664 33.2612Z" fill="#FFDF40"/>
<path d="M19 31.1188V37.7144H24.5664V33.2612L19.2185 31.0347L19 31.1188Z" fill="#FFBE40"/>
<path d="M26.8672 24.355V28.8081L32.4336 31.0347L38 28.8081V24.355H26.8672ZM11.1328 37.7144H0V33.2612H11.1328V37.7144Z" fill="#FFDF40"/>
<path d="M13.4336 28.8081V33.2612H24.5664V28.8081H13.4336Z" fill="#FFBE40"/>
<path d="M38 33.2612V37.7144H26.8672V33.2612L32.6521 31.0347L38 33.2612Z" fill="#FFDF40"/>
<path d="M32.0695 0.285645L22.0053 6.38643L24.6772 7.6333C24.5882 7.78916 24.4769 7.92275 24.3877 8.05635C22.896 10.3498 21.0702 12.3536 18.9995 14.0458C14.9472 17.3856 9.93743 19.5009 4.59375 20.013L4.68274 22.2173L6.24133 22.2395C9.55891 22.2395 14.3459 21.8611 18.9995 20.1466C19.4448 19.9907 19.8678 19.8127 20.3132 19.6345C25.2338 17.5193 28.6407 13.6451 30.7558 10.4834L33.8505 11.9083L32.0695 0.285645Z" fill="#94DAD9"/>
<path d="M33.851 11.9082L30.7563 10.4833C28.6412 13.6449 25.2344 17.5192 20.3137 19.6345C19.8684 19.8127 19.4454 19.9906 19 20.1465V14.0457C21.0707 12.3535 22.8965 10.3497 24.3882 8.05627C24.4773 7.92268 24.5887 7.78909 24.6777 7.63323L22.0058 6.38635L32.0699 0.285645L33.851 11.9082Z" fill="#28B6BE"/>
<path d="M19 28.8081H24.5664V33.2612H19V28.8081Z" fill="#FF9F40"/>
<path d="M5.56641 33.2612H11.1328V37.7144H5.56641V33.2612ZM32.4336 31.1188V37.7144H38V33.2612L32.6521 31.0347L32.4336 31.1188ZM32.4336 31.0347L38 28.8081V24.355H32.4336V31.0347Z" fill="#FFBE40"/>
<path d="M26.8672 28.8081V33.2612H38V28.8081H26.8672Z" fill="#FFBE40"/>
<path d="M32.4336 28.8081H38V33.2612H32.4336V28.8081Z" fill="#FF9F40"/>
</g>
<defs>
<clipPath id="clip0_518_1184">
<rect width="38" height="38" fill="white"/>
</clipPath>
</defs>
</svg>
