<svg width="38" height="38" viewBox="0 0 38 38" fill="none" xmlns="http://www.w3.org/2000/svg">
<path d="M36.2081 31.24V33.4691C36.2081 34.2374 35.9029 34.9741 35.3597 35.5173C34.8164 36.0606 34.0797 36.3657 33.3115 36.3657H4.68957C3.92135 36.3657 3.18458 36.0606 2.64136 35.5173C2.09815 34.9741 1.79297 34.2374 1.79297 33.4691V31.24C1.79297 30.9783 2.0052 30.7661 2.26689 30.7661H35.7349C35.9966 30.7661 36.2081 30.9783 36.2081 31.24Z" fill="#F9B938"/>
<path d="M36.2089 31.2388V33.4686C36.2089 35.0675 34.9112 36.3652 33.3123 36.3652H4.69041C4.18505 36.3673 3.68814 36.2357 3.24998 35.9839C2.81183 35.7321 2.44799 35.3689 2.19531 34.9313C2.66135 35.2611 3.2421 35.4547 3.85154 35.4547H32.4734C34.0723 35.4547 35.37 34.1569 35.37 32.5581V30.7656H35.7357C35.9938 30.7656 36.2089 30.9807 36.2089 31.2388Z" fill="#E5A320"/>
<path d="M34.6413 12.9339V30.7652H3.35938V12.9339C3.35928 12.5026 3.44415 12.0755 3.60913 11.677C3.77411 11.2786 4.01598 10.9165 4.32092 10.6115C4.62585 10.3065 4.98788 10.0645 5.38634 9.89945C5.78479 9.73438 6.21186 9.64941 6.64315 9.64941H31.3575C32.2284 9.64941 33.0636 9.99538 33.6795 10.6112C34.2953 11.227 34.6413 12.0623 34.6413 12.9332V12.9339Z" fill="#56D1CF"/>
<path opacity="0.3" d="M4.98305 26.0476C4.84043 26.0476 4.70366 25.9909 4.60281 25.8901C4.50197 25.7892 4.44531 25.6525 4.44531 25.5098V21.3205C4.44531 21.1779 4.50197 21.0411 4.60281 20.9403C4.70366 20.8394 4.84043 20.7828 4.98305 20.7828C5.12566 20.7828 5.26244 20.8394 5.36329 20.9403C5.46413 21.0411 5.52078 21.1779 5.52078 21.3205V25.5098C5.52078 25.6525 5.46413 25.7892 5.36329 25.8901C5.26244 25.9909 5.12566 26.0476 4.98305 26.0476ZM4.98305 19.5209C4.84043 19.5209 4.70366 19.4642 4.60281 19.3634C4.50197 19.2626 4.44531 19.1258 4.44531 18.9832V18.4669C4.44531 18.3243 4.50197 18.1875 4.60281 18.0867C4.70366 17.9859 4.84043 17.9292 4.98305 17.9292C5.12566 17.9292 5.26244 17.9859 5.36329 18.0867C5.46413 18.1875 5.52078 18.3243 5.52078 18.4669V18.9832C5.52078 19.1258 5.46413 19.2626 5.36329 19.3634C5.26244 19.4642 5.12566 19.5209 4.98305 19.5209Z" fill="white"/>
<path d="M34.6445 12.9339V30.7653H3.35547V28.8223H30.9901C31.5427 28.8223 32.0728 28.6028 32.4636 28.212C32.8545 27.8213 33.0741 27.2914 33.0743 26.7387V10.9916C33.0743 10.669 33.0241 10.3535 32.9381 10.0596C33.9562 10.6188 34.6445 11.6936 34.6445 12.9339Z" fill="#28B6BE"/>
<path d="M6.58594 26.1451V14.2705C6.58594 13.5005 7.20971 12.876 7.98047 12.876H30.0205C30.7905 12.876 31.415 13.4997 31.415 14.2705V26.1451C31.415 26.9152 30.7905 27.5397 30.0205 27.5397H7.98047C7.61061 27.5397 7.25591 27.3928 6.99439 27.1312C6.73286 26.8697 6.58594 26.515 6.58594 26.1451Z" fill="white"/>
<path opacity="0.3" d="M12.688 32.7438C12.688 32.8864 12.6313 33.0232 12.5305 33.124C12.4296 33.2249 12.2929 33.2815 12.1502 33.2815H7.96092C7.8183 33.2815 7.68152 33.2249 7.58068 33.124C7.47983 33.0232 7.42318 32.8864 7.42318 32.7438C7.42318 32.6012 7.47983 32.4644 7.58068 32.3636C7.68152 32.2627 7.8183 32.2061 7.96092 32.2061H12.1502C12.2929 32.2061 12.4296 32.2627 12.5305 32.3636C12.6313 32.4644 12.688 32.6012 12.688 32.7438ZM6.16058 32.7438C6.16058 32.8864 6.10392 33.0232 6.00308 33.124C5.90223 33.2249 5.76546 33.2815 5.62284 33.2815H5.10805C4.96543 33.2815 4.82866 33.2249 4.72781 33.124C4.62697 33.0232 4.57031 32.8864 4.57031 32.7438C4.57031 32.6012 4.62697 32.4644 4.72781 32.3636C4.82866 32.2627 4.96543 32.2061 5.10805 32.2061H5.62284C5.76546 32.2061 5.90223 32.2627 6.00308 32.3636C6.10392 32.4644 6.16058 32.6012 6.16058 32.7438Z" fill="white"/>
<path d="M23.105 30.7656L22.3636 32.7997C22.2979 32.9798 22.1784 33.1354 22.0213 33.2453C21.8642 33.3552 21.6771 33.4142 21.4853 33.4142H16.5181C16.3264 33.4142 16.1393 33.3552 15.9821 33.2453C15.825 33.1354 15.7055 32.9798 15.6398 32.7997L14.8984 30.7663L23.105 30.7656Z" fill="#E5A320"/>
<path d="M28.7388 3.77326V23.5419C28.739 23.8229 28.6838 24.1012 28.5764 24.3608C28.4689 24.6205 28.3113 24.8564 28.1126 25.0551C27.9139 25.2538 27.678 25.4114 27.4183 25.5189C27.1587 25.6263 26.8804 25.6815 26.5994 25.6813H11.4044C11.1234 25.6814 10.8452 25.6262 10.5856 25.5187C10.3261 25.4112 10.0902 25.2536 9.89159 25.0549C9.69296 24.8562 9.53544 24.6203 9.42803 24.3607C9.32062 24.1011 9.26544 23.8228 9.26563 23.5419V3.77326C9.26544 3.49231 9.32062 3.21407 9.42803 2.95446C9.53544 2.69485 9.69296 2.45896 9.89159 2.26026C10.0902 2.06156 10.3261 1.90396 10.5856 1.79647C10.8452 1.68898 11.1234 1.6337 11.4044 1.63379H26.5994C26.8804 1.6336 27.1587 1.68881 27.4183 1.79626C27.678 1.90371 27.9139 2.0613 28.1126 2.26001C28.3113 2.45871 28.4689 2.69464 28.5764 2.9543C28.6838 3.21396 28.739 3.49225 28.7388 3.77326Z" fill="#E3FFFF"/>
<path d="M28.7378 3.7713V23.5456C28.7359 24.113 28.5092 24.6564 28.1074 25.0569C27.7055 25.4574 27.1613 25.6822 26.594 25.6822H11.4012C11.0411 25.6837 10.6866 25.5928 10.3715 25.4184C10.0565 25.2439 9.79142 24.9917 9.60156 24.6856C9.9242 24.8792 10.3042 24.9868 10.7057 24.9868H25.9057C27.0887 24.9868 28.0423 24.0332 28.0423 22.8502V3.083C28.0423 2.67432 27.9348 2.29432 27.7268 1.97168C28.037 2.15821 28.2932 2.4222 28.4705 2.73772C28.6477 3.05323 28.7398 3.40942 28.7378 3.7713Z" fill="#D0D0F7"/>
<path d="M16.1989 5.12858V8.03737C16.1989 8.57726 15.7615 9.01534 15.2209 9.01534H12.31C11.7701 9.01534 11.332 8.57798 11.332 8.03737V5.12858C11.332 4.58798 11.7694 4.1499 12.31 4.1499H15.2209C15.7608 4.1499 16.1989 4.58798 16.1989 5.12858Z" fill="#FC6559"/>
<path d="M16.2014 5.12917V8.03581C16.2014 8.57714 15.7641 9.01521 15.2242 9.01521H12.3133C11.9333 9.01521 11.6034 8.80012 11.4414 8.48464C11.5748 8.55347 11.7268 8.59219 11.8895 8.59219H14.8005C15.3396 8.59219 15.7777 8.1534 15.7777 7.61423V4.70544C15.7777 4.5434 15.739 4.39068 15.668 4.25732C15.9842 4.41721 16.2014 4.74774 16.2014 5.12917Z" fill="#F05543"/>
<path d="M16.1989 12.4726V15.3821C16.1989 15.922 15.7615 16.3601 15.2209 16.3601H12.31C11.7701 16.3601 11.332 15.9227 11.332 15.3821V12.4726C11.332 11.9327 11.7694 11.4946 12.31 11.4946H15.2209C15.7608 11.4946 16.1989 11.932 16.1989 12.4726Z" fill="#F9B938"/>
<path d="M16.2014 12.4739V15.3805C16.2014 15.9219 15.7641 16.3599 15.2242 16.3599H12.3133C11.9333 16.3599 11.6034 16.1448 11.4414 15.8294C11.5748 15.8975 11.7268 15.9369 11.8895 15.9369H14.8005C15.3396 15.9369 15.7777 15.4981 15.7777 14.959V12.0502C15.7777 11.8874 15.739 11.7354 15.668 11.6021C15.9842 11.7619 16.2014 12.0925 16.2014 12.4739Z" fill="#ECB021"/>
<path d="M16.1989 19.8173V22.7268C16.1989 23.2667 15.7615 23.7048 15.2209 23.7048H12.31C11.7701 23.7048 11.332 23.2674 11.332 22.7268V19.8173C11.332 19.2774 11.7694 18.8394 12.31 18.8394H15.2209C15.7608 18.8394 16.1989 19.2767 16.1989 19.8173Z" fill="#5BC658"/>
<path d="M16.2014 19.8179V22.7253C16.2014 23.2666 15.7641 23.7047 15.2242 23.7047H12.3133C11.9333 23.7047 11.6034 23.4896 11.4414 23.1741C11.5748 23.2422 11.7268 23.2809 11.8895 23.2809H14.8005C15.3396 23.2809 15.7777 22.8436 15.7777 22.3037V19.3949C15.7777 19.2321 15.739 19.0801 15.668 18.9468C15.9842 19.1067 16.2014 19.4372 16.2014 19.8179Z" fill="#49A247"/>
<path d="M26.6795 6.14797H18.6694C18.5553 6.14797 18.4459 6.10265 18.3652 6.02198C18.2845 5.9413 18.2392 5.83188 18.2392 5.71779C18.2392 5.60369 18.2845 5.49427 18.3652 5.4136C18.4459 5.33292 18.5553 5.2876 18.6694 5.2876H26.6795C26.7936 5.2876 26.903 5.33292 26.9837 5.4136C27.0644 5.49427 27.1097 5.60369 27.1097 5.71779C27.1097 5.83188 27.0644 5.9413 26.9837 6.02198C26.903 6.10265 26.7936 6.14797 26.6795 6.14797ZM26.6795 7.87805H18.6694C18.5553 7.87805 18.4459 7.83273 18.3652 7.75205C18.2845 7.67138 18.2392 7.56195 18.2392 7.44786C18.2392 7.33377 18.2845 7.22435 18.3652 7.14367C18.4459 7.063 18.5553 7.01767 18.6694 7.01767H26.6795C26.7936 7.01767 26.903 7.063 26.9837 7.14367C27.0644 7.22435 27.1097 7.33377 27.1097 7.44786C27.1097 7.56195 27.0644 7.67138 26.9837 7.75205C26.903 7.83273 26.7936 7.87805 26.6795 7.87805ZM26.6795 13.2956H18.4185C18.3044 13.2956 18.195 13.2502 18.1143 13.1696C18.0336 13.0889 17.9883 12.9795 17.9883 12.8654C17.9883 12.7513 18.0336 12.6419 18.1143 12.5612C18.195 12.4805 18.3044 12.4352 18.4185 12.4352H26.6795C26.7936 12.4352 26.903 12.4805 26.9837 12.5612C27.0644 12.6419 27.1097 12.7513 27.1097 12.8654C27.1097 12.9795 27.0644 13.0889 26.9837 13.1696C26.903 13.2502 26.7936 13.2956 26.6795 13.2956ZM26.6795 15.0256H18.4185C18.3044 15.0256 18.195 14.9803 18.1143 14.8996C18.0336 14.819 17.9883 14.7095 17.9883 14.5954C17.9883 14.4814 18.0336 14.3719 18.1143 14.2913C18.195 14.2106 18.3044 14.1653 18.4185 14.1653H26.6795C26.7936 14.1653 26.903 14.2106 26.9837 14.2913C27.0644 14.3719 27.1097 14.4814 27.1097 14.5954C27.1097 14.7095 27.0644 14.819 26.9837 14.8996C26.903 14.9803 26.7936 15.0256 26.6795 15.0256ZM26.6795 20.8368H18.4185C18.3044 20.8368 18.195 20.7914 18.1143 20.7108C18.0336 20.6301 17.9883 20.5207 17.9883 20.4066C17.9883 20.2925 18.0336 20.1831 18.1143 20.1024C18.195 20.0217 18.3044 19.9764 18.4185 19.9764H26.6795C26.7936 19.9764 26.903 20.0217 26.9837 20.1024C27.0644 20.1831 27.1097 20.2925 27.1097 20.4066C27.1097 20.5207 27.0644 20.6301 26.9837 20.7108C26.903 20.7914 26.7936 20.8368 26.6795 20.8368ZM26.6795 22.5668H18.4185C18.3044 22.5668 18.195 22.5215 18.1143 22.4408C18.0336 22.3602 17.9883 22.2507 17.9883 22.1367C17.9883 22.0226 18.0336 21.9131 18.1143 21.8325C18.195 21.7518 18.3044 21.7065 18.4185 21.7065H26.6795C26.7936 21.7065 26.903 21.7518 26.9837 21.8325C27.0644 21.9131 27.1097 22.0226 27.1097 22.1367C27.1097 22.2507 27.0644 22.3602 26.9837 22.4408C26.903 22.5215 26.7936 22.5668 26.6795 22.5668Z" fill="#D0D0F7"/>
<path d="M13.1696 7.2742L12.7365 6.72213C12.6779 6.6473 12.6513 6.55223 12.6628 6.45784C12.6742 6.36345 12.7226 6.27747 12.7975 6.21881C12.8723 6.16014 12.9674 6.13361 13.0618 6.14504C13.1561 6.15646 13.2421 6.20492 13.3008 6.27975L13.5101 6.54718L14.4014 5.83164C14.4758 5.77569 14.5691 5.75093 14.6615 5.76259C14.754 5.77424 14.8382 5.82141 14.8964 5.89409C14.9547 5.96678 14.9823 6.05927 14.9736 6.152C14.9648 6.24472 14.9203 6.3304 14.8495 6.39088L13.6751 7.33299C13.6381 7.3626 13.5956 7.38459 13.55 7.39767C13.5045 7.41075 13.4568 7.41467 13.4097 7.4092C13.3626 7.40373 13.3171 7.38899 13.2758 7.36581C13.2344 7.34264 13.1981 7.3115 13.1689 7.2742H13.1696ZM13.1696 14.6727L12.7365 14.1199C12.6818 14.0448 12.6583 13.9514 12.6712 13.8593C12.684 13.7673 12.7321 13.6838 12.8053 13.6265C12.8785 13.5692 12.9711 13.5426 13.0635 13.5522C13.1559 13.5619 13.241 13.6071 13.3008 13.6783L13.5101 13.945L14.4014 13.2302C14.4758 13.1742 14.5691 13.1495 14.6615 13.1611C14.754 13.1728 14.8382 13.2199 14.8964 13.2926C14.9547 13.3653 14.9823 13.4578 14.9736 13.5505C14.9648 13.6433 14.9203 13.7289 14.8495 13.7894L13.6751 14.7315C13.6381 14.7611 13.5956 14.7831 13.55 14.7962C13.5045 14.8093 13.4568 14.8132 13.4097 14.8077C13.3626 14.8023 13.3171 14.7875 13.2758 14.7643C13.2344 14.7412 13.1981 14.71 13.1689 14.6727H13.1696ZM13.1696 21.8232L12.7365 21.2711C12.6779 21.1963 12.6513 21.1012 12.6628 21.0068C12.6742 20.9124 12.7226 20.8264 12.7975 20.7678C12.8723 20.7091 12.9674 20.6826 13.0618 20.694C13.1561 20.7054 13.2421 20.7539 13.3008 20.8287L13.5101 21.0962L14.4014 20.3806C14.4758 20.3247 14.5691 20.2999 14.6615 20.3116C14.754 20.3232 14.8382 20.3704 14.8964 20.4431C14.9547 20.5158 14.9823 20.6083 14.9736 20.701C14.9648 20.7937 14.9203 20.8794 14.8495 20.9399L13.6751 21.882C13.6381 21.9116 13.5956 21.9336 13.55 21.9466C13.5045 21.9597 13.4568 21.9636 13.4097 21.9582C13.3626 21.9527 13.3171 21.938 13.2758 21.9148C13.2344 21.8916 13.1981 21.8605 13.1689 21.8232H13.1696Z" fill="white"/>
</svg>
