<svg width="38" height="38" viewBox="0 0 38 38" fill="none" xmlns="http://www.w3.org/2000/svg">
<path d="M32.4578 6.80817H25.0161C24.6995 6.80817 24.3828 6.4915 24.3828 6.17484C24.3828 5.85817 24.6995 5.5415 25.0161 5.5415H32.4578C32.7745 5.5415 33.0911 5.85817 33.0911 6.17484C33.0911 6.4915 32.7745 6.80817 32.4578 6.80817ZM35.1495 9.26234H25.0953C24.7786 9.26234 24.462 8.94567 24.462 8.629C24.462 8.31234 24.7786 7.99567 25.0953 7.99567H35.1495C35.4661 7.99567 35.7828 8.31234 35.7828 8.629C35.7828 8.94567 35.4661 9.26234 35.1495 9.26234Z" fill="#CCD0D2"/>
<path d="M20.9009 8.86689C20.8217 6.17523 19.1592 5.06689 17.0217 5.06689C14.8842 5.06689 13.2217 6.09606 13.1426 8.86689C13.1426 10.8461 20.9009 10.8461 20.9009 8.86689Z" fill="#FF4378"/>
<path d="M17.0219 3.325C17.94 3.325 18.6844 2.58067 18.6844 1.6625C18.6844 0.744327 17.94 0 17.0219 0C16.1037 0 15.3594 0.744327 15.3594 1.6625C15.3594 2.58067 16.1037 3.325 17.0219 3.325Z" fill="#FF4378"/>
<path d="M32.4578 20.6627H25.0161C24.6995 20.6627 24.3828 20.346 24.3828 20.0293C24.3828 19.7127 24.6995 19.396 25.0161 19.396H32.4578C32.7745 19.396 33.0911 19.7127 33.0911 20.0293C33.0911 20.346 32.7745 20.6627 32.4578 20.6627ZM35.1495 23.1168H25.0953C24.7786 23.1168 24.462 22.8002 24.462 22.4835C24.462 22.1668 24.7786 21.8502 25.0953 21.8502H35.1495C35.4661 21.8502 35.7828 22.1668 35.7828 22.4835C35.7828 22.8002 35.4661 23.1168 35.1495 23.1168Z" fill="#CCD0D2"/>
<path d="M20.9009 22.6418C20.8217 19.9501 19.1592 18.8418 17.0217 18.8418C14.8842 18.8418 13.2217 19.871 13.1426 22.6418C13.1426 24.7001 20.9009 24.7001 20.9009 22.6418Z" fill="#28B6BE"/>
<path d="M17.0219 17.0999C17.94 17.0999 18.6844 16.3556 18.6844 15.4374C18.6844 14.5192 17.94 13.7749 17.0219 13.7749C16.1037 13.7749 15.3594 14.5192 15.3594 15.4374C15.3594 16.3556 16.1037 17.0999 17.0219 17.0999Z" fill="#28B6BE"/>
<path d="M32.4578 34.4376H25.0161C24.6995 34.4376 24.3828 34.1209 24.3828 33.8042C24.3828 33.4876 24.6995 33.1709 25.0161 33.1709H32.4578C32.7745 33.1709 33.0911 33.4876 33.0911 33.8042C33.0911 34.2001 32.7745 34.4376 32.4578 34.4376ZM35.1495 36.8917H25.0953C24.7786 36.8917 24.462 36.5751 24.462 36.2584C24.462 35.9417 24.7786 35.6251 25.0953 35.6251H35.1495C35.4661 35.6251 35.7828 35.9417 35.7828 36.2584C35.7828 36.6542 35.4661 36.8917 35.1495 36.8917Z" fill="#CCD0D2"/>
<path d="M20.9009 36.4958C20.8217 33.8041 19.1592 32.6958 17.0217 32.6958C14.8842 32.6958 13.2217 33.725 13.1426 36.4958C13.1426 38.475 20.9009 38.475 20.9009 36.4958Z" fill="#FF9900"/>
<path d="M17.0219 30.9544C17.94 30.9544 18.6844 30.2101 18.6844 29.2919C18.6844 28.3737 17.94 27.6294 17.0219 27.6294C16.1037 27.6294 15.3594 28.3737 15.3594 29.2919C15.3594 30.2101 16.1037 30.9544 17.0219 30.9544Z" fill="#FF9900"/>
<path d="M6.0168 9.02523C3.95846 9.02523 2.2168 7.36273 2.2168 5.22523C2.2168 3.16689 3.95846 1.50439 6.0168 1.50439C6.33346 1.50439 6.65013 1.82106 6.65013 2.13773C6.65013 2.45439 6.33346 2.77106 6.0168 2.77106C4.5918 2.77106 3.48346 3.87939 3.48346 5.30439C3.48346 6.72939 4.5918 7.83773 6.0168 7.83773C7.4418 7.83773 8.55013 6.72939 8.55013 5.30439C8.55013 4.98773 8.8668 4.67106 9.18346 4.67106C9.50013 4.67106 9.8168 4.98773 9.8168 5.30439C9.73763 7.36273 8.07513 9.02523 6.0168 9.02523Z" fill="#CCD0D2"/>
<path d="M6.01615 6.4127C5.85781 6.4127 5.69948 6.33353 5.54115 6.1752L4.43281 5.06686C4.11615 4.7502 4.11615 4.43353 4.43281 4.11686C4.67031 3.87936 5.06615 3.87936 5.30365 4.11686L6.01615 4.82936L9.42031 1.4252C9.65781 1.1877 10.0536 1.1877 10.2911 1.4252C10.5286 1.6627 10.5286 2.05853 10.2911 2.29603L6.41198 6.1752C6.33281 6.33353 6.17448 6.4127 6.01615 6.4127Z" fill="#324D5B"/>
<path d="M6.0168 22.8793C3.95846 22.8793 2.2168 21.2168 2.2168 19.0793C2.2168 17.021 3.8793 15.2793 6.0168 15.2793C6.33346 15.2793 6.65013 15.596 6.65013 15.9126C6.65013 16.2293 6.33346 16.546 6.0168 16.546C4.5918 16.546 3.48346 17.6543 3.48346 19.0793C3.48346 20.5043 4.5918 21.6126 6.0168 21.6126C7.4418 21.6126 8.55013 20.5043 8.55013 19.0793C8.55013 18.7626 8.8668 18.446 9.18346 18.446C9.50013 18.446 9.8168 18.7626 9.8168 19.0793C9.73763 21.1376 8.07513 22.8793 6.0168 22.8793Z" fill="#CCD0D2"/>
<path d="M6.01641 20.1875C5.85807 20.1875 5.69974 20.1084 5.54141 20.0292L4.35391 18.8417C4.11641 18.6042 4.11641 18.2084 4.35391 17.9709C4.59141 17.7334 4.98724 17.7334 5.22474 17.9709L5.93724 18.6834L9.34141 15.2792C9.57891 15.0417 9.97474 15.0417 10.2122 15.2792C10.4497 15.5167 10.4497 15.9125 10.2122 16.15L6.41224 19.95C6.33307 20.1084 6.17474 20.1875 6.01641 20.1875Z" fill="#324D5B"/>
<path d="M6.0168 36.6542C3.95846 36.6542 2.2168 34.9917 2.2168 32.8542C2.2168 30.7959 3.8793 29.0542 6.0168 29.0542C6.33346 29.0542 6.65013 29.3709 6.65013 29.6875C6.65013 30.0042 6.33346 30.3209 6.0168 30.3209C4.5918 30.3209 3.48346 31.4292 3.48346 32.8542C3.48346 34.2792 4.5918 35.3875 6.0168 35.3875C7.4418 35.3875 8.55013 34.2792 8.55013 32.8542C8.55013 32.5375 8.8668 32.2209 9.18346 32.2209C9.50013 32.2209 9.8168 32.5375 9.8168 32.8542C9.73763 34.9917 8.07513 36.6542 6.0168 36.6542Z" fill="#CCD0D2"/>
<path d="M6.01641 34.0415C5.85807 34.0415 5.69974 33.9624 5.54141 33.8832L4.35391 32.6957C4.11641 32.4582 4.11641 32.0624 4.35391 31.8249C4.59141 31.5874 4.98724 31.5874 5.22474 31.8249L5.93724 32.5374L9.34141 29.1332C9.57891 28.8957 9.97474 28.8957 10.2122 29.1332C10.4497 29.3707 10.4497 29.7665 10.2122 30.004L6.41224 33.804C6.33307 33.9624 6.17474 34.0415 6.01641 34.0415Z" fill="#324D5B"/>
</svg>
