<svg width="38" height="38" viewBox="0 0 38 38" fill="none" xmlns="http://www.w3.org/2000/svg">
<g clip-path="url(#clip0_502_6276)">
<path d="M24.6472 1.34794V36.652C24.6472 37.0702 24.3085 37.4082 23.891 37.4082H0.756215C0.338734 37.4082 0 37.0702 0 36.652V1.34794C0 0.929715 0.338734 0.591797 0.756215 0.591797H23.8911C24.3085 0.591797 24.6472 0.929715 24.6472 1.34794Z" fill="#F8F3F1"/>
<path d="M24.6479 15.3213V36.6518C24.6479 37.07 24.3092 37.408 23.8917 37.408H21.3968C17.4348 35.5469 14.6914 31.5199 14.6914 26.8528C14.6915 20.993 19.016 16.1432 24.6479 15.3213Z" fill="#E5E1E5"/>
<path d="M24.6456 1.34745V36.6521C24.6456 37.0695 24.3076 37.4083 23.8894 37.4083H21.0742C21.4916 37.4083 21.8304 37.0695 21.8304 36.6521V1.34745C21.8304 0.930043 21.4916 0.591309 21.0742 0.591309H23.8894C24.3076 0.591234 24.6456 0.930043 24.6456 1.34745Z" fill="#E5E1E5"/>
<path d="M6.99705 8.69987H4.07098C3.61973 8.69987 3.25391 8.33405 3.25391 7.8828V4.95672C3.25391 4.50547 3.61973 4.13965 4.07098 4.13965H6.99698C7.44823 4.13965 7.81405 4.50547 7.81405 4.95672V7.88272C7.81405 8.33405 7.4483 8.69987 6.99705 8.69987Z" fill="#35BCC7"/>
<path d="M7.81321 4.95721V7.88306C7.81321 8.33409 7.44716 8.70014 6.99614 8.70014H4.89062C5.34165 8.70014 5.7077 8.33409 5.7077 7.88306V4.95721C5.7077 4.50618 5.34165 4.14014 4.89062 4.14014H6.99614C7.44716 4.14014 7.81321 4.50618 7.81321 4.95721Z" fill="#20ABB9"/>
<path d="M5.51052 7.52111C5.4352 7.52119 5.3606 7.50639 5.29101 7.47757C5.22142 7.44875 5.1582 7.40647 5.10499 7.35315L4.48631 6.73446C4.37962 6.62673 4.31994 6.48114 4.32031 6.32952C4.32069 6.1779 4.38109 6.0326 4.4883 5.9254C4.59552 5.81819 4.74082 5.75781 4.89244 5.75745C5.04406 5.75709 5.18965 5.81678 5.29737 5.92348L5.51052 6.13671L7.9279 3.71925C8.03563 3.61256 8.18122 3.55286 8.33283 3.55322C8.48445 3.55358 8.62976 3.61397 8.73697 3.72117C8.84418 3.82838 8.90458 3.97368 8.90496 4.1253C8.90533 4.27691 8.84565 4.42251 8.73897 4.53024L5.91606 7.35315C5.86286 7.40648 5.79965 7.44878 5.73005 7.4776C5.66046 7.50642 5.58585 7.52121 5.51052 7.52111Z" fill="#FDD330"/>
<path d="M12.929 7.14292H11.1203C10.9682 7.14292 10.8224 7.08251 10.7148 6.97497C10.6073 6.86744 10.5469 6.72159 10.5469 6.56951C10.5469 6.41743 10.6073 6.27158 10.7148 6.16404C10.8224 6.05651 10.9682 5.99609 11.1203 5.99609H12.929C13.0043 5.99608 13.0789 6.01091 13.1484 6.03972C13.218 6.06854 13.2812 6.11077 13.3345 6.16402C13.3877 6.21727 13.43 6.28049 13.4588 6.35006C13.4876 6.41963 13.5024 6.4942 13.5024 6.56951C13.5024 6.64481 13.4876 6.71938 13.4588 6.78896C13.43 6.85853 13.3877 6.92175 13.3345 6.97499C13.2812 7.02824 13.218 7.07048 13.1484 7.09929C13.0789 7.12811 13.0043 7.14293 12.929 7.14292ZM21.3934 9.27345H11.1203C11.045 9.27345 10.9704 9.25861 10.9009 9.2298C10.8313 9.20098 10.7681 9.15874 10.7148 9.1055C10.6616 9.05225 10.6193 8.98904 10.5905 8.91947C10.5617 8.8499 10.5469 8.77533 10.5469 8.70003C10.5469 8.62473 10.5617 8.55017 10.5905 8.4806C10.6193 8.41103 10.6616 8.34781 10.7148 8.29457C10.7681 8.24132 10.8313 8.19908 10.9009 8.17027C10.9704 8.14145 11.045 8.12662 11.1203 8.12662H21.3934C21.4687 8.12661 21.5433 8.14143 21.6129 8.17025C21.6824 8.19906 21.7457 8.2413 21.7989 8.29454C21.8522 8.34779 21.8944 8.41101 21.9232 8.48058C21.952 8.55016 21.9669 8.62473 21.9668 8.70003C21.9669 8.77534 21.952 8.84991 21.9232 8.91948C21.8944 8.98905 21.8522 9.05227 21.7989 9.10552C21.7457 9.15877 21.6824 9.201 21.6129 9.22982C21.5433 9.25863 21.4687 9.27346 21.3934 9.27345Z" fill="#C9C0C7"/>
<path d="M6.99705 16.1324H4.07098C3.61973 16.1324 3.25391 15.7666 3.25391 15.3153V12.3893C3.25391 11.9381 3.61973 11.5723 4.07098 11.5723H6.99698C7.44823 11.5723 7.81405 11.9381 7.81405 12.3893V15.3153C7.81405 15.7666 7.4483 16.1324 6.99705 16.1324Z" fill="#35BCC7"/>
<path d="M7.81321 12.3893V15.3152C7.81321 15.7662 7.44716 16.1323 6.99614 16.1323H4.89062C5.34165 16.1323 5.7077 15.7662 5.7077 15.3152V12.3893C5.7077 11.9383 5.34165 11.5723 4.89062 11.5723H6.99614C7.44716 11.5723 7.81321 11.9383 7.81321 12.3893Z" fill="#20ABB9"/>
<path d="M5.51243 14.9533C5.43711 14.9534 5.36252 14.9386 5.29294 14.9098C5.22335 14.881 5.16015 14.8387 5.10697 14.7854L4.48828 14.1667C4.43503 14.1134 4.39279 14.0502 4.36397 13.9806C4.33515 13.9111 4.32032 13.8365 4.32031 13.7612C4.32031 13.6091 4.38071 13.4633 4.48825 13.3557C4.59578 13.2482 4.74163 13.1878 4.89372 13.1877C5.0458 13.1877 5.19165 13.2481 5.2992 13.3557L5.51243 13.5688L7.92981 11.1514C8.03753 11.0447 8.18312 10.985 8.33474 10.9854C8.48635 10.9857 8.63166 11.0461 8.73887 11.1533C8.84609 11.2605 8.90649 11.4058 8.90686 11.5574C8.90724 11.709 8.84756 11.8546 8.74087 11.9624L5.91796 14.7853C5.86478 14.8386 5.80157 14.8809 5.73197 14.9098C5.66238 14.9386 5.58776 14.9534 5.51243 14.9533Z" fill="#FDD330"/>
<path d="M12.929 14.5755H11.1203C10.9682 14.5755 10.8224 14.5151 10.7148 14.4076C10.6073 14.3001 10.5469 14.1542 10.5469 14.0021C10.5469 13.85 10.6073 13.7042 10.7148 13.5967C10.8224 13.4891 10.9682 13.4287 11.1203 13.4287H12.929C13.2458 13.4287 13.5024 13.6854 13.5024 14.0021C13.5024 14.3188 13.2458 14.5755 12.929 14.5755ZM21.3934 16.7061H11.1203C11.045 16.7061 10.9704 16.6913 10.9009 16.6625C10.8313 16.6337 10.7681 16.5914 10.7148 16.5382C10.6616 16.4849 10.6193 16.4217 10.5905 16.3522C10.5617 16.2826 10.5469 16.208 10.5469 16.1327C10.5469 16.0574 10.5617 15.9829 10.5905 15.9133C10.6193 15.8437 10.6616 15.7805 10.7148 15.7273C10.7681 15.674 10.8313 15.6318 10.9009 15.603C10.9704 15.5741 11.045 15.5593 11.1203 15.5593H21.3934C21.7102 15.5593 21.9668 15.816 21.9668 16.1327C21.9668 16.4494 21.7102 16.7061 21.3934 16.7061Z" fill="#C9C0C7"/>
<path d="M6.99705 23.5645H4.07098C3.61973 23.5645 3.25391 23.1987 3.25391 22.7475V19.8215C3.25391 19.3702 3.61973 19.0044 4.07098 19.0044H6.99698C7.44823 19.0044 7.81405 19.3702 7.81405 19.8215V22.7475C7.81405 23.1988 7.4483 23.5645 6.99705 23.5645Z" fill="#FCA62F"/>
<path d="M7.81321 19.822V22.7478C7.81321 23.1988 7.44716 23.5649 6.99614 23.5649H4.89062C5.34165 23.5649 5.7077 23.1988 5.7077 22.7478V19.822C5.7077 19.3709 5.34165 19.0049 4.89062 19.0049H6.99614C7.44716 19.0049 7.81321 19.3709 7.81321 19.822Z" fill="#F98824"/>
<path d="M12.929 22.0077H11.1203C10.9682 22.0077 10.8224 21.9473 10.7148 21.8397C10.6073 21.7322 10.5469 21.5863 10.5469 21.4343C10.5469 21.2822 10.6073 21.1363 10.7148 21.0288C10.8224 20.9213 10.9682 20.8608 11.1203 20.8608H12.929C13.0043 20.8608 13.0789 20.8757 13.1484 20.9045C13.218 20.9333 13.2812 20.9755 13.3345 21.0288C13.3877 21.082 13.43 21.1452 13.4588 21.2148C13.4876 21.2844 13.5024 21.359 13.5024 21.4343C13.5024 21.5096 13.4876 21.5841 13.4588 21.6537C13.43 21.7233 13.3877 21.7865 13.3345 21.8397C13.2812 21.893 13.218 21.9352 13.1484 21.964C13.0789 21.9929 13.0043 22.0077 12.929 22.0077ZM21.3934 24.1382H11.1203C10.9682 24.1382 10.8224 24.0778 10.7148 23.9702C10.6073 23.8627 10.5469 23.7169 10.5469 23.5648C10.5469 23.4127 10.6073 23.2668 10.7148 23.1593C10.8224 23.0518 10.9682 22.9914 11.1203 22.9914H21.3934C21.4687 22.9914 21.5433 23.0062 21.6129 23.035C21.6824 23.0638 21.7457 23.106 21.7989 23.1593C21.8522 23.2125 21.8944 23.2758 21.9232 23.3453C21.952 23.4149 21.9669 23.4895 21.9668 23.5648C21.9669 23.6401 21.952 23.7147 21.9232 23.7842C21.8944 23.8538 21.8522 23.917 21.7989 23.9703C21.7457 24.0235 21.6824 24.0657 21.6129 24.0946C21.5433 24.1234 21.4687 24.1382 21.3934 24.1382Z" fill="#C9C0C7"/>
<path d="M6.99705 30.9972H4.07098C3.61973 30.9972 3.25391 30.6313 3.25391 30.1801V27.2541C3.25391 26.8028 3.61973 26.437 4.07098 26.437H6.99698C7.44823 26.437 7.81405 26.8028 7.81405 27.2541V30.1801C7.81405 30.6313 7.4483 30.9972 6.99705 30.9972Z" fill="#FEE265"/>
<path d="M7.81321 27.2541V30.1799C7.81321 30.631 7.44716 30.997 6.99614 30.997H4.89062C5.34165 30.997 5.7077 30.631 5.7077 30.1799V27.2541C5.7077 26.8031 5.34165 26.437 4.89062 26.437H6.99614C7.44716 26.437 7.81321 26.8031 7.81321 27.2541Z" fill="#FDD330"/>
<path d="M12.929 29.4403H11.1203C10.9682 29.4403 10.8224 29.3799 10.7148 29.2723C10.6073 29.1648 10.5469 29.019 10.5469 28.8669C10.5469 28.7148 10.6073 28.5689 10.7148 28.4614C10.8224 28.3539 10.9682 28.2935 11.1203 28.2935H12.929C13.0043 28.2934 13.0789 28.3083 13.1484 28.3371C13.218 28.3659 13.2812 28.4081 13.3345 28.4614C13.3877 28.5146 13.43 28.5779 13.4588 28.6474C13.4876 28.717 13.5024 28.7916 13.5024 28.8669C13.5024 28.9422 13.4876 29.0167 13.4588 29.0863C13.43 29.1559 13.3877 29.2191 13.3345 29.2724C13.2812 29.3256 13.218 29.3678 13.1484 29.3967C13.0789 29.4255 13.0043 29.4403 12.929 29.4403ZM21.3934 31.5707H11.1203C10.9682 31.5707 10.8224 31.5103 10.7148 31.4028C10.6073 31.2953 10.5469 31.1494 10.5469 30.9973C10.5469 30.8452 10.6073 30.6994 10.7148 30.5919C10.8224 30.4843 10.9682 30.4239 11.1203 30.4239H21.3934C21.7102 30.4239 21.9668 30.6806 21.9668 30.9973C21.9668 31.314 21.7102 31.5707 21.3934 31.5707Z" fill="#C9C0C7"/>
<path d="M26.3462 35.2197C32.783 35.2197 38.001 30.0017 38.001 23.5649C38.001 17.1282 32.783 11.9102 26.3462 11.9102C19.9094 11.9102 14.6914 17.1282 14.6914 23.5649C14.6914 30.0017 19.9094 35.2197 26.3462 35.2197Z" fill="#35CFD8"/>
<path d="M37.9989 23.5649C37.9995 30.0016 32.7814 35.2197 26.3448 35.2197C25.9142 35.2197 25.4892 35.1961 25.071 35.1509C30.9083 34.5161 35.4513 29.571 35.4513 23.5649C35.4513 17.5589 30.9076 12.6137 25.0703 11.979C25.4885 11.9338 25.9135 11.9102 26.3441 11.9102C32.7808 11.9102 37.9989 17.1283 37.9989 23.5649Z" fill="#28B6BE"/>
<path d="M26.3435 32.4942C31.2752 32.4942 35.273 28.4964 35.273 23.5647C35.273 18.6331 31.2752 14.6353 26.3435 14.6353C21.4119 14.6353 17.4141 18.6331 17.4141 23.5647C17.4141 28.4964 21.4119 32.4942 26.3435 32.4942Z" fill="#F8F3F1"/>
<path d="M35.2755 23.565C35.2755 28.4964 31.2776 32.4943 26.3456 32.4943C25.9817 32.4943 25.6224 32.4724 25.2696 32.4301C29.6939 31.8988 33.1228 28.1324 33.1228 23.565C33.1228 18.9976 29.6939 15.2312 25.2695 14.6999C25.6223 14.6576 25.9816 14.6357 26.3456 14.6357C31.2775 14.6357 35.2755 18.6336 35.2755 23.565Z" fill="#E5E1E5"/>
<path d="M27.5066 27.2563L25.6289 24.1254L27.1836 23.1929L29.0614 26.3238C29.118 26.4183 29.1349 26.5315 29.1081 26.6384C29.0814 26.7453 29.0132 26.8372 28.9187 26.8939L28.0767 27.3988C28.0299 27.4269 27.9781 27.4455 27.9241 27.4535C27.8701 27.4616 27.8151 27.4589 27.7621 27.4456C27.7092 27.4324 27.6594 27.4089 27.6156 27.3764C27.5717 27.3439 27.5347 27.3031 27.5066 27.2563Z" fill="#FEE265"/>
<path d="M26.3625 23.2355C26.2872 23.2355 26.2126 23.2207 26.143 23.1919C26.0735 23.1631 26.0102 23.1208 25.957 23.0676C25.9037 23.0143 25.8615 22.9511 25.8327 22.8815C25.8039 22.812 25.7891 22.7374 25.7891 22.6621V19.0934C25.7891 18.9414 25.8495 18.7955 25.957 18.688C26.0645 18.5804 26.2104 18.52 26.3625 18.52C26.5146 18.52 26.6604 18.5804 26.7679 18.688C26.8755 18.7955 26.9359 18.9414 26.9359 19.0934V22.6621C26.9359 22.7374 26.9211 22.812 26.8923 22.8815C26.8634 22.9511 26.8212 23.0143 26.768 23.0676C26.7147 23.1208 26.6515 23.1631 26.5819 23.1919C26.5124 23.2207 26.4378 23.2355 26.3625 23.2355Z" fill="#35CFD8"/>
<path d="M26.3436 24.8498C27.0533 24.8498 27.6286 24.2745 27.6286 23.5648C27.6286 22.8551 27.0533 22.2798 26.3436 22.2798C25.6339 22.2798 25.0586 22.8551 25.0586 23.5648C25.0586 24.2745 25.6339 24.8498 26.3436 24.8498Z" fill="#FB9927"/>
<path d="M33.0243 24.1233H33.0132C32.8622 24.1212 32.7181 24.0598 32.6122 23.9522C32.5062 23.8446 32.447 23.6996 32.4473 23.5486C32.4476 23.3976 32.5075 23.2528 32.6139 23.1457C32.7203 23.0386 32.8646 22.9777 33.0156 22.9764H33.0182L33.0268 22.9764C33.1788 22.9768 33.3246 23.0375 33.4319 23.1452C33.5392 23.253 33.5993 23.399 33.599 23.5511C33.5986 23.7031 33.5379 23.8489 33.4301 23.9562C33.3224 24.0635 33.1764 24.1236 33.0243 24.1233ZM19.6757 24.1233H19.6672C19.5151 24.1233 19.3692 24.0628 19.2617 23.9553C19.1542 23.8478 19.0938 23.7019 19.0938 23.5498C19.0938 23.3978 19.1542 23.2519 19.2617 23.1444C19.3692 23.0368 19.5151 22.9764 19.6672 22.9764H19.6757C19.8262 22.9788 19.9697 23.0403 20.0752 23.1476C20.1808 23.2549 20.24 23.3993 20.24 23.5498C20.24 23.7003 20.1808 23.8448 20.0752 23.9521C19.9697 24.0594 19.8262 24.1208 19.6757 24.1233ZM26.3266 17.4532C26.2513 17.4532 26.1767 17.4384 26.1071 17.4096C26.0376 17.3808 25.9744 17.3385 25.9211 17.2853C25.8679 17.232 25.8256 17.1688 25.7968 17.0992C25.768 17.0297 25.7532 16.9551 25.7532 16.8798V16.8713C25.7532 16.7192 25.8136 16.5733 25.9211 16.4658C26.0287 16.3583 26.1745 16.2979 26.3266 16.2979C26.4787 16.2979 26.6245 16.3583 26.7321 16.4658C26.8396 16.5733 26.9 16.7192 26.9 16.8713V16.8798C26.9 16.9551 26.8852 17.0297 26.8564 17.0992C26.8276 17.1688 26.7853 17.232 26.7321 17.2853C26.6788 17.3385 26.6156 17.3808 26.546 17.4096C26.4765 17.4384 26.4019 17.4532 26.3266 17.4532ZM26.3648 30.8018C26.2895 30.8018 26.2149 30.7869 26.1454 30.7581C26.0758 30.7293 26.0126 30.6871 25.9593 30.6338C25.9061 30.5806 25.8638 30.5174 25.835 30.4478C25.8062 30.3782 25.7914 30.3036 25.7914 30.2283V30.2198C25.7914 30.0677 25.8518 29.9219 25.9593 29.8143C26.0669 29.7068 26.2127 29.6464 26.3648 29.6464C26.5169 29.6464 26.6627 29.7068 26.7703 29.8143C26.8778 29.9219 26.9382 30.0677 26.9382 30.2198V30.2283C26.9382 30.3036 26.9234 30.3782 26.8946 30.4478C26.8658 30.5174 26.8235 30.5806 26.7703 30.6338C26.7171 30.6871 26.6538 30.7293 26.5843 30.7581C26.5147 30.7869 26.4401 30.8018 26.3648 30.8018ZM22.9947 18.3565C22.8938 18.3566 22.7947 18.3301 22.7073 18.2797C22.62 18.2292 22.5475 18.1565 22.4972 18.0691L22.493 18.0617C22.4193 17.93 22.4005 17.7746 22.4406 17.6292C22.4808 17.4837 22.5766 17.3599 22.7073 17.2847C22.8381 17.2094 22.9932 17.1887 23.1392 17.227C23.2851 17.2653 23.41 17.3596 23.4869 17.4894L23.4911 17.4969C23.5413 17.584 23.5677 17.6828 23.5676 17.7834C23.5676 17.884 23.5411 17.9827 23.4908 18.0698C23.4405 18.1569 23.3682 18.2293 23.2811 18.2796C23.194 18.3299 23.0953 18.3564 22.9947 18.3565ZM20.5593 20.8049C20.4591 20.8049 20.3607 20.7786 20.274 20.7285L20.2665 20.7242C20.1363 20.6475 20.0416 20.5226 20.003 20.3766C19.9644 20.2305 19.985 20.0751 20.0603 19.9442C20.1356 19.8132 20.2595 19.7172 20.4051 19.6771C20.5508 19.637 20.7064 19.6559 20.8381 19.7299L20.8456 19.7342C20.9552 19.7971 21.0409 19.8946 21.0895 20.0113C21.138 20.128 21.1466 20.2575 21.1139 20.3796C21.0813 20.5017 21.0092 20.6096 20.9089 20.6865C20.8086 20.7635 20.6857 20.8051 20.5593 20.8049ZM32.1385 27.446C32.0382 27.4461 31.9397 27.4196 31.8529 27.3694L31.8455 27.3652C31.7157 27.2883 31.6214 27.1634 31.5831 27.0175C31.5447 26.8715 31.5655 26.7164 31.6407 26.5856C31.716 26.4549 31.8398 26.3591 31.9852 26.3189C32.1307 26.2788 32.2861 26.2976 32.4177 26.3713L32.4251 26.3755C32.5347 26.4385 32.6203 26.536 32.6687 26.6527C32.7172 26.7694 32.7257 26.8988 32.693 27.0209C32.6604 27.1429 32.5883 27.2508 32.488 27.3277C32.3877 27.4045 32.2649 27.4461 32.1385 27.446ZM29.6967 18.3565C29.5962 18.3564 29.4976 18.33 29.4106 18.2797C29.3235 18.2295 29.2513 18.1573 29.2009 18.0704C29.1506 17.9834 29.124 17.8848 29.1238 17.7843C29.1235 17.6838 29.1497 17.5851 29.1997 17.4979L29.2039 17.4905C29.2807 17.3609 29.4054 17.2668 29.551 17.2284C29.6967 17.1901 29.8516 17.2105 29.9823 17.2854C30.1129 17.3602 30.2089 17.4835 30.2495 17.6285C30.29 17.7736 30.2719 17.9288 30.199 18.0605L30.1948 18.068C30.1446 18.1557 30.0721 18.2286 29.9846 18.2793C29.8971 18.33 29.7978 18.3566 29.6967 18.3565ZM22.9893 29.8975C22.8888 29.8975 22.79 29.8709 22.7029 29.8206C22.6158 29.7703 22.5435 29.6979 22.4932 29.6109C22.443 29.5238 22.4164 29.425 22.4164 29.3244C22.4163 29.2238 22.4427 29.125 22.4929 29.0379L22.4971 29.0304C22.574 28.9006 22.699 28.8063 22.8449 28.768C22.9908 28.7297 23.1459 28.7504 23.2767 28.8257C23.4075 28.901 23.5033 29.0247 23.5434 29.1702C23.5835 29.3156 23.5647 29.471 23.4911 29.6027L23.4868 29.6101C23.4365 29.6976 23.3641 29.7702 23.2767 29.8207C23.1894 29.8711 23.0902 29.8977 22.9893 29.8975ZM32.1321 20.8049C32.0057 20.805 31.8829 20.7633 31.7826 20.6864C31.6823 20.6095 31.6102 20.5016 31.5776 20.3795C31.5449 20.2574 31.5535 20.128 31.602 20.0113C31.6505 19.8946 31.7362 19.7972 31.8458 19.7342L31.8533 19.7299C31.985 19.6559 32.1406 19.637 32.2863 19.6771C32.4319 19.7172 32.5558 19.8132 32.6311 19.9442C32.7064 20.0751 32.727 20.2305 32.6884 20.3766C32.6498 20.5226 32.5551 20.6475 32.4249 20.7242L32.4174 20.7285C32.3307 20.7785 32.2323 20.8048 32.1321 20.8049ZM20.553 27.446C20.4524 27.4461 20.3537 27.4198 20.2665 27.3697C20.1794 27.3196 20.107 27.2474 20.0566 27.1604C20.0188 27.0953 19.9941 27.0234 19.9841 26.9488C19.9741 26.8741 19.9789 26.7982 19.9982 26.7255C20.0175 26.6527 20.0509 26.5844 20.0966 26.5245C20.1423 26.4647 20.1994 26.4144 20.2645 26.3766L20.2719 26.3723C20.4032 26.2989 20.5582 26.2801 20.7033 26.3198C20.8484 26.3596 20.972 26.4548 21.0476 26.5849C21.1231 26.715 21.1445 26.8696 21.1072 27.0154C21.0698 27.1611 20.9767 27.2863 20.8478 27.364L20.8404 27.3683C20.7532 27.4192 20.654 27.446 20.553 27.446ZM29.702 29.8975C29.6011 29.8977 29.502 29.8711 29.4146 29.8207C29.3273 29.7702 29.2548 29.6976 29.2045 29.6101L29.2003 29.6027C29.1266 29.471 29.1078 29.3156 29.1479 29.1702C29.1881 29.0247 29.2839 28.901 29.4146 28.8257C29.5454 28.7504 29.7005 28.7297 29.8465 28.768C29.9924 28.8063 30.1173 28.9006 30.1942 29.0304L30.1984 29.0379C30.2486 29.125 30.275 29.2238 30.2749 29.3244C30.2749 29.425 30.2484 29.5238 30.1981 29.6109C30.1478 29.6979 30.0755 29.7703 29.9884 29.8206C29.9013 29.8709 29.8026 29.8975 29.702 29.8975Z" fill="#B9AFB9"/>
</g>
<defs>
<clipPath id="clip0_502_6276">
<rect width="38" height="38" fill="white"/>
</clipPath>
</defs>
</svg>
