<svg width="38" height="38" viewBox="0 0 38 38" fill="none" xmlns="http://www.w3.org/2000/svg">
<path fill-rule="evenodd" clip-rule="evenodd" d="M19 16.75C9.16245 16.75 1.1875 24.725 1.1875 34.5625H7.8277C7.8277 28.3922 12.8297 23.3902 19 23.3902C25.1703 23.3902 30.1723 28.3923 30.1723 34.5625H36.8125C36.8125 24.725 28.8375 16.75 19 16.75Z" fill="#3CD7E0"/>
<path fill-rule="evenodd" clip-rule="evenodd" d="M19.4723 35.0342C19.3472 35.1592 19.1776 35.2294 19.0008 35.2294C18.8239 35.2294 18.6543 35.1592 18.5293 35.0341C18.4042 34.9091 18.334 34.7395 18.334 34.5626C18.334 34.3858 18.4042 34.2162 18.5293 34.0911L24.0767 28.5437C24.2025 28.4224 24.3709 28.3554 24.5457 28.357C24.7205 28.3586 24.8876 28.4287 25.0112 28.5523C25.1348 28.6759 25.2049 28.843 25.2065 29.0178C25.2081 29.1925 25.141 29.3609 25.0197 29.4868L19.4723 35.0342Z" fill="#A79BA7"/>
<path fill-rule="evenodd" clip-rule="evenodd" d="M18.9999 37.1091C20.4025 37.1091 21.5466 35.965 21.5466 34.5624C21.5466 33.1596 20.4025 32.0156 18.9999 32.0156C17.5971 32.0156 16.4531 33.1596 16.4531 34.5624C16.4531 35.9651 17.5971 37.1091 18.9999 37.1091Z" fill="#685E68"/>
<path fill-rule="evenodd" clip-rule="evenodd" d="M19.0008 32.0156C20.4073 32.0156 21.5475 33.1558 21.5475 34.5624C21.5475 35.9689 20.4073 37.1091 19.0008 37.1091C18.8588 37.1091 18.7196 37.0973 18.584 37.075C19.7922 36.8761 20.7139 35.8269 20.7139 34.5624C20.7139 33.2978 19.7922 32.2487 18.584 32.0498C18.7218 32.0271 18.8612 32.0156 19.0008 32.0156Z" fill="#544854"/>
<path fill-rule="evenodd" clip-rule="evenodd" d="M28.6779 28.9754L34.4294 25.6547C32.8626 22.9489 30.6144 20.7006 27.9086 19.1338L24.5879 24.8854C26.285 25.8681 27.6952 27.2783 28.6779 28.9754Z" fill="#41E0E9"/>
<path fill-rule="evenodd" clip-rule="evenodd" d="M24.587 24.8855L27.9077 19.1339C25.2874 17.6178 22.245 16.75 19 16.75V23.3902C21.0353 23.3902 22.9435 23.9345 24.587 24.8855Z" fill="#FFD064"/>
<path fill-rule="evenodd" clip-rule="evenodd" d="M18.9995 23.3902V16.75C15.7545 16.75 12.7122 17.6178 10.0918 19.1338L13.4125 24.8854C15.056 23.9345 16.9642 23.3902 18.9995 23.3902Z" fill="#FFE177"/>
<path fill-rule="evenodd" clip-rule="evenodd" d="M13.4139 24.8854L10.0932 19.1338C7.38731 20.7006 5.13905 22.9488 3.57227 25.6547L9.32385 28.9754C10.3066 27.2783 11.7167 25.8681 13.4139 24.8854Z" fill="#FD4755"/>
<path fill-rule="evenodd" clip-rule="evenodd" d="M9.32291 28.9755L3.57133 25.6548C2.05527 28.2752 1.1875 31.3175 1.1875 34.5626H7.82763C7.82763 32.5272 8.37195 30.619 9.32291 28.9755Z" fill="#FE646F"/>
<path fill-rule="evenodd" clip-rule="evenodd" d="M5.53313 16.5673C5.40921 16.6605 5.25369 16.7013 5.1 16.6809C4.94632 16.6606 4.80675 16.5807 4.71133 16.4586C4.6159 16.3364 4.57223 16.1817 4.58971 16.0276C4.6072 15.8736 4.68444 15.7326 4.80482 15.6349L14.7954 7.85574C14.8631 7.80277 14.9415 7.76521 15.0252 7.7457C15.1089 7.72619 15.1959 7.72519 15.28 7.74277L15.2801 7.74203L24.9797 9.77852L33.1392 2.48067L32.4138 2.62279C32.3374 2.63772 32.2587 2.63744 32.1824 2.62198C32.1061 2.60652 32.0335 2.57617 31.9689 2.53267C31.9043 2.48916 31.8489 2.43336 31.8058 2.36845C31.7628 2.30353 31.733 2.23077 31.718 2.15433C31.7031 2.07788 31.7034 1.99924 31.7188 1.9229C31.7343 1.84656 31.7647 1.77401 31.8082 1.7094C31.8517 1.64479 31.9075 1.58938 31.9724 1.54634C32.0373 1.50329 32.11 1.47345 32.1865 1.45853L35.0266 0.902107C35.1309 0.881737 35.2388 0.889775 35.339 0.925383C35.4391 0.960991 35.5279 1.02286 35.5959 1.10452C35.664 1.18617 35.7089 1.28462 35.7258 1.38955C35.7428 1.49448 35.7313 1.60205 35.6924 1.701L34.7634 4.41228C34.7387 4.48644 34.6997 4.55499 34.6485 4.614C34.5973 4.67301 34.5349 4.72131 34.465 4.75612C34.395 4.79093 34.3189 4.81156 34.2409 4.81684C34.163 4.82211 34.0847 4.81191 34.0107 4.78684C33.9367 4.76177 33.8684 4.72231 33.8097 4.67073C33.751 4.61916 33.7031 4.55648 33.6687 4.48632C33.6344 4.41616 33.6142 4.33989 33.6094 4.26191C33.6046 4.18392 33.6153 4.10576 33.6408 4.03191L33.845 3.43608L25.5694 10.8377C25.5 10.9074 25.4142 10.9587 25.32 10.9869C25.2257 11.0151 25.1258 11.0194 25.0295 10.9993L15.3058 8.95774L5.53313 16.5673Z" fill="#A79BA7"/>
<path d="M5.40575 18.3927C6.67404 18.2655 7.59903 17.1342 7.47176 15.8659C7.3445 14.5976 6.21318 13.6726 4.94489 13.7998C3.67659 13.9271 2.7516 15.0584 2.87887 16.3267C3.00613 17.595 4.13745 18.52 5.40575 18.3927Z" fill="#FE646F"/>
<path fill-rule="evenodd" clip-rule="evenodd" d="M5.16797 13.793C6.4426 13.793 7.47595 14.8263 7.47595 16.1009C7.47595 17.3757 6.4426 18.409 5.16797 18.409C5.04165 18.409 4.9177 18.3987 4.79688 18.3792C5.89509 18.2016 6.73376 17.2493 6.73376 16.1009C6.73376 14.9526 5.89509 14.0003 4.79688 13.8228C4.91958 13.803 5.04367 13.793 5.16797 13.793Z" fill="#FD4755"/>
<path d="M15.1595 10.6301C16.4342 10.6301 17.4675 9.5968 17.4675 8.32214C17.4675 7.04748 16.4342 6.01416 15.1595 6.01416C13.8849 6.01416 12.8516 7.04748 12.8516 8.32214C12.8516 9.5968 13.8849 10.6301 15.1595 10.6301Z" fill="#FFE177"/>
<path fill-rule="evenodd" clip-rule="evenodd" d="M15.1582 6.01416C16.4329 6.01416 17.4662 7.04751 17.4662 8.32214C17.4662 9.59677 16.4328 10.6301 15.1582 10.6301C15.0319 10.6301 14.9079 10.6198 14.7871 10.6003C15.8853 10.4228 16.724 9.47045 16.724 8.32214C16.724 7.17383 15.8853 6.22153 14.7871 6.044C14.9098 6.02415 15.0339 6.01417 15.1582 6.01416Z" fill="#FFD064"/>
<path d="M25.1498 12.7273C26.4244 12.7273 27.4578 11.694 27.4578 10.4193C27.4578 9.14465 26.4244 8.11133 25.1498 8.11133C23.8751 8.11133 22.8418 9.14465 22.8418 10.4193C22.8418 11.694 23.8751 12.7273 25.1498 12.7273Z" fill="#41E0E9"/>
<path fill-rule="evenodd" clip-rule="evenodd" d="M25.1484 8.11133C26.4231 8.11133 27.4565 9.14468 27.4565 10.4193C27.4565 11.694 26.4231 12.7273 25.1484 12.7273C25.0221 12.7273 24.8982 12.717 24.7773 12.6975C25.8756 12.5199 26.7142 11.5676 26.7142 10.4193C26.7142 9.271 25.8756 8.3187 24.7773 8.14116C24.9 8.12132 25.0241 8.11134 25.1484 8.11133Z" fill="#28B6BE"/>
</svg>
